<?xml version="1.0" encoding="UTF-8"?>
<svg id="Layer_1" xmlns="http://www.w3.org/2000/svg" version="1.1" viewBox="0 0 834.7 725.7">
  <!-- Generator: Adobe Illustrator 29.1.0, SVG Export Plug-In . SVG Version: 2.1.0 Build 142)  -->
  <defs>
    <style>
      .st0 {
        fill: #f0d785;
      }

      .st1 {
        fill: #1b191c;
      }

      .st2 {
        fill: #ebddcd;
      }

      .st3 {
        fill: #0b0808;
      }

      .st4 {
        fill: #f9b7b3;
      }

      .st5 {
        fill: #352725;
      }

      .st6 {
        fill: #fab8b4;
      }

      .st7 {
        fill: #eff1f1;
      }

      .st8 {
        fill: #f8b6b3;
      }

      .st9 {
        fill: #f7b6b2;
      }

      .st10 {
        fill: #fbfcfc;
      }

      .st11 {
        fill: #292215;
      }

      .st12 {
        fill: #f9fafa;
      }

      .st13 {
        fill: #1d1b1d;
      }

      .st14 {
        fill: #221c18;
      }

      .st15 {
        fill: #1e1c1e;
      }

      .st16 {
        fill: #e3c3a5;
      }

      .st17 {
        fill: #fff;
      }

      .st18 {
        fill: #e1cc7e;
      }

      .st19 {
        fill: #382e2e;
      }

      .st20 {
        fill: #d79b91;
      }

      .st21 {
        fill: #0d0c0c;
      }

      .st22 {
        fill: #211f21;
      }

      .st23 {
        fill: #221714;
      }

      .st24 {
        fill: #f8b7b3;
      }

      .st25 {
        fill: #f3f5f5;
      }

      .st26 {
        fill: #262224;
      }

      .st27 {
        fill: #fbb8b4;
      }

      .st28 {
        fill: #e8a49a;
      }

      .st29 {
        fill: #fab7b3;
      }
    </style>
  </defs>
  <path class="st21" d="M717.6,418.5c.2-.1.2-1.7,1-1.9,2-.5,4.7.2,6.9,0l-3.3,32.7c-3.5-.5-8.2,1.8-9.2-2.2-20.6,12.9-32.3-19.2-15.1-29.3,9.8-5.7,17.8,1.7,19.8.6h0ZM705.5,422.2c-9.6,2-11.9,22.6,2.9,20.5,11.8-1.7,9.9-23.1-2.9-20.5Z"/>
  <path class="st3" d="M772.3,436.2c.3,5.9,6.4,7.5,11.4,6.5,3.9-.8,3.7-5.3,10.3-1-.4,6.3-10.2,9.2-15.7,8.6-21-2.3-18.7-35,3.2-34.9,15.8,0,18.1,20.8,14.2,20.8h-23.4ZM788.7,429.7c.6-10.9-15.1-10.4-16.3,0h16.3Z"/>
  <path class="st21" d="M760.1,419c.8,1.5.5,8.5-1.4,8.5-20.4-19.3-27.5,25.6-.6,13.1.8,15.2-19.4,11.2-24.2.7-8-17.3,10.2-33.3,26.1-22.3h0Z"/>
  <g>
    <path class="st14" d="M460.6,428.6c9,7.3,13,2.8,23.1,5.8,3.7,1.1,5.6,4,6,4.1,2.6.4,9.1-1.5,13.8-1,8.2.8,16.9,5.9,25.5,7.2,5.1.8,12.3,1.8,17.2,2.4,15.5,1.8,24.6-3.3,39.2-4.3,16.7-1.2,36.3-.5,45,16,10.9,20.7,8.6,49.6-16.8,57-18.6,5.4-29.5,2.3-46.8,3.3-10.7.7-22.1,6-32.7,6.5-9.9.5-19.9-2.8-30.5-2.2-9.6.5-19.7,3.9-29.4,4.4-8,.4-15.4-1.4-22.9-1.1-19.3.8-39.6,9.4-60,5.3-32,9-63.4-2.7-88.7-22.3-5.8-4.5-11.4-11.3-17-15.7-5.2-4.1-11.8-6.8-16.9-11.5-13.2-11.9-30-42.2-37.1-58.8-5.8-13.8-17.5-56.9-16.3-70.8.6-7.3,4.5-14.6,5.4-20.8.8-5.3-.3-11.6.2-17.2,1-10.8,12.9-48.5,18.6-57.7,9.3-15,26.5-29.1,36.9-42.7,6.2-8.2,10.3-15.5,18-23.5,38.6-40.3,64.2-30.3,115.5-27.2,15.2.9,30-.6,45.1,4,12.6,3.9,16.4,16,24.2,25.9,3.9,5,7.5,6.5,11.4,13.6,15.1,27.2,16.3,43.2,7.8,73.3-1.1,4-7.8,24.6-9.5,26.5-8.2,9.5-11.6-13-13.7-16.8-1.5-2.6-5.5-5.1-7.5-7.8-3.5-4.8-13.2-22.8-16.4-25.1-1.7-1.2-3.5.4-5.4.1-4.1-.5-7.9-9.9-11-13.1-6.2-6.7-13.2-5.7-21.3-8.7,4.8,4.5,12.5,19.1,4,23.2-5.8,2.8-7.2-8-9-11.1-1.6-2.6-5.5-4.4-6.5-7.6-2-6.3,3-9.4-2.2-16.3-3.4-4.5-8.5-6.1-14-5.4-14.1,1.8-4.5,16.5-10.4,23.4-.9,1-3.2,1.3-3.4,2.3-.2,1.4,1.3,3.8,1.1,6.2-.4,4.4-3.2,10.2-3.2,14.3,0,6.7,5,12,3,20.5-.5,2-2.5,3.4-2.8,4.7,0,.6.7,10.5.9,11.8.9,5.7,9.3,13.1,9.7,20.2-2.5,0-5.7,1.7-9.8,1.1-.5,0-1-.6-1.1-1.1,1.8-.3,6.8-.5,6.4-2.6-1.3-6.2-6.9-10.3-8.1-14.8s0-8.6-1.2-12.9c-1.4-4.5-6.7-6.6-6.9-12.7,0-2.2.2-1.8,2.2-1.6,1,3.8,2.8,9.3,7.6,8.7,1.9-7-3.2-14-3.3-20.2-.1-5,3.3-11.2,3.2-16.2-.1-4.6-3.3-7-4-10.1-1.1-4.6-.8-12.1,4.1-14.5.2,5.2-6.2,14.8,2.2,15.9,3.7-1.7,1.7-12.3,2.2-16.3,1.1-8.2,9.5-9.2,16.3-9.9-2-2.7-4.5-.5-7.4-1.2-9.1-2.3-10.1-12.7-14.7-14.9-3.5-1.6-7.4-.3-10.9-1-4.5-.9-10.8-6.8-15.7-7-3.2-.2-12.8,3.5-16.7,4.6-2.3.7-4.9,0-6.9.7-2.4.8-17.5,12.6-15,15,13.5-4.1,18.3,4.1,26.1,12.6,1.2,1.3,3.4,1.9,4.4,3.2,2.7,3.4.4,8.4,5.3,7.1,1.9-6.4-.7-11.4,7.7-13v3.2c-8.4,0-1,11.3-8.4,14.1-1.7.5-2.6-.4-3.6-1.5-2.2-2.4-1.7-6.6-4.3-8.2.2,5.5.2,10.2-1.4,15.5-2.2,7.3-12.3,13.9-5.2,19.4-.2-3.7,1.4-9.3,5.1-10.7,6.3-2.5-.9,4.8-1.2,5.4-1.1,2.1-1.2,7.9-3.4,8.6-4.3,1.4-4.7-6.1-6.5-6.5-20.8,4.8-32,38.2-56.8,26.4l-7.9-7.9c-1.8,8.7-.2,21.4-11,23.6,2.1,9.7-4.9,17.4-2.1,26.6,7.5.3,4.9-10.9,7-16.4,2.4-6.2,6.6-5.5,12.4-5.6l2.4-8.5c4.2,1.5,1.8,9.5-.8,11-3.4,2-8.5-.5-10.6,3.3-3,5.2-.2,12.3-5.4,18.6-1.1,1.3-3.4,1.6-3.8,2.9-1.9,5.2-5.3,26.5-5.5,32.3-.5,13.8,4.5,14.9,7.3,25.4,2.4,8.9,2.2,26.9,5.5,33.7.8,1.5,1.5,2.9,3.5,2.5,1.2-3.5,1.3-6.5,1-10.2-.4-4.9-6.3-17.2.1-18.1-.8,6.5,2.8,13,3.3,19.1.6,8.8-4.3,14.7,3.4,22.8,7.5,7.8,13.9,9.7,21,20.4,3.1,4.6,4.7,14,11.5,13,2.5-6.6-4.2-9.6-5.4-12.5-1.7-4,6.2,0,7.9,4.1,3.2,7.8-4.6,10.4,4.8,17,5.2,3.7,18.7,7.7,24.9,7.8,3.2,0,6-1.4,9.7-1.2,4,.3,7.5,3.3,11.8,2,3.8-1.2,5.1-13.1,6.8-17.2,4.6-11.6,16.7-25,28.6-29.2,9.8-3.4,19.9-2,30-3.8,11.8-2,12.6-5.2,26.1-1.6,7,1.9,13.5,4.7,21.1,5.1,7.8.4,18.4-5.4,26.6-5.4-1-2-6.3-2.9-8.3-3.1-3.2-.3-8.9-.6-11.9-.2-6,.8-5.2,7.1-14.4,2.5-1.2-.6-1.4-1.9-1.8-2.1-9.5-4.9-8.5-4.3-19.2-2.6h-3.3l12-3.3c5.7-1.2,11.9-2.7,17.4-4.4,3-.9,3.1,1.1,4.4,2.2h0ZM488.9,297.8c1.9-9,6.2-17.1,8.2-26.1,5.7-25.9,3.2-39.5-9.5-62.5-4.4-7.9-9.4-10.8-14.4-17.2-7.6-9.7-7.6-17.8-21.3-21.2-20.4-5.1-46.8-3.8-68.2-4.8-16.1-.8-32.8-5.2-48.5,1.1,5.5,5.7,15.9,2.5,23.3,3.4,13.9,1.6,17.6,10.4,28.2,16.4,6.2,3.5,16.4,5.5,21.3,10.3,3.8,3.6,4.6,9.9,7.1,12.5s10.2,4.1,14.2,7.6c4.7,4.1,7.8,10.9,13.1,15.2,4.3,3.5,9.4,5,13.7,8.1,13.8,9.6,17.8,32.9,28.4,45.7l4.1,11.6h0ZM374.5,182.3c-1.3-1-2.1-3-4.7-4.6-10.4-6.2-18-2.8-28.5-4.2-3.7-.5-9.1-4.1-11-4.2-2.2-.1-9.5,3.2-11.8,4.5-7.2,4.1-26.9,23.9-32.3,30.9-2.7,3.5-4.1,7.9-6.6,10.9-12.4,15.4-33.5,33.5-41.2,51.5-4.4,10.3-13.5,39.3-14.4,49.9-.4,5.2.7,11.3,0,16.3-1.8,11.7-6.9,17.3-5.3,31.6,1.2,10.5,12.1,48.9,16.5,58.7,6.6,14.6,19.2,38.5,29.7,49.9,8.7,9.4,16.6,12.6,25.6,20.1,10.5,8.8,16.8,16.6,29.5,23.9,26.1,15,40,15.7,69.1,11.5,7.6-1.1,10.3,1.4,17.9-3.9,14.3-10,27.8-40.5,19.2-57.2-.5-.9-6.2-9.3-6.6-9.7-3.8-3.8-17.2-1.8-22.9-2.2-9-.7-10.4-4.8-20.9.8-2.2,1.2-3.7,3.8-5.5,4.3s-3.9,0-5.8.8c-1.2.6-8.2,12.1-8.9,14-2.3,5.8-1.7,17.4-9.3,19.1-5,1.1-8.1-2-12.8-2.1-3.1,0-5.6,1.2-8.5,1.1-8.3-.3-20.5-3.7-27.2-8.8-2.6-2-4.9-6-6.2-6.8-1.7-1.1-3.6-.4-6-2.7-2.8-2.6-6-11.5-9.2-15.8-6-7.9-18.3-14.3-22-21.6-1-1.9-.9-5.3-1.8-6.6-.8-1-2.8-.8-3.9-1.7-5.8-4.8-5.9-30.4-8.7-39.3-1.2-4-4.2-7.1-5.5-10.9-5.1-15.7,2.4-27,3.8-40.8.7-6.6-1.8-12.9-1.1-19.6.6-5.7,4.1-9.9,3.4-16.4-.3-2.8-4.5-2.3-4.5-5.4,6.5-1.2,2.7-13.1,3.3-13.6.3-.2,2.3.4,3-.2.8-.7,1.7-7.2,5.7-10.2,2-1.5,5.8-2.2,6.3-2.9.7-.8.7-3.8,1.6-5.5,4.9-9.2,22.1-32.6,29.2-40.6,3.7-4.1,10.1-6.5,12.7-9.6,2-2.3,3.2-7.5,5.3-10.5,3.7-5.2,10-7.2,13.1-10.9,1.5-1.9,2.5-6.3,2.8-6.5,1.8-1.2,6.6,1.9,8-3.4h1.6s.7,2.2.7,2.2c4.9-1.3,10.1-3.4,15.2-3.4,9.1,0,35.3,11.6,43,17,7.1,5.1,10.2,13,18.6,19,10.5,7.4,32.9,17.3,40.9,26.1,7.4,8.1,15.2,24.2,21.8,33.8,2.6,3.7,6.5,6,9,10.6,2.9,5.4,2.9,12.4,7.3,16.7,5-3.6,1.1-4.3,0-7.6-3.8-11.1-6.8-13.9-11.6-23.2-4.3-8.4-8.4-21.5-15.1-28.5-4-4.2-11.8-6.5-16.9-10.4-6.1-4.8-11.2-14.1-17-17.9-3.4-2.2-7.4-2.4-10.9-5.5-3.7-3.3-3.5-6.7-6-10.3-5.2-7.4-16.7-8.7-24.1-12.9-2.6-1.5-6.3-4.8-9-6.8h0ZM321.1,192.1c9.2.8,15.7-6.3,25.1-3.8,1.1.3,20.4,11.5,18.5,3.3-.6-2.8-20.1-6.2-23.4-6.1-3.1,0-13.2,3-16.7,4.1-1.4.5-3.2.8-3.5,2.5h0ZM374.5,196.5c-1-.5-7.2-4.9-7.6-4.4-1.2,4.5,3.3,3.5,5.4,5.5,5,4.6,8.6,19.6,19.6,10.4-4.7-6.8-10.7-8.1-17.4-11.4h0ZM405,222.6c-1.4-1.9-10.5-12.1-12-11.5-1.8.9.9,4,1.5,4.5,2.9,2.7,7.1,3.7,9.4,8,3.5,6.5,0,10.2,1.6,15.3,1,3.2,5,5,6.5,7.7.7,1.2,2.3,10.7,5,8.1,5.4-6.7-7.7-16.5-6.4-21.6,1.7-6.6,7.5.7,10.2,1.4,1.9.5,5.9.9,4.9-2.1l-20.7-9.8h0ZM314.6,212.8c-4.3-.1-10.1-.6-13.1,3.2l13.1-3.2ZM289.5,227c-2.3-2.3-10.3,12.5-11.5,14.1-6.8,8.9-27.9,28-17.9,39.9,8.9,10.6,24.9.7,32.7-6.5,3.4-3.1,5.2-6.8,8.8-9.7,9.2-7.5,18.7-6.1,24.1-19.5,3.5-8.7,4.2-25.6-7.5-27.7-23.6-4.3-26.9,17.9-38.4,31.9-4.5,5.4-15.2,13.1-16.3,20.8-1.4,9.6,4.7,7.5,10.8,10.8.6,2.5-2.3,1.7-3.8,1.7-4.4-.2-9.1-2.7-10.1-7.4-3.3-15,26.2-33,29.2-48.3h0ZM289.5,224.8l1.1,1.1,2.2-3.3c-1.4-.4-3.1.6-3.3,2.2ZM437.7,241.1c-3.1-2.4-6.2-4.9-9.8-6.5l8.7,7.6c2.3.1,8.7,14.4,10.9,12,.8-6.3-5.5-9.8-9.8-13.1h0ZM253.5,273.8c-6.9-.5-13.8,23-12,25,11.7-2,5.5-17.9,12-25ZM446.4,432.9c2.9.2,13.6,9.3,14.2,1.6s-8.6-5-12.7-3.8c-1.5.5-1.9-.7-1.6,2.2h0ZM631.7,490.7c.8-2.9,2.4-3.2,2.1-8-.6-10.1-7-26.6-15.9-32.1-10-6.2-39.8-4.7-51-1.2-2.5.8-3.2,2.6-5.4,3-3.8.7-7.8-2.1-11.5-2,2.1,2.5,9.1,6.6,2.7,8.7-1.6-2.4-4.1-6.1-6.5-7.7-5.5-3.6-12.7-2.4-19.3-3.6-8.4-1.5-18.8-7.2-26.5-7.3-10.5-.2-23.9,4.6-34.3,6.6,0,1.8,8.3,3.6,5.4,6.5-1.2,1.3-15-8-18.5-6.5l.5,5.4c-6.1-5.2-15.8-10.4-23.9-10.9-8.8-.6-17.3,3.2-26.2,4.4-10.1,1.3-15.2-.5-25.6,4.4-4.1,1.9-8.5,4.8-10.9,8.7,5.3-.6,7.5-5.8,13.1-7.6,8.5-2.7,10.5,1.1,14.7,1.1h20.7c7,0,16,16.1,16.8,22.4,2.8,21.1-9.8,39.7-23.9,53.8,13.6.9,27.5-4.5,40.9-5.4,7.6-.5,14.4,1.3,21.8,1.1,9.8-.3,20.7-3.8,30.4-4.4,12.3-.8,24.8,2.3,37.1,1.1,8.4-.8,17.3-4.7,26.2-5.4s16.9,1.6,24.9.9,23.8-3.8,30.4-7.7c8.3-5,9.3-9.7,11.7-18.3h0Z"/>
    <path class="st1" d="M404.9,64.7c-13.8,1.9-10.2,15.5,0,20.3,9.7,4.6,17.3,2.9,24.7,13.4,7.4,10.6,6.5,27.8-6.8,32.3-16.5,5.6-36.3,3.7-52.5-1.9l-1.7,5.4c-17.9-5.3-37.8.5-54.9,6.6-3.5-9.2,11.5-16.5,10.9-23.3-3.2-8.8-7.9-17.4-10.9-26.2-2.4-7-5.9-27.4-10.5-30.9s-15.7-4.9-20.8-7.5c-4.1-2.1-2.7-3.5.5-5.4,4.5-2.7,31.3-12.4,36.2-12.9,3.1-.4,5.1.8,7,.6,4.3-.5,20.2-7.3,19.2.6-.3,2.5-10.9,8.2-12,14.2-.8,4.2,1.5,12.6,2.5,17.1,2.5,11.3,6.6,25.7,10,36.8,1.5,4.7,3.2,11.7,7.1,14.7.9.7,11.8,6.9,12.5,7.1.5.2,1.8.3,1.6-.5-6.2-4.1-20.9-23.2-11.2-28.9,11.5-6.7,23.3,16.3,35.2,15.3,1.7-14.3-13-13.7-19.5-19.1-20.5-17-19.5-59,12.5-61.5,18.7-1.5,51.7,4.8,52.6,28.1.3,7.3-6.3,29.2-16.1,24.7l-15.4-19h0ZM424.5,79.7c.5-.3,5.2-8.9,5.6-10.1,6.9-21.4-6.9-28.1-24.9-31.9-13.6-2.9-29.9-5.7-38.6,7.6-7.2,11.1-6.1,20-.6,31.5,5.8,12.2,10.1,11.2,19.9,17.1,11,6.7,15.1,27-2.3,20.8-5.4-1.9-21.6-17.8-25.4-15.2-7,4.8,12.1,25.5,18.6,27.5,5.5,1.7,20.6,3.1,26.6,2.9,12.9-.5,29.3-4.4,26.2-20.8-3.4-18.3-22.7-14.8-31.7-22.8-2.6-2.3-7.2-11.2-7-14.7.5-7.4,13.1-15,18.5-8.8.8.9.7,2.6,1.4,3.4,3.7,4.2,8,7.7,10.5,12.9.8.6,2.3.9,3.2.4h0ZM333.1,38.4c-15.1.9-29.6,5.4-43.6,10.9l13.1,5.9c10.8,5.2,10.6,21,14.1,31.7s9,21.3,12.9,31.9c.8,5.1-8.7,10.4-10.7,15.5,13.3-4.4,27.4-6.6,41.4-6.5l-13.6-8.7c-5.8-16.8-12.8-36.1-16.2-53.6-2.3-11.6-4.6-17.2,4.7-26,1-.9,3-1.6,3.3-3.3l-5.5,2.2h0ZM368.5,126.7v1.1c.7-.4.7-.7,0-1.1Z"/>
    <path class="st22" d="M548.9,189.9c-3,8.5-7.3,18-11.8,25.8-1.9,3.3-6.6,12.6-10.6,12.3-12.2-5.6-18.5-21.2-18.9-34,15.1-13.4,26.5-29.4,39.1-44.9,3.2-4,7.6-7.9,10.9-12,9.4-11.8,13-28,28.9-7.1,15.3,20.1-6.2,30.3-13.4,46.6-4.8,10.8-5.6,23.6-6.8,35.2,14.8-11.8,17-33.3,25.6-49,18-32.7,40.2,34.5,30.5,47.9-21.9,13.1-40,31.3-60,46.9-7.7,6-23.4,19.1-27.1,2.1-3.1-14.4,9.9-51.9,14.6-67.4.9-3.1,3-6,2.2-9.8-2.7.9-2.6,5.7-3.3,7.6h0ZM571.5,124.7c-3,.8-8.8,11.9-11.2,15-12.7,16.4-27.9,35.6-42.4,50.3-2.1,2.1-5.5,2.9-6,6,1.2,10,5.2,22.5,14.8,27.5,2-.1,7.4-10.4,8.7-12.8,3.2-5.9,13.1-31.9,15.2-33.8,1.8-1.7,5.2-1.8,5.9.7.4,1.3-1.1,8.2-1.5,10.2-3.5,17.6-19.1,55.5-15.6,71.1,2.1,9.3,10.2,3.5,14.9.1,19.3-13.5,38-32.3,57.9-46.7,1.9-1.4,5.2-2.1,6.4-3.4,7.6-7.6-4.4-41.6-11-48.9-4.3-4.8-7.9-1.6-10.9,2.9-7.1,10.5-17.4,52.8-31.1,54-4.9.4-2.7-12.6-2.4-15.5,1.1-10.1,3.7-22.8,8.8-31.5,4.3-7.3,15.5-16.7,16.1-25.4.5-6.5-9.8-21.7-16.6-19.9h0Z"/>
    <path class="st26" d="M612.1,605.2c-20.8-7.7-44.4,6.5-64.5-1.4-6-2.4-14.7-14.7-17.7-20.5-1.9-3.7-4-6.5-2.6-11.1,2.4-7.8,23.9-13.5,31.3-17.8,5.8-3.3,21.8-17.8,24.8-18.8,7.3-2.1,21,5.2,25.4,11.2,14.2,19.4-7.9,34-26.4,30.8-3.8-.7-19.7-9.9-21.4-4.5-1.9,6,8.1,8.8,12.4,9.2,24.8,2.2,46.3-16.7,69.2,3.8,5.1,4.6,10.9,14.5,7.1,21.1-.8,1.4-16.5,16-19,18.1-13.2,11.2-44.2,25.1-61.5,22.3-2.4-.4-4.7-1.9-6.8-3-6.5-3.3-18.7-14.3-16.2-22,1.4-4.3,19.1-13.3,23.7-14.5,12-2.9,22.1,4,34.2,2.5,1.9-.2,10-2.9,8.1-5.5h0ZM586.7,538.9c-3.5.6-16.6,13-21.1,15.9-6.8,4.4-33.9,13.9-35,19.4-.9,4.3,13.5,24.2,18.2,26,16.2,6.3,39.8-4.2,58.9,0,13.4,2.9,8.2,12.1-2.2,14.3-11.5,2.4-21.3-4.5-29.9-3.8-3.5.2-23.6,9.4-25.2,12-4.6,7.6,14.6,21.1,21.9,21.8,9.8.9,33.6-7.9,42.6-12.8,12.1-6.8,19.7-16.8,30.4-25.2,6.2-7.6-7.1-19.3-13.4-22.8-19.2-10.5-46.4,9.5-66.5,1.1-11.7-4.9-13.1-18.9,3.2-16.3,6.8,1.1,12.5,6.6,19.8,6.3,14.3-.6,27.2-11.2,16.9-25.6-2.9-4.1-14.3-10.8-18.9-10.1h0Z"/>
    <path class="st26" d="M466.3,606c7.1,6.8,16.2-11.6,25.9-.3,4.7,5.4,5.3,10.8,1.5,16.8-5.6,8.9-11.7,4.4-19,7.2-9.5,3.6,3.2,18.3,12.6,11.5,4.8-3.4,10.3-17.3,15.8-23.4,9.1-9.9,13.1-12.9,21.1-.5,8.5,13.1,9.4,19.8-.5,32-10.8,13.3-33.9,26-50.3,30.3-12.9,3.4-17.2.8-21.2-12.1-4.3-13.6-14.1-47.8-15.4-60.8-.7-7.1-.6-13.7,4.9-18.8,6.1-5.6,30.4-21.3,38-24.2,20.4-7.7,25.5-1.7,33.8,16.3,3.6,7.6,3,13.5-4.6,18.4-14.2,9.2-22.5-4.2-36.8-1.9-4.2.7-9.3,6.1-5.8,9.5h0ZM488.6,623.4c5-4.1,4.2-12.7-.8-16.6-4.7-3.6-8.8,2.7-12.7,3.6-17.6,4.1-17.8-15.8-1.7-18.1,8.4-1.2,15.1,4.8,22.6,5.3,8.6.6,18-4.1,15-13.9-.6-2-8.2-15.2-9.6-16.6-8.7-8.6-27.9,4-36.3,9.3-7.2,4.5-24.3,14.5-25.1,22.9-.9,10.4,9.3,39.9,12.5,51.6,1.6,6,3.4,22.9,9.3,25.6,7.4,3.3,32.7-9.1,40-13.4,6.8-4,21.7-16.2,24.6-23.3,3-7.4-4.5-23.1-11.5-26.9-11.5,6.1-15,19.2-22,28.2-9.9,12.6-29.1,1.6-23.9-10.8,3.3-7.9,15.9-3.7,19.8-6.9h0Z"/>
    <path class="st15" d="M223.8,520.4c6.2-1.3,15.7.8,21.6,3,9.3,3.4,26,15.8,25.5,26.6-.8,15.4-8.6,27-24.5,28.9-6.8.8-16.2-3.4-19.9,3-3.3,5.7,4,11.5,6.2,17.5,6.5,18.5-3.4,44.4-22.1,51.6-18.7,7.2-23.2-8.8-34.9-17.5-6.6-4.9-20.3-10.6-25.6-16.9-3.5-4.1-4-15.6-3.2-20.7,2.5-16.2,34.7-36.7,46.8-48,6.6-6.2,22.6-26,30.2-27.5h0ZM261.9,540.1c-7.5-8.5-24.6-17.4-36.1-15.6-7.4,1.2-21.7,19.8-27.8,25.6-11.7,11.1-44.1,32.2-46.6,47.1-.7,3.9-.5,12.1,1.4,15.5.7,1.2,12,9.2,14.3,10.8,4.1,2.8,8.5,4.3,12.8,7.9,12,9.8,17,25.2,35.4,11.3,11.6-8.8,17.5-28.5,12.9-42.2-2.6-7.8-10.4-10.6-6.6-20.1,4.3-10.6,16.2-4.8,24.5-6,9.9-1.4,16.1-6.7,18.6-16.3,2-7.7,2.4-11.9-2.9-17.9h0Z"/>
    <path class="st1" d="M143.8,240.9c1.1,1.2,5.8,2.8,7.7,2.3,2-.6,5.4-7,7.4-9,15-14.7,44-14.5,58.3.8,14,14.9-.5,26.7-5.1,41.5-2.1,6.8-4.9,26-9.8,30.5-2.3,2.2-13.7,6.8-17,7.1-17.3,1.2-47-22.9-62.9-31.7-12.2-6.8-33.5-11.3-35.5-27.7-1.5-12.9.5-26,7.3-37.2,4.4-7.2,13.6-9,21.5-9.1,12.2-.1,20.7,9.5,24.6,20.2,1.1,3.1,1.5,10.2,3.5,12.3h0ZM140.6,244c-5-5-2.8-17.7-11.8-25.8-7.5-6.7-25.9-6.9-31.3,2.5-5.6,9.8-7.7,22.8-6.2,33.9,1.8,13.2,22.1,17.7,32.3,23.3,15,8.3,45.8,32.5,61.7,31.5,2.8-.2,12.7-4.3,14.4-6.3,4.2-4.8,6.9-24.6,9.6-31.9,3.9-10.9,15.4-20.9,5.7-32.3-11.8-13.9-39.7-14.4-52.7-1.6-5.1,5-5.2,11.6-14.6,10-1.8-.3-5.7-2.1-7-3.4h0Z"/>
    <path class="st1" d="M217.6,84.7c1-6,8.6-18.4,15.8-18.1,15,.7,8.2,24.6,8.4,34.4.5,19.9,17.6,40.7,35.5,48.2,5.5,2.3,11.3,1.7,15.5,5.2-3,5.6-9,7.8-13.6,12.5-3.3,3.4-12.6,18.5-13.6,19.1-7.6,4.7-4.7-12.9-7.2-17.9-2.8-5.8-27.5-31.2-33.3-35.4-16.7-12.2-30-4.5-47.3-7.2-9.5-1.5-9-18.1-2.8-23.3,7.2-6,19.7-5.9,28.3-3.3,5.8,1.8,8.4,5.9,14.2,7.1.8-6.5-1-15.1,0-21.2h0ZM236.9,72.5c-6.2-6.3-14.2,9.3-14.9,14.5-.5,4,1,21.8-1.3,23.2-5,3.1-16.8-6.8-22.7-8.1-5.4-1.1-17.2-.5-20.8,4.4-2.5,3.4-3.7,13.8,1.7,14.8,14.2,2.6,25.8-3.8,41.3,3.4,8.7,4.1,39.6,33.9,42.6,42.4,1.2,3.4.2,7.6,2.2,10.9l10.9-14.2,9.3-7.6c-22.9-4-47.6-30.4-48-54,0-5.7,3.4-26-.2-29.6h0Z"/>
    <path class="st1" d="M505.3,152.9l10.9,19.1c-2.4,2.9-12.4,16.7-15.6,15.7-4.3-7.9-7.1-12.8-13.8-19-15.9-15-38.4-22-51.8-39.8l12.6-77.9-1.1-8.1c1.2-.1,2.2-.7,3.4-.5,7,.7,32.6,10.2,39.5,13.7,20.9,10.8-8.6,9.3-11.2,13.6-2.9,12.9-8.6,25.8-11.6,38.5-3.5,15-6.2,22,7.6,31.6,8.9,6.3,21,8.7,31.1,13h0ZM487.9,60.2l-36-13.1-12,80.1c13.8,17.8,36.4,24.8,52.3,40.3l10.3,13.6,8.2-10.3c-5.8-19.8-27.2-17.8-41.3-28.4-13.1-9.9-10.7-20-7.4-34.5,3.3-14.3,10.3-28.5,13-43.1.9-1.3,8.9-1.7,11.3-2.4,1.6-.5,1.9.6,1.6-2.2h0Z"/>
    <path class="st1" d="M402,588c-5,22.8-10.5,50.9-7.8,74.3.5,4.5,7.6,19.2,7,20.3-2,3.9-16.7,3.7-20.8,3.3-3.4-.3-25.2-5.2-27-6.5-5.7-4.1,5.8-9.5,8.2-13.5,5.2-8.5,12.8-56.1,13.8-67.9.2-2.6,1.2-10.2-1.7-11.1-7.2-2.3-30.3-2.4-31.8-10.8-1-5.7,5.8-12.9,11.2-13.4,9.5-.8,18.9,1.7,28.3,2.2,10.1.6,40.8-.5,48,5.4,2.2,1.8,4.1,6.5,3.8,9.3-.8,8-25.7,6-31.3,8.4h0ZM429,580.1c-.2-2.5-.5-6.2-2.9-7.4-2.8-1.5-21.4-3.1-26-3.5-6.1-.5-12.4.4-18.6,0-10.9-.7-33.3-8.7-35.3,6.9,3.9,4,33.6,5.5,34.6,10-3.2,20-5.2,41.5-9.3,61.3-1.1,5.4-4.3,19.1-7.5,23-1.7,2.1-6.2,3.1-5.9,6.6,13,1.4,24.8,6.6,38.1,4.4-14.6-30.8-1.9-66,1.1-98.1l31.6-3.3h0Z"/>
    <path class="st1" d="M177,182c-9.4,8.9-21.4-13.1-20.2-21.8,1.7-12.4,20-23.8,31.8-23.6,18.7.2,50.7,27.4,61,42.5,10.5,15.3,1.3,14-7.4,25.1-4.6,5.8-8.7,16.9-12.6,21.2-4.4,4.8-19.4-1-24.8-3.6-13.6-6.8-23-21.6-15.4-36.5,3-5.9,15.3-12.5,6.9-20.4-14.5-13.7-15.4,13.4-19.4,17.2h0ZM199.9,182c-3.1,3.2-6.8,1.4-8.2,9.8-1.5,9.1,1.1,15.2,7.9,21,4.5,3.8,22.4,13,27.2,8.8,1.3-1.1,7.6-14.1,9.9-17.4,4-5.5,8.8-10,13.3-15,.9-4.5-19-24-23.3-27.6-11.5-9.8-28.7-22.1-44.4-19.4-7.8,1.3-22.1,12.3-21.5,20.9.3,4.4,6.7,17.2,12.4,16,2.9-.6,2.4-26.9,20-21,6.5,2.2,10.9,7.6,9.8,14.7-.2,1.3-2.7,8.6-3.3,9.3h0Z"/>
    <path class="st13" d="M628.2,218.5c6.1-1.7,12.1,10.6,14.5,15.5,14.3,30,13.4,67.4-17.5,86-8.4,5.1-32.2,16.1-41.4,13.2-5.4-1.7-18.2-17.5-22-22.7-4.8-6.6-17.3-23.7-14.8-31.6,25.9-21.7,54-40.4,81.2-60.5h0ZM629.2,222.7l-78,58.4c-1.5,4.6,11,22.4,14.3,26.9,2.9,4,7.3,9.9,10.7,13.3,1.1,1.1,9,7.8,9.6,7.9,6.8,2,32.2-10,38.8-14.2,27.3-17.5,27.2-53.5,14-80.1-1-2-7.6-12.5-9.3-12.2h0Z"/>
    <path class="st15" d="M505.3,152.9c-3.6-2.7-6.6-5.1-10.6-7.4-8.8-5.2-12.1-2.9-9.9-16.8,2.8-17.3,20.7-34.2,38.6-26.1,6,2.7,7,8.8,14,9,5.9.1,10-6.7,7.6-12s-14.1-4.8-17.9-8.2c-8.1-7.1,7.7-17.9,14.7-19,16.7-2.5,29.5,18.2,27.6,33.1s-25,43.6-37.5,52.9c-15.9,11.8-12.2,5.2-24-4.4-1-.8-2.3-.8-2.7-1h0ZM542.1,76.8c-4.2.8-12.1,5.1-12.7,10,.9,4,18.8,2.3,20.6,13.3,1.9,12.4-10.3,20.4-21.1,13.4-4.1-2.7-3.3-6.6-10.4-8.1-10.8-2.3-18,2.7-23.4,11.6-2.7,4.5-8.7,17.7-4.5,21.8,11.1,5.3,22,11.8,29.6,21.6,16.1-7.7,41.8-36.6,44.6-54.3,2-12.6-8-32-22.7-29.2h0Z"/>
    <path class="st22" d="M275.6,560.3l.8-4.8c2.3-1.6,27.2,3.3,31.7,4.4,4.9,1.2,21.3,5,22.7,10,1.3,4.7-7.9,4.5-11.2,5.9-6.9,3-8.3,12.6-10.2,19.3-2.3,8.4-7.4,26.7-7.9,34.6-.7,10.9,6.5,16.7,10.8,26.3l-1.7,2.5-53.7-15.8c-1.4-4.1,6.5-8,9.7-9.7,4.2-2.2,8.7-3.8,13.1-5.4l.9-1.2c1.1-8.3,1-17.8,2.4-25.9,1.2-6.8,6.1-18.2,5.4-24.1-.5-4.5-9-13.6-12.9-16h0ZM322.2,570.3c-12.4-5.7-25.5-9-39.2-9.8,2.7,5.6,9.4,9.1,9.9,15.8.4,6.3-4,15.5-5.2,22.1-1.1,6-1.8,30.3-5.1,33-1.8,1.5-14,4.8-18.5,7.7-1.3.9-2.5,1.3-.7,2.6l41.4,11.4c.6-6.6-6.6-10.4-7.6-17-1-6.8,8.7-45.8,11.7-53.5,1-2.6,2.7-5.1,3.8-7.7l9.5-4.7h0Z"/>
    <path class="st21" d="M642.6,449.2l-8.7-.5,6.6-52.8c9.5.4,21.7-2.8,26.6,7.7,3.8,8.3,1.7,18.2-6.9,22.3-5.6,2.7-9.7.4-14.8,2.6l-2.7,20.7h0ZM645.9,421c17.6,3,21.8-19.5,2.3-17.3l-2.3,17.3Z"/>
    <path class="st21" d="M64,429.7l-2.2,20.7h-8.7l5.9-51.3c14.1-3.4,29.9-1.3,27.9,17-1.3,11.4-13.1,13.9-22.9,13.7h0ZM65,422.1c17.5,3.4,20.2-19.5,1.1-16.4l-1.1,16.4Z"/>
    <path class="st19" d="M460.6,428.6c-1.3-1-1.3-3.1-4.4-2.2,11.1-3.4,24.8-9.6,32.3-18.5,1.9-6.8-16.8-13.5-21.9-15.3-19-6.7-40.6-9.3-60.5-12,3.2,4.5,10.2,9.7,11.5,15.2,1.4,5.7-6.8,15.8-9.5,21-2,3.8-3.6,14.5-9.1,14.9-1.7.2-3.6-1.1-5.5-1.2-3,0-5.6,2.5-7.6-1-3.4-7.4,4.3-16,2.5-22.1-.9-3.1-9-8.8-11.8-10.6.2-.5-.2-1.5,0-2.2,1,.9,2,0,2.1,0,3.1,1.3,6.8,7.1,10.4,8.7l1.6-4.3c4.7,2.1.7,5.8.2,8.4-.4,2.4,0,4.8-.5,7.1-.9,4.2-5.8,11-.8,13.9l3.3-7.6,1.1,7.6c1.2-2-.5-9.4,3.3-8.7l.5,9.8c5.5-2.2,4.9-7.5,6.9-11.7,2.5-5.1,10-14.9,10.1-19.4.2-6-8.8-14.2-13.2-18l3.2.6c-1.2-1-1.4-2.6-2.2-3.8,23.2,3.1,49,5.7,70.8,14.8,24.5,10.2,22.5,18.2.8,30.1-4.5,2.5-9.3,4-13.8,6.3h0Z"/>
    <path class="st21" d="M214.3,417.7l-3.3,31.6c-3.3-.5-8.2,1.8-9.3-2.2-24.4,15.6-32.1-29.2-7.6-30.6,5.6-.3,7.5,2.8,10,3.1,1,.1,7-3.7,10.1-2h0ZM194.4,423.3c-10.4,2.2-10.1,21.7,1.8,20.5,11.5-1.2,11.6-23.3-1.8-20.5Z"/>
    <polygon class="st3" points="139.1 417.7 120.6 441.7 138 441.7 136.9 449.3 104.2 449.3 123.8 425.9 109.7 425.3 109.7 417.7 139.1 417.7"/>
    <polygon class="st3" points="175.1 417.7 156.5 441.7 174 441.7 172.9 449.3 140.2 449.3 159.8 425.9 145.6 425.3 145.6 417.7 175.1 417.7"/>
    <path class="st21" d="M679.5,449.1l-7.5.2,6.8-57,1.6-1.7c1.8-.4,6.3-.7,6.8,1.6l-7.7,57h0Z"/>
    <path class="st19" d="M399.6,374.1c-1.4-1.5-2.4-2.5-3.3-4.4.6-.3,3.1-2.4,3.2-2.8l-3.8-9.2-4.9,3.3c0-.9,0-1.9-1.1-2.2,3.5-9.7,4.5-19.3,4.9-29.5-6.8-4.4-15.4-6.1-23.5-5.4v-1.1c4.1.6,7.3-1,9.8-1.1,17.3-.7,48.4,26.5,28.7,43.4-4.2,3.6-12.8,2.8-10.2,8.9h0ZM396.3,337c4-1.7,4.8-6.4,0-6.5v6.5ZM400.8,335c-2.3,4.3-6.9,11.9-6.6,16.8.1,2.5,2.8,3.1,3.7,4.9,2.2,4.4,2.2,12.7,9.9,6.5,9.7-7.8,4.6-26.1-7-28.2h0Z"/>
    <polygon class="st21" points="102.1 417.7 98.6 448.6 97 450.2 90.1 450.4 93.5 419.5 95.1 417.8 102.1 417.7"/>
    <path class="st26" d="M452.8,284.6c-1.9.5-4.5.5-5.2-1.6l-.2-16.7c10.3.5,9.2,11.5,5.3,18.4h0ZM451.9,280.4c.2-2.6,2.4-7.3-1.1-8.7,1.4,2.5-3.3,9.6,1.1,8.7Z"/>
    <path class="st23" d="M98.5,399.3c6-1.7,8,7,2.8,8.4-6,1.7-8-7-2.8-8.4Z"/>
    <path class="st20" d="M550,192.1l-1.1-2.2c.7-1.9.6-6.7,3.3-7.6.8,3.8-1.2,6.7-2.2,9.8Z"/>
    <path class="st0" d="M430.1,434c10.8-1.7,9.8-2.3,19.2,2.6.4.2.5,1.5,1.8,2.1,9.2,4.5,8.4-1.8,14.4-2.5,3-.4,8.8-.2,11.9.2,2,.2,7.3,1.1,8.3,3.1-8.2,0-18.9,5.8-26.6,5.4-7.6-.4-14.1-3.2-21.1-5.1-13.5-3.6-14.3-.4-26.1,1.6-10.1,1.7-20.3.3-30,3.8-11.8,4.2-24,17.6-28.6,29.2-1.6,4.2-3,16.1-6.8,17.2-4.2,1.3-7.8-1.7-11.8-2-3.7-.3-6.5,1.2-9.7,1.2-6.3-.1-19.7-4.2-24.9-7.8-9.4-6.6-1.6-9.2-4.8-17-1.7-4-9.6-8.2-7.9-4.1,1.2,3,7.9,5.9,5.4,12.5-6.8,1-8.4-8.4-11.5-13-7.2-10.6-13.6-12.6-21-20.4-7.7-8.1-2.8-14-3.4-22.8-.4-6-4-12.6-3.3-19.1-6.5.9-.5,13.2-.1,18.1.3,3.7.3,6.7-1,10.2-2,.4-2.8-.9-3.5-2.5-3.3-6.8-3.1-24.8-5.5-33.7-2.8-10.5-7.8-11.7-7.3-25.4.2-5.9,3.6-27.1,5.5-32.3.5-1.3,2.8-1.6,3.8-2.9,5.2-6.3,2.4-13.3,5.4-18.6,2.1-3.7,7.2-1.3,10.6-3.3,2.6-1.5,5-9.5.8-11l-2.4,8.5c-5.8.1-10-.6-12.4,5.6-2.1,5.5.4,16.7-7,16.4-2.8-9.2,4.2-16.9,2.1-26.6,10.8-2.1,9.1-14.9,11-23.6l7.9,7.9c24.8,11.8,36-21.5,56.8-26.4,1.8.4,2.2,7.8,6.5,6.5,2.2-.7,2.3-6.5,3.4-8.6.3-.6,7.5-7.8,1.2-5.4-3.7,1.5-5.3,7-5.1,10.7-7.1-5.5,3-12.1,5.2-19.4,1.6-5.3,1.6-10,1.4-15.5,2.6,1.6,2,5.8,4.3,8.2,1,1.1,2,2,3.6,1.5,7.4-2.8,0-14,8.3-14.1v-3.2c-8.3,1.6-5.7,6.6-7.6,13-4.9,1.4-2.7-3.7-5.3-7.1-1-1.3-3.3-1.9-4.4-3.2-7.8-8.5-12.6-16.6-26.1-12.6-2.6-2.4,12.5-14.3,15-15,2-.6,4.6,0,6.9-.7,3.9-1.1,13.4-4.8,16.7-4.6,4.8.3,11.2,6.1,15.7,7,3.6.7,7.5-.6,10.9,1,4.6,2.1,5.6,12.6,14.7,14.9,2.9.7,5.4-1.5,7.4,1.2-6.8.7-15.2,1.7-16.3,9.9-.5,4,1.5,14.6-2.2,16.3-8.4-1.1-2-10.6-2.2-15.9-5,2.4-5.2,9.9-4.1,14.5.7,3.1,3.9,5.5,4,10.1.2,5-3.3,11.2-3.2,16.2.1,6.2,5.2,13.2,3.3,20.2-4.8.6-6.6-5-7.6-8.7-2-.1-2.3-.5-2.2,1.6.3,6.1,5.5,8.2,6.9,12.7,1.3,4.3.1,8.6,1.2,12.9s6.8,8.6,8.1,14.8c.4,2-4.6,2.3-6.4,2.6-2.1.4-4.4.4-6.5,1.1-.3-.3.8-8.1,1.1-9,.6-1.7,4.1-1.2,3.2-4.6l-2.2-1.6-2.2,3.3c-.1-4.8-6.1-8.6-10.4-8.6-1.2,0-16.5,3.4-17.7,4-.7.3-12.1,8.3-12.8,9-4.5,4.4-2.8,5.6-.6,10.9-2.2.5-6.7-1.8-9.4-2.1-19.2-1.9-47.2,12-48.1,33.4-.2,5.4,3.1,6.4-1.4,11.2-1.3,1.4-3.7,1.3-2.9,4.4,1,3.9,4.4,3.2,6.1,4.3,2.2,1.5,4.8,12.2,6.7,15.6,5.2,9.4,16.9,15,27,17.1,3.7.8,7.7.8,10.9,2.2,0,1.1.8,3.1,1.1,4.4,1.5,5.6,3,6.4,6.6,10.3.5.6,1.9.4,2.1.6,1.4,1.4,3.7,10.4,6.4,12.7l-2.4,2.4c-4.3-1.3-6.6-6.5-10.1-8.5-2-1.1-5-1-6.5-2.2-2.2-1.8-1.6-8.1-5.4-9.9-1.6-.3-2,0-1.6,1.6.2.8,4.2,10.8,4.6,11.2,1.2,1.2,5.5,1.3,7.8,2.6,4.1,2.2,8.6,11.8,14.4,7.6,6.1-4.5-2.3-12.7-1.7-13.2,9.6,2.3,19.1,5.6,29,6.4,28.3,2.3,47.1,0,74.5-4.2h0ZM339.4,206c1.8-2.2,1-7.7-1.4-9.5-3.4-1.8-.2,6.2-.5,6.5-7.8-2.6-8.9-1-12.5,5.5l-6-4.4c4.2,16.6,10,1.9,12.7,1.2,2.4-.6,5.7,3.3,7.7.7h0ZM362.5,216.1c.5-4.6-.4-11.2-6.5-10.9-.5,2.5,2.4,3.1,3,5.1,1.6,5.3-2,10.9,7.3,9,4.1-.9,5.6-4.8,4.9-8.7h-3.3l-1,5-4.4.5h0ZM350.5,219.3c0-6.5-6.3-7-3.2-.1h3.2ZM360.3,239c-11.8-.3-5.5,15.5-8.7,18.5-1.9,1.8-1.8-.7-2.3-1.5-2.3-4.7-2.5-9.9-9.7-7.2-.7,3.7,2.9,1.2,4.9,3.2,1.7,1.7,1.5,6.5,3.4,7.8,10.4,3.4,5.1-10.4,8-15.6,1.3-2.4,5.7-.4,4.4-5.2h0ZM344,264c-7.2-1.5-7,11.5-8.6,12.6l-8.5.7c-4,4.2.3,17.1-6.8,14.4,1.7-2.9-3.7-18.5-7.6-14.7-1.9,1.9,2.7,4.3,3.4,5.9,1.9,4.5-.7,15,7.8,12.5,6.2-1.8,2.8-10.4,5.3-14.9l9.4-1.5,5.7-15h0ZM305.8,284.7c-4-.2-2.4,6.4-4.3,9.3-2.2,3.4-13.4,4.9-13.2,12.5l-1.6-10.9-3.9-3.2c1.7,4.2-.4,17.5,3.2,19.1,5.2,0,5.1-6.5,8.2-9.4,5.8-5.4,14.1-4.3,11.5-17.4h0ZM313.5,313.1c0-3.6-.7-8.4-5.5-7.6l3.4,10.7c2.5,1.5,4.5.6,6.4-1.5l6.5-9.3c-4-2.1-9.1,9.6-10.9,7.6h0ZM273.2,308.7c-2.2-.7-4,3.3-4.5,4.7-1.8,4.3-1.9,9.5-5.2,13.3l-4.4-2.7c-1.3,8.1,4.8,8.8,8.5,2.5,2.5-4.1,4.1-12.9,5.6-17.8h0ZM252.4,352.3c-9,2.1-.8,15-3.8,19.7-3.4,5.3-3.9-8.4-8.2-5.5l4,9.9c14-.6,4.5-15.9,8-24.1h0ZM265.5,422c10.6-1,5.5,14.4,14.6,13.2,6.7-.9,2.8-9.1,2.9-12.6,0-2.7,3.9-4.7.4-7-5.7,4.3-2,10.4-2.7,16.3-5,1.2-3.6-4.5-5.6-8-1.8-3.3-5.8-5.6-9.7-5v3.2h0ZM303.7,454.7c-3.3,2.2-7.9-9.6-10.9-6.5-1.3,1.3,4.5,7.5,5.3,8.3,6.1,5,11-2.1,9.9-8.3h-3.3l-1.1,6.5h0Z"/>
    <path class="st16" d="M377.8,450.4c10.4-4.9,15.5-3.1,25.6-4.4,8.9-1.1,17.4-5,26.2-4.4,8.1.5,17.9,5.8,23.9,10.9l-.5-5.4c3.5-1.5,17.3,7.8,18.5,6.5,2.8-3-5.3-4.7-5.4-6.5,10.4-2,23.8-6.8,34.3-6.6,7.7.1,18.1,5.9,26.5,7.3,6.6,1.1,13.8,0,19.3,3.6,2.4,1.6,4.9,5.2,6.5,7.7,6.4-2.2-.7-6.2-2.7-8.7,3.7-.1,7.7,2.7,11.5,2,2.3-.4,2.9-2.3,5.4-3,11.2-3.5,41-5,51,1.2,8.9,5.5,15.3,22.1,15.9,32.1.3,4.8-1.3,5.1-2.1,8,2-5.2-8.1-2.4-6.5,3.3.8.8,6.4-2.9,6.5-3.3-2.3,8.6-3.3,13.3-11.7,18.3-6.6,4-22.6,7.1-30.4,7.7s-16.3-1.6-24.9-.9-17.7,4.6-26.2,5.4c-12.2,1.1-24.7-1.9-37.1-1.1-9.7.7-20.7,4.2-30.4,4.4-7.4.2-14.2-1.7-21.8-1.1-13.4,1-27.3,6.3-40.9,5.4,14.1-14.2,26.7-32.8,23.9-53.8-.8-6.3-9.8-22.4-16.8-22.4h-20.7c-4.2,0-6.2-3.8-14.7-1.1l-2.2-1.1h0ZM533.6,496.2l-6.3.8-1.3,3.6c.6.6,8.7-1.1,7.6-4.3h0ZM457.3,503.8c.3-2,0-3.2-1.6-4.3h-1.6l.2,3.1,3.1,1.2h0ZM479.1,500.5c-.8-.8-4.4-.5-3.2,2.7,1.3,3.8,4.7-1.3,3.2-2.7ZM620.8,502.7c-2.8-.2-4.8,2.6-4.3,5.4,2.8.2,4.8-2.6,4.3-5.4ZM497.7,503.8l-12,2.7c2,4.5,14.8-.2,12-2.7ZM604.5,504.9c-2-.5-2.4,1.4-4,1.8s-4.9-2.1-4.7,2.5c4,1.7,9.3,1,8.7-4.3h0ZM585.4,506c-1.9,3.8-6.6-.6-7.1,3.8,2.6,3.1,6.7,1.9,8.7-1.1l-1.6-2.7ZM453,507.1c-2.1-.2-4.1.5-6.1.9-1.7.3-4.2-.9-3.7,1.8,2.9,3.2,9.7,2.2,9.8-2.7h0ZM519.5,507.1l-6.9,1.1-.7,3.3c.6.6,8.7-1.1,7.6-4.3h0ZM539.1,507.1c-3.9-3.5-4.6,7.1-.5,2.2.6-.7.8-1.9.5-2.2ZM571.8,510.3l-1.6-2.9-6.1.7v3.3l7.6-1.1h0ZM553.2,509.2h-10.9c-2.7,7.4,14.2,2.8,10.9,0ZM438.8,513.6l-8.7,1.1v3.3l8-1.1.7-3.3ZM460.6,513.6c-2.3.8-4.7.8-7,1.1-1.5.2-3.2-1-2.8,1.6,3.4,4.2,10.3,3.2,9.8-2.7ZM477,519c4.6.3,10.2.8,9.8-5.4-3.7,2.1-5.3,4.2-9.8,2.2v3.3h0ZM503.1,513.6c-2-.2-3.2,0-4.3,1.7v1.6h4.3v-3.3h0ZM430.1,521.2h-9.8c-1.1,6.2,5.8,3.5,9.8,3.3v-3.3h0Z"/>
    <path class="st2" d="M374.5,182.3h-3.3c0,4,3.2,4,3.3,0,2.7,2,6.4,5.3,9,6.8,7.4,4.2,18.9,5.5,24.1,12.9,2.6,3.6,2.3,7,6,10.3,3.5,3.1,7.4,3.2,10.9,5.5,5.8,3.8,10.8,13.1,17,17.9,5,3.9,12.8,6.2,16.9,10.4,6.7,7,10.8,20.2,15.1,28.5,4.8,9.4,7.9,12.1,11.6,23.2,1.1,3.3,5,4,0,7.6-4.4-4.2-4.4-11.3-7.3-16.7-2.5-4.7-6.4-6.9-9-10.6-6.6-9.6-14.4-25.6-21.8-33.8-8-8.8-30.5-18.7-40.9-26.1h3.3c0-4-3.2-4-3.3,0-8.5-6-11.5-13.9-18.6-19-7.6-5.5-33.9-17-43-17-5.1,0-10.3,2.1-15.2,3.4l-.7-2.2h-1.6c-1.4,5.3-6.3,2.2-8,3.4-.3.2-1.2,4.6-2.8,6.5-3.1,3.7-9.3,5.7-13.1,10.9-2.1,3-3.3,8.2-5.3,10.5-2.6,3.1-9.1,5.5-12.7,9.6-7.1,8-24.2,31.3-29.2,40.6-.9,1.6-.9,4.6-1.6,5.5-.6.7-4.4,1.4-6.3,2.9-4,3-4.9,9.5-5.7,10.2-.7.6-2.8,0-3,.2-.6.5,3.2,12.4-3.3,13.6,0,3.1,4.1,2.6,4.5,5.4.8,6.5-2.8,10.6-3.4,16.4-.7,6.8,1.8,13,1.1,19.6-1.4,13.9-8.9,25.2-3.8,40.8,1.2,3.8,4.2,6.9,5.5,10.9,2.8,9,2.9,34.5,8.7,39.3,1.1.9,3.2.7,3.9,1.7.9,1.3.9,4.7,1.8,6.6,3.7,7.3,16,13.7,22,21.6,3.2,4.3,6.4,13.2,9.2,15.8,2.4,2.3,4.3,1.6,6,2.7,1.3.8,3.6,4.8,6.2,6.8,6.7,5.2,18.9,8.6,27.2,8.8,3,0,5.5-1.2,8.5-1.1,4.7,0,7.9,3.1,12.8,2.1,7.6-1.6,7-13.2,9.3-19.1.8-1.9,7.7-13.4,8.9-14,1.8-.9,4-.2,5.8-.8s3.3-3.2,5.5-4.3c10.5-5.7,11.9-1.6,20.9-.8,5.7.4,19-1.6,22.9,2.2.4.4,6.2,8.8,6.6,9.7,8.6,16.7-4.9,47.2-19.2,57.2-7.6,5.3-10.3,2.8-17.9,3.9-29.1,4.2-43,3.4-69.1-11.5-12.7-7.3-19-15.1-29.5-23.9-9-7.5-17-10.8-25.6-20.1-10.5-11.4-23-35.3-29.7-49.9-4.4-9.8-15.3-48.1-16.5-58.7-1.6-14.3,3.5-19.9,5.3-31.6.8-5-.3-11.1,0-16.3.9-10.6,10-39.6,14.4-49.9,7.7-18,28.7-36.1,41.2-51.5,2.4-3,3.8-7.4,6.6-10.9,5.4-6.9,25.1-26.8,32.3-30.9,2.3-1.3,9.6-4.6,11.8-4.5,1.9,0,7.3,3.7,11,4.2,10.5,1.4,18-1.9,28.5,4.2,2.6,1.5,3.4,3.6,4.7,4.6h0ZM334.2,177.9c-6.7-1.2-1.3,4.7,0,3.3v-3.3ZM353.8,177.9h-3.3v2.2h3.3v-2.2ZM301.5,197.5c.3-2.1-1.3-3.6-3.3-3.3v3.3h3.3ZM292.8,203h-3.3v6.5h3.3v-6.5ZM426.8,225.9c.3-2.1-1.3-3.6-3.3-3.3v3.3h3.3ZM252.4,259.7c0-4-3.2-4-3.3,0h3.3ZM230.6,338.1c.3-2.1-1.3-3.6-3.3-3.3v3.3h3.3ZM227.4,354.5h-2.2v3.3h2.2v-3.3ZM230.6,385h-2.2v3.3h2.2v-3.3ZM237.2,401.3c0-4-3.2-4-3.3,0h3.3ZM265.5,452.6c-1.7-1.7-5,1.5-3.3,3.3s5-1.5,3.3-3.3ZM406.1,464.5c.2-2,0-3.2-1.7-4.3h-1.6v4.3h3.3ZM264.4,462.4c-3.9-3.5-4.5,7.1-.5,2.2.6-.7.8-1.9.5-2.2ZM387.6,467.8c.4-5.5-3.7-5.5-3.3,0h3.3ZM412.6,468.9c-2.3-.4-3.7,1.5-3.2,3.8l4.3,1.6-1.1-5.4h0ZM395.2,480.9c1.2-1.2-1.2-7.5-4.3-6.5-1.5,2.8,1.9,9,4.3,6.5ZM281.9,476.5c-1.7-1.7-5,1.5-3.3,3.3s5-1.5,3.3-3.3ZM365.8,483.1c5.8.5,5.8-4.9,0-4.3v4.3ZM415.2,488.2c-.8-1.7,0-3.9-2-5.1-3.3,2.4-1.5,7,2.2,7.6,2.1.3,1.8-.5,1.6-2.2-.5,0-1.6,0-1.8-.3h0ZM406.1,490.7c.2-2,0-3.2-1.7-4.3h-1.6v4.3h3.3ZM371.2,492.9c-1.3-1.4-4.7,2.8-3.3,4.3s4.7-2.8,3.3-4.3ZM381,492.9h-3.2c-.6,4.7,1.8,7.1,6.5,6.5l-3.3-6.5h0ZM421.4,501.6c.7-.7,0-6-2.7-5.4-4.2.9.2,7.9,2.7,5.4ZM313.5,497.3h-3.3v2.2h3.3v-2.2ZM393,500.5h-4.3c-.5,4.2,0,6.1,3.8,3.3l.5-3.3h0ZM402.8,504.9c.7-.7-.5-4.3-1.6-4.3-3.2,0-.3,6.4,1.6,4.3ZM341.8,502.7h-4.3c-.5,4.2,0,6.1,3.8,3.3l.5-3.3h0ZM405,511.4h-2.2v3.3h2.2v-3.3ZM340.7,513.6c-.9-1.3-5.4-1.1-4.3,2.7s6.2-.2,4.3-2.7ZM386.5,520.1h-2.2v3.3h2.2v-3.3Z"/>
    <path class="st16" d="M488.9,297.8l-4.1-11.6c-10.7-12.8-14.6-36.1-28.4-45.7-4.4-3-9.5-4.6-13.7-8.1-5.3-4.3-8.4-11.2-13.1-15.2-4-3.5-11.2-4.6-14.2-7.6-2.6-2.6-3.4-8.9-7.1-12.5-4.9-4.7-15.2-6.8-21.3-10.3-10.6-6-14.4-14.8-28.2-16.4-7.5-.9-17.8,2.3-23.3-3.4,15.6-6.3,32.3-1.8,48.5-1.1,21.4,1,47.8-.3,68.2,4.8,13.7,3.4,13.7,11.5,21.3,21.2,5.1,6.4,10.1,9.3,14.4,17.2,12.7,23,15.2,36.6,9.5,62.5-2,9-6.3,17.1-8.2,26.1h0Z"/>
    <path class="st10" d="M456.3,426.4c-5.6,1.7-11.8,3.2-17.4,4.4-9,1.9-24.3,4.7-33.3,5.4-5.3.5-44,.6-46.3-.5-.5-.2-1.4-1.4-1.1-1.6,2-.4,3.9,1.4,5.8.9,5.5-1.3,7.8-22,9.3-27.8.9-3.5,2.2-6.9,3.4-10.2,2.8,1.8,10.9,7.5,11.8,10.6,1.8,6.1-5.9,14.7-2.5,22.1,1.9,3.5,4.6.9,7.6,1,1.8,0,3.8,1.3,5.5,1.2,5.5-.5,7.1-11.1,9.1-14.9,2.8-5.2,11-15.4,9.5-21-1.4-5.5-8.3-10.8-11.5-15.2,19.9,2.7,41.5,5.2,60.5,12,5.1,1.8,23.8,8.6,21.9,15.3-7.4,8.9-21.1,15.1-32.3,18.5h0Z"/>
    <path class="st28" d="M289.5,227c-3,15.2-32.5,33.2-29.2,48.3,1,4.6,5.7,7.2,10.1,7.4,1.5,0,4.4.9,3.8-1.7-6.2-3.4-12.2-1.2-10.8-10.8,1.1-7.6,11.8-15.4,16.3-20.8,11.6-14,14.8-36.2,38.4-31.9,11.8,2.1,11.1,19.1,7.5,27.7-5.4,13.4-14.9,12-24.1,19.5-3.6,2.9-5.4,6.6-8.8,9.7-7.8,7.2-23.8,17.1-32.7,6.5-10-11.9,11.1-31,17.9-39.9,1.2-1.6,9.3-16.4,11.5-14.1h0ZM305.8,227c.4-5.5-3.7-5.5-3.3,0h3.3ZM316.2,230.3l-1.6,2.7,1.6,1.6,1.6-2.7-1.6-1.6ZM310.2,239c-2.1-2.1-6.7,3.5-2.7,4.4,2.3.5,3.5-3.6,2.7-4.4ZM293.9,241.1c-.7-.7-6,0-5.4,2.7.9,4.2,7.9-.2,5.4-2.7ZM314.6,246.6c.7.7,6,0,5.4-2.7-.9-4.2-7.9.2-5.4,2.7ZM291.7,254.2c-5,.2-8.3,5.1-1.6,5.4l1.6-5.4ZM277.5,265.1h-4.3v1.6c1.2,1.7,2.3,1.9,4.3,1.6v-3.3h0ZM286.2,266.2c-5.2.2-6.5,8.5-.5,4.4l.5-4.4Z"/>
    <path class="st5" d="M322.2,326.1c-2.2-5.2-3.9-6.5.6-10.9.7-.7,12.1-8.7,12.8-9,1.2-.5,16.5-4,17.7-4,4.3,0,10.2,3.8,10.4,8.6l2.2-3.3,2.2,1.6c.9,3.5-2.6,3-3.2,4.6-.3.9-1.4,8.6-1.1,9,2.1-.7,4.4-.7,6.5-1.1.1.5.6,1,1.1,1.1v1.1c-10.7,1-5.2,7.1-11.6,9.6-6.8,2.7,2.9-6.9,2.9-8,0-2.6-3.3-3.5-5-4.9-.6-.2-1.6,9.9-8.6,8.7-1.5-.2-2.8-1.9-3.4-1.9-1.7,0-6.3,4-4.3,7.3,1.4,2.3,6.8,2.2,6,5.4-5.8,1-9,5.9-15.6,4.3-.7-.2-1-3.7-3.8-2-2.1,1.2-12.4,23.6-16.2,24.7-11,3.3-7.9-18.5-11.8-19.4-4.5,0-4.7,7.9-6.5,8.7-1-8.2-15-7.8-13.5.3,1.2,6.4,13,10,11.8,4.6-.4-1.9-6.1-2.8-5.4-6,2.5-.8,6.9,3.2,7.5,5.1,1.4,4.8-3,4.6-3.9,6-.8,1.3,0,3.7-1.8,5.3-3.4,3-10.7-2-13.7-4.5.9,0,1.9,0,2.2-1.1,1.1,1,8.1,4.6,9.2,4.4l1.7-2.7-10.4-10.3c-.8.4-1.2,1.8-1.6,2.2-.2.2-1.6-.4-2,.1-.9,1.2,1,4.4-1.3,4.2-.6-3.4,1.2-5.9,2.2-8.7,3.7.2,3.2-3.7,4.7-5.2,4.6-4.8,12.2-.4,15-1.9l4.9-7.1c3.3,4.8,5.4,7.9,6.8,13.8.8,3.6-1.4,10.8,5,8.8,1.5-.4,14.3-19.4,14.6-21.2.1-.7-.8-6.3-1-6.7-.2-.3-2.1-.6-3-1.3,3.3-.4,3.7-.3,5.5,2.2.4.5,0,2.7,1.6,3.2l10.3-8.2c-.8-4.4-8.3.3-9.8,1.7-.3-1-1.3-1-2.2-1.1,6.6-3.7,10.7-9.1,14.7-15.2,2.7,2.8-5.4,10.5-4.9,10.9,12.2,2.4,16.2-23.1,1.7-19.7-1.3.2-.4,1.7-.6,2.2l-1.1-2.2c.2.2,1.1-.2,1.1-.5,0-1.2-1.6,0-1.1.5-1-.2-.9,1-1.1,1.1-4.2,3-20.5,10.5-8.7,13.1-.5.4-4.1,3.2-4.4,3.3h0ZM352.7,304.4c0,2.6,2.4,3.5,3.3,5.9.9,2.2,1,10.1,4.8,9.3,5.2-1.1-.8-17.3-8.2-15.2h0ZM352.4,307.9c-1-.9-6.4-3.3-7.4-.8,7.6,4.3,2.4,13.1,3.3,20.1,8.5,1,7.9-15.9,4.1-19.3h0ZM333.1,342.5c2.4.8,9.1-2,8.6-4.8l-3.6-2.8c-2.3,2-5.6,4-5,7.5h0Z"/>
    <path class="st11" d="M321.1,427.5l1.1-1.1c3.9,2.7,8.7,3.9,13.1,5.5,18.7,6.6,49.2,7,69.2,5.5,7.7-.6,14.2-3.3,22.3-3.3h3.3c-27.5,4.3-46.2,6.5-74.5,4.2-9.9-.8-19.4-4.1-29-6.4-.6.5,7.8,8.7,1.7,13.2-5.8,4.2-10.3-5.3-14.4-7.6-2.2-1.2-6.6-1.4-7.8-2.6-.4-.4-4.5-10.4-4.6-11.2-.3-1.6,0-1.9,1.6-1.6,3.8,1.8,3.1,8.1,5.4,9.9,1.5,1.2,4.5,1.1,6.5,2.2,3.5,1.9,5.8,7.1,10.1,8.5l2.4-2.4c-2.7-2.3-5-11.2-6.4-12.7h0Z"/>
    <path class="st18" d="M405,222.6l20.7,9.8c1,3-3,2.6-4.9,2.1-2.7-.7-8.5-8-10.2-1.4-1.3,5.1,11.8,14.9,6.4,21.6-2.7,2.6-4.3-6.9-5-8.1-1.6-2.6-5.5-4.5-6.5-7.7-1.6-5.1,1.9-8.8-1.6-15.3l1.1-1.1Z"/>
    <path class="st18" d="M321.1,192.1c.3-1.7,2.1-2,3.5-2.5,3.4-1.1,13.6-4.1,16.7-4.1,3.4,0,22.8,3.4,23.4,6.1,1.9,8.2-17.4-3-18.5-3.3-9.4-2.5-15.9,4.7-25.1,3.8h0Z"/>
    <path class="st18" d="M374.5,196.5c6.7,3.4,12.7,4.7,17.4,11.4-11,9.3-14.6-5.8-19.6-10.4l2.2-1.1Z"/>
    <path class="st18" d="M253.5,273.8c-6.5,7.2-.3,23.1-12,25-1.8-2,5.1-25.6,12-25Z"/>
    <path class="st18" d="M446.4,432.9c-.3-2.9,0-1.7,1.6-2.2,4.1-1.2,13.3-3.7,12.7,3.8s-11.3-1.4-14.2-1.6h0Z"/>
    <path class="st18" d="M437.7,241.1c4.3,3.3,10.6,6.8,9.8,13.1-2.2,2.5-8.6-11.8-10.9-12l1.1-1.1Z"/>
    <path class="st20" d="M405,222.6l-1.1,1.1c-2.3-4.4-6.5-5.3-9.4-8-.6-.5-3.3-3.7-1.5-4.5,1.4-.7,10.6,9.5,12,11.5h0Z"/>
    <path class="st20" d="M380,451.5c-5.6,1.8-7.8,7.1-13.1,7.6,2.4-3.9,6.8-6.8,10.9-8.7l2.2,1.1Z"/>
    <path class="st20" d="M314.6,212.8l-13.1,3.2c2.9-3.8,8.8-3.4,13.1-3.2Z"/>
    <path class="st20" d="M374.5,196.5l-2.2,1.1c-2.2-2-6.7-.9-5.4-5.5.4-.5,6.7,3.9,7.6,4.4h0Z"/>
    <path class="st19" d="M437.7,241.1l-1.1,1.1-8.7-7.6c3.6,1.6,6.7,4.2,9.8,6.5h0Z"/>
    <path class="st5" d="M361.4,347.9c1.5-.3,7.1-2.1,7.7-2.9l1.1-12.3c2.7-3.5,2.3,7,2.2,8.2-1.6,16.5-9.6,31.8-13.4,47.6-2.5,10.3-3.5,21-5.1,31.4-.6,4-3,8.6-2.2,13.1,3.1.5,1.8-.7,2.3-2.5.7-2.5,1.3-5.8.9-8.4,1.5-2.3,2.3,1.8,2.3,2.7-.1,2.5-.6,4.7-1.2,7.1,3.2,3.5,3.9-10.4,4.4-10.9,5.7-.3-2.8,10.9,3.3,11.5,2.9-1.3,6.6-23.9,8.2-28.9,1-3.3,3-6.3,3.8-8.7-.1,1.1.2,1.6,1.1,2.2-1.2,3.3-2.5,6.7-3.4,10.2-1.6,5.7-3.8,26.4-9.3,27.8-1.9.5-3.8-1.3-5.8-.9-.3.2.6,1.4,1.1,1.6,2.3,1.1,41,1,46.3.5,8.9-.8,24.2-3.6,33.3-5.4l-12,3.3c-8.2,0-14.6,2.7-22.3,3.3-20.1,1.6-50.5,1.1-69.2-5.5l15.3,3.3c-3-7.9,2-16.9,2.2-25.1l-11,18.4c-4.1,1.7-14.5-3.9-15.1-8.1-.7-4.4,6.7-14.6,7.7-19.7l-4.5-9c-3.2-1.9-12.6,8.2-14,10.8v-2.2c.9-1.1,1.3-3.7,3.4-5.9,1.9-2,5.8-4.6,8.6-5l-1.2-3.2-13.4.9-34.5-8.6c2.7-.3,6.8,1.1,8.7-1.1,11.8,2.4,24.5,9.8,37,6.5-9.9-26.6,12.8-39.6,36.4-38.1,1.1-.1.7,1.5.7,2.2-4,.8-9.3.6-13.3,1.4-19,3.8-28.3,15-20.7,34.3,1.8,4.6,6.6,14.5,12.2,14.5v1.6c-5.7,5.3-7.8,12.9-10.7,19.8l2,1.4,3.3-4.3-1.1,8.7,4.9-5.5.6,6.5c1.2,1.7,7.7-12,8.2-13,1.8-3.1,5.3-5.9,6.5-8.8.8-2,2.6-12.8,2.4-14.6-.3-2.8-11.2-17.2-10.6-20.8l2.2-1.7,1.8,3.2c7,.3,4.2-5.1,5.5-10.6,1.3-5.1,6.5-9.1,6.9-12.2h0ZM368,347.9c-9.7,4.4-16.8,18.8-8.2,27.2,1.4,0,8.8-24,8.2-27.2ZM359.3,379.5l-4.4-7.1-4.2.7c-.5,6.5,2.5,9.1,8.6,6.4h0ZM358.2,381.7c-4.2-.9-4.5,1.7-1.6,4.3l1.6-4.3Z"/>
    <path class="st20" d="M289.5,224.8c.2-1.5,1.9-2.5,3.3-2.2l-2.2,3.3-1.1-1.1Z"/>
    <path class="st28" d="M290.6,225.9l-1.1-1.1,1.1,1.1Z"/>
    <path class="st6" d="M424.5,79.7c-.8.5-2.3.2-3.2-.4-2.5-5.2-6.8-8.7-10.5-12.9-.7-.8-.6-2.5-1.4-3.4-5.4-6.2-18.1,1.4-18.5,8.8-.2,3.5,4.4,12.3,7,14.7,9,8,28.3,4.5,31.7,22.8,3.1,16.4-13.3,20.3-26.2,20.8-6,.2-21.1-1.2-26.6-2.9-6.5-2-25.6-22.7-18.6-27.5,3.8-2.6,20,13.3,25.4,15.2,17.3,6.2,13.3-14.1,2.3-20.8-9.8-6-14-4.9-19.9-17.1-5.5-11.5-6.7-20.5.6-31.5,8.7-13.3,24.9-10.5,38.6-7.6,18,3.8,31.8,10.5,24.9,31.9-.4,1.3-5.1,9.9-5.6,10.1h0Z"/>
    <path class="st24" d="M333.1,38.4c.9,0,1.9,0,2.2,1.1-9.3,8.8-7,14.4-4.7,26,3.4,17.4,10.3,36.8,16.2,53.6l13.6,8.7c-14,0-28.1,2.2-41.4,6.5,2-5.1,11.5-10.4,10.7-15.5-3.9-10.6-9.4-21.2-12.9-31.9s-3.3-26.5-14.1-31.7l-13.1-5.9c14-5.5,28.5-10,43.6-10.9h0Z"/>
    <path class="st20" d="M333.1,38.4l5.5-2.2c-.3,1.7-2.3,2.3-3.3,3.3-.2-1-1.3-1.1-2.2-1.1Z"/>
    <path class="st17" d="M368.5,126.7c.7.4.7.7,0,1.1v-1.1Z"/>
    <path class="st6" d="M571.5,124.7c6.8-1.9,17.1,13.4,16.6,19.9-.6,8.7-11.8,18-16.1,25.4-5.1,8.8-7.7,21.5-8.8,31.5-.3,2.9-2.5,16,2.4,15.5,13.6-1.2,24-43.5,31.1-54,3-4.5,6.6-7.7,10.9-2.9,6.6,7.3,18.6,41.2,11,48.9-1.2,1.3-4.5,2-6.4,3.4-20,14.4-38.6,33.1-57.9,46.7-4.7,3.3-12.9,9.2-14.9-.1-3.5-15.6,12.1-53.5,15.6-71.1.4-2,1.9-8.9,1.5-10.2-.8-2.5-4.1-2.4-5.9-.7-2.1,1.9-12,28-15.2,33.8-1.3,2.4-6.7,12.6-8.7,12.8-9.5-5-13.5-17.5-14.8-27.5.5-3.1,3.9-3.9,6-6,14.4-14.7,29.6-33.9,42.4-50.3,2.4-3.1,8.3-14.2,11.2-15h0Z"/>
    <path class="st29" d="M586.7,538.9c4.6-.7,16,6,18.9,10.1,10.3,14.4-2.6,25-16.9,25.6-7.3.3-13-5.2-19.8-6.3-16.3-2.6-14.9,11.4-3.2,16.3,20.1,8.3,47.3-11.6,66.5-1.1,6.3,3.4,19.5,15.2,13.4,22.8-10.7,8.4-18.3,18.4-30.4,25.2-8.9,5-32.8,13.7-42.6,12.8-7.3-.7-26.6-14.2-21.9-21.8,1.6-2.6,21.7-11.7,25.2-12,8.7-.6,18.4,6.2,29.9,3.8,10.4-2.2,15.5-11.4,2.2-14.3-19.2-4.2-42.8,6.4-58.9,0-4.8-1.9-19.1-21.7-18.2-26,1.1-5.5,28.2-15,35-19.4,4.5-2.9,17.6-15.3,21.1-15.9h0Z"/>
    <path class="st6" d="M488.6,623.4c-3.9,3.2-16.5-1-19.8,6.9-5.2,12.4,14,23.4,23.9,10.8,7-8.9,10.5-22.1,22-28.2,7.1,3.8,14.6,19.5,11.5,26.9-2.9,7.2-17.8,19.3-24.6,23.3-7.3,4.3-32.6,16.8-40,13.4-5.9-2.7-7.6-19.6-9.3-25.6-3.2-11.7-13.4-41.3-12.5-51.6.8-8.4,17.9-18.5,25.1-22.9,8.4-5.2,27.6-17.9,36.3-9.3,1.4,1.4,9,14.5,9.6,16.6,3,9.8-6.4,14.5-15,13.9-7.4-.5-14.2-6.4-22.5-5.3-16.2,2.2-15.9,22.1,1.7,18.1,3.9-.9,8-7.2,12.7-3.6,5.1,3.9,5.9,12.5.8,16.6h0Z"/>
    <path class="st4" d="M261.9,540.1c5.3,6.1,4.9,10.3,2.9,17.9-2.5,9.5-8.7,14.9-18.6,16.3-8.3,1.2-20.2-4.6-24.5,6-3.9,9.6,3.9,12.3,6.6,20.1,4.6,13.7-1.3,33.4-12.9,42.2-18.4,13.9-23.3-1.6-35.4-11.3-4.4-3.6-8.8-5-12.8-7.9-2.3-1.6-13.6-9.5-14.3-10.8-2-3.4-2.1-11.6-1.4-15.5,2.5-15,34.9-36,46.6-47.1,6.1-5.8,20.4-24.4,27.8-25.6,11.4-1.9,28.6,7.1,36.1,15.6h0ZM230.4,537.7c-5,1-14,14.2-14,18.9,0,8.7,21,10.1,27.4,3.3,7.9-8.4-4.1-24-13.4-22.2h0ZM193.3,583.6c-9.4.8-20.1,11.5-23.9,19.8-4,8.7-.8,10.2,6.4,14.7,2.3,1.5,15.1,9.1,16.6,9.5,17.2,5.2,32.9-24,15.8-37.6-3-2.4-11.2-6.6-15-6.3h0Z"/>
    <path class="st29" d="M140.6,244c1.3,1.3,5.1,3.1,7,3.4,9.4,1.6,9.5-5,14.6-10,13-12.8,40.9-12.3,52.7,1.6,9.7,11.5-1.7,21.4-5.7,32.3-2.6,7.2-5.4,27-9.6,31.9-1.7,2-11.7,6.1-14.4,6.3-15.8,1-46.7-23.2-61.7-31.5-10.1-5.6-30.5-10.1-32.3-23.3-1.5-11.1.6-24.1,6.2-33.9,5.4-9.4,23.8-9.2,31.3-2.5,9,8.1,6.9,20.8,11.8,25.8h0ZM117,231.5c-9.1.8-15.5,12.5-12.6,20.9,1.2,3.6,17.5,8.6,20.8,8.1,11.6-1.7,3.2-30-8.2-29h0ZM194.4,288.8c3.5-3.5,3.9-21.3,6.7-26.5,1.4-5.6-3.4-11.1-7.6-14-24.5-16.7-48,18.8-26,34.7,4.8,3.5,22.1,10.6,26.9,5.8h0Z"/>
    <path class="st8" d="M236.9,72.5c3.6,3.7.1,23.9.2,29.6.3,23.6,25.1,50,48,54l-9.3,7.6-10.9,14.2c-2-3.2-1-7.4-2.2-10.9-3-8.5-33.9-38.3-42.6-42.4-15.4-7.2-27.1-.8-41.3-3.4-5.4-1-4.2-11.4-1.7-14.8,3.6-4.8,15.4-5.5,20.8-4.4,5.9,1.2,17.6,11.2,22.7,8.1,2.3-1.4.8-19.1,1.3-23.2.7-5.3,8.7-20.8,14.9-14.5h0Z"/>
    <path class="st8" d="M487.9,60.2c.3,2.8,0,1.7-1.6,2.2-2.4.7-10.4,1.1-11.3,2.4-2.6,14.6-9.7,28.8-13,43.1-3.3,14.5-5.8,24.6,7.4,34.5,14.1,10.6,35.5,8.6,41.3,28.4l-8.2,10.3-10.3-13.6c-15.9-15.6-38.5-22.6-52.3-40.3l12-80.1,36,13.1h0Z"/>
    <path class="st4" d="M429,580.1l-31.6,3.3c-3,32.1-15.7,67.3-1.1,98.1-13.3,2.2-25.1-3-38.1-4.4-.3-3.5,4.2-4.6,5.9-6.6,3.2-3.8,6.4-17.6,7.5-23,4-19.8,6.1-41.3,9.3-61.3-1-4.5-30.7-6-34.6-10,2-15.6,24.4-7.6,35.3-6.9,6.1.4,12.4-.5,18.6,0,4.5.3,23.1,2,26,3.5,2.4,1.2,2.8,4.9,2.9,7.4h0Z"/>
    <path class="st24" d="M199.9,182c.6-.6,3.1-8,3.3-9.3,1-7-3.3-12.5-9.8-14.7-17.6-5.9-17.1,20.4-20,21-5.7,1.2-12.1-11.5-12.4-16-.6-8.6,13.6-19.6,21.5-20.9,15.7-2.7,32.9,9.6,44.4,19.4,4.2,3.6,24.2,23.1,23.3,27.6-4.5,5-9.4,9.5-13.3,15-2.3,3.2-8.6,16.2-9.9,17.4-4.8,4.3-22.7-4.9-27.2-8.8-6.8-5.7-9.5-11.8-7.9-21,1.4-8.4,5-6.6,8.2-9.8h0ZM212.8,180.4c-6.3.7-10.3,11.8-9.3,17.6.9,5.3,8.2,12.1,13.5,11.5,1.7-.2,11.2-9.5,12.5-11.5,7-10-8.3-18.7-16.8-17.7h0Z"/>
    <path class="st27" d="M629.2,222.7c1.6-.2,8.3,10.2,9.3,12.2,13.2,26.6,13.3,62.6-14,80.1-6.6,4.2-32,16.2-38.8,14.2-.6-.2-8.5-6.9-9.6-7.9-3.4-3.4-7.7-9.3-10.7-13.3-3.2-4.4-15.8-22.2-14.3-26.9l78-58.4h0ZM621.7,255.5c-4.1-2.5-19.9,6.2-24.1,8.7-7.3,4.4-20.2,13.9-16.3,23.5,10.2,10,8.6,28.2,26.8,17.5,13.6-8,22.1-35.6,13.6-49.8h0Z"/>
    <path class="st9" d="M542.1,76.8c14.7-2.8,24.6,16.7,22.7,29.2-2.8,17.7-28.5,46.5-44.6,54.3-7.6-9.8-18.5-16.3-29.6-21.6-4.2-4,1.8-17.3,4.5-21.8,5.4-8.9,12.6-13.9,23.4-11.6,7.1,1.5,6.3,5.4,10.4,8.1,10.8,7,23-1,21.1-13.4-1.7-11-19.7-9.2-20.6-13.3.6-4.9,8.5-9.2,12.7-10h0ZM504.5,120.5c-.9,1-3.3,6.7-3.3,8-.2,2.8,12.2,14,14.7,14.4,7.6,1.2,17.1-14.5,10.7-21.7-5.8-6.5-16.1-7.4-22.1-.7Z"/>
    <path class="st9" d="M322.2,570.3l-9.5,4.7c-1.1,2.6-2.8,5-3.8,7.7-3.1,7.7-12.7,46.7-11.7,53.5,1,6.5,8.2,10.3,7.6,17l-41.4-11.4c-1.8-1.3-.6-1.7.7-2.6,4.4-2.9,16.6-6.2,18.5-7.7,3.3-2.7,4-27,5.1-33,1.2-6.5,5.7-15.7,5.2-22.1-.5-6.8-7.1-10.2-9.9-15.8,13.7.8,26.8,4.1,39.2,9.8h0Z"/>
    <path class="st24" d="M401.8,380.6c4.4,3.7,13.4,12,13.2,18-.2,4.5-7.7,14.4-10.1,19.4-2,4.1-1.3,9.5-6.9,11.7l-.5-9.8c-3.8-.7-2,6.7-3.3,8.7l-1.1-7.6-3.3,7.6c-5-2.9,0-9.7.8-13.9.5-2.3.1-4.8.5-7.1.4-2.7,4.5-6.3-.2-8.4l-1.6,4.3c-3.6-1.7-7.3-7.4-10.4-8.7,2.9-8.2,6.7-16.2,13.6-21.8,2.4,3.4,6.3,5.1,9.3,7.6h0Z"/>
    <path class="st23" d="M390.9,361c-.2,3.4-2,6.2.1,9.7,2,.5,3.6,0,5.3-1,.9,1.9,1.9,2.9,3.3,4.4,1.1,1.2,2,1.3,3.3,3.3.8,1.2,1,2.8,2.2,3.8l-3.2-.6c-2.9-2.5-6.8-4.2-9.3-7.6-6.9,5.5-10.7,13.6-13.6,21.8,0,0-1.1.9-2.1,0-.3.7.1,1.7,0,2.2-.9-.6-1.2-1-1.1-2.2,4.2-12.2,10-24.3,14.2-36,1,.2,1.2,1.3,1.1,2.2h0Z"/>
    <path class="st8" d="M274.2,367.6c3,2.5,10.3,7.4,13.7,4.5,1.8-1.6,1-4,1.8-5.3.9-1.5,5.3-1.2,3.9-6-.5-1.9-5-5.9-7.5-5.1-.6,3.2,5,4.1,5.4,6,1.1,5.4-10.6,1.7-11.8-4.6-1.6-8,12.5-8.5,13.5-.3,1.8-.8,2-8.8,6.5-8.7,3.9.9.8,22.8,11.8,19.4,3.8-1.2,14.1-23.5,16.2-24.7,2.9-1.7,3.1,1.8,3.8,2,6.6,1.6,9.8-3.4,15.6-4.3.8-3.3-4.6-3.1-6-5.4-2-3.3,2.7-7.3,4.3-7.3.5,0,1.9,1.7,3.4,1.9,7.1,1.1,8-8.9,8.6-8.7,1.6,1.4,5,2.3,5,4.9,0,1.1-9.7,10.7-2.9,8,6.4-2.5.9-8.7,11.6-9.6,8.1-.7,16.6,1,23.5,5.4-.4,10.2-1.5,19.8-4.9,29.5-4.2,11.7-9.9,23.8-14.2,36-.8,2.4-2.8,5.4-3.8,8.7-1.5,5-5.2,27.6-8.2,28.9-6-.6,2.4-11.8-3.3-11.5-.4.5-1.1,14.4-4.4,10.9.5-2.4,1-4.5,1.2-7.1,0-.9-.8-5.1-2.3-2.7,0-.4-1.2-1.3-1.1-2.2,1.6-10.5,2.6-21.1,5.1-31.4,3.8-15.8,11.9-31.2,13.4-47.6.1-1.2.5-11.7-2.2-8.2l-1.1,12.3c-.5.9-6.2,2.6-7.7,2.9-.4,3.1-5.6,7-6.9,12.2-1.4,5.5,1.5,10.9-5.5,10.6l-1.8-3.2-2.2,1.7c-.6,3.6,10.3,18,10.6,20.8.2,1.8-1.6,12.7-2.4,14.6-1.1,2.9-4.6,5.7-6.5,8.8-.6,1-7,14.6-8.2,13l-.6-6.5-4.9,5.5,1.1-8.7-3.3,4.3-2-1.4c3-6.9,5-14.6,10.7-19.8v-1.6c-5.5,0-10.4-10-12.2-14.5-7.6-19.3,1.6-30.5,20.7-34.3,4-.8,9.3-.5,13.3-1.4,0-.7.4-2.3-.7-2.2-23.7-1.5-46.3,11.5-36.4,38.1-12.5,3.3-25.2-4.1-37-6.5-6.2-1.2-12.2-1.5-18.5-1.1-1.3-1.4-4-1.6-5-3.3-.8-1.4.5-2.5.6-3.2,3.6-1.6,6-1.9,9.8-2.2h0Z"/>
    <path class="st12" d="M400.8,335c11.6,2.1,16.7,20.4,7,28.2-7.8,6.2-7.7-2.1-9.9-6.5-.9-1.8-3.5-2.5-3.7-4.9-.3-4.9,4.3-12.5,6.6-16.8h0Z"/>
    <path class="st9" d="M396.3,369.7c-1.7.9-3.4,1.5-5.3,1-2.1-3.5-.3-6.3-.1-9.7l4.9-3.3,3.8,9.2c-.1.5-2.6,2.5-3.2,2.8h0Z"/>
    <path class="st20" d="M396.3,337v-6.5c4.8.1,4,4.8,0,6.5Z"/>
    <path class="st20" d="M451.9,280.4c-4.4.9.3-6.2-1.1-8.7,3.4,1.4,1.3,6.1,1.1,8.7Z"/>
    <path class="st23" d="M327.7,324c-2.7,2.6-5.1,2.2-6.5,7.1-.7,2.7,3.9,1.5,5.4,1.6.9,0,1.9,0,2.2,1.1-1,1-1.8,1.9-2.2,3.3-1.7-2.5-2.2-2.6-5.5-2.2-3.1-2.4-1.4-4.7-4-6.4-8.8-5.7-32.4,3.8-39.6,10.7-7.8,7.5-11.2,15.1-9.8,26.2,3.4.9,2-4,2.7-6.6,1-3.9,2.1-7.8,3.7-11.6.7-1.8,1.9-6.3,4.5-5.8.4,3.3-3.1,10.3-4.4,14.2-.9,2.8-2.8,5.3-2.2,8.7,2.3.2.3-3,1.3-4.2.4-.5,1.8,0,2-.1-.5,2.6-1.1,4.5,1.1,6.5-.3,1.1-1.3,1-2.2,1.1-3.8.3-6.2.6-9.8,2.2,0,0-.9-.7-1.1-1.1,4.5-4.7,1.2-5.8,1.4-11.2.9-21.4,28.9-35.3,48.1-33.4,2.7.3,7.2,2.5,9.4,2.1.3,0,3.9-2.9,4.4-3.3.5.1.9.6,1.1,1.1h0Z"/>
    <path class="st23" d="M268.8,376.3c6.4-.4,12.3-.2,18.5,1.1-1.9,2.2-6,.7-8.7,1.1-2.7-.5.5,5.3.9,6.2,6,11.7,15.4,14.8,27.4,16.7,2.9.5,2,2.1,6.5,0,.6-.3,1.9-.8,2.2-1.1v2.2c-1.8,3.2-3,9.5-2.2,13.1l-1.1,1.1c-.3-1.2-1.1-3.3-1.1-4.4,0-.1,1.5-1.1,1.1-2.2h-12c-10.2-2.2-21.8-7.7-27-17.1-1.9-3.4-4.5-14.1-6.7-15.6.3-1,1.3-1,2.2-1.1h0ZM312.4,404.6c-12.2.1-24.3-3.5-32-13.2-2.8-3.5-3.8-7.1-5.9-10.5-.9-1.5-1.3-3-3.5-2.5,3.6,14,10,22.2,23.7,27,4.3,1.5,16.8,5.6,17.7-.8Z"/>
    <path class="st11" d="M344,264l-5.7,15-9.4,1.5c-2.5,4.5.9,13.1-5.3,14.9-8.5,2.5-5.9-8-7.8-12.5-.7-1.6-5.3-4-3.4-5.9,4-3.9,9.3,11.8,7.6,14.7,7.1,2.7,2.8-10.2,6.8-14.4l8.5-.7c1.6-1.2,1.5-14.2,8.6-12.6h0Z"/>
    <path class="st11" d="M305.8,284.7c2.6,13.1-5.7,12-11.5,17.4-3.1,2.9-3,9.3-8.2,9.4-3.7-1.7-1.6-14.9-3.2-19.1l3.9,3.2,1.6,10.9c-.2-7.6,11-9,13.2-12.5,1.9-3,.3-9.5,4.3-9.3h0Z"/>
    <path class="st11" d="M265.5,422v-3.2c3.8-.5,7.8,1.7,9.6,5,2,3.5.6,9.2,5.6,8,.7-5.9-3-12,2.7-16.3,3.5,2.3-.4,4.3-.4,7,0,3.5,3.8,11.7-2.9,12.6-9.1,1.3-4-14.2-14.6-13.2h0Z"/>
    <path class="st23" d="M360.3,239c1.3,4.8-3,2.8-4.4,5.2-2.9,5.2,2.4,19.1-8,15.6-1.9-1.3-1.8-6.1-3.4-7.8-2-2-5.7.5-4.9-3.2,7.2-2.7,7.3,2.5,9.7,7.2.4.9.3,3.3,2.3,1.5,3.2-3-3.1-18.8,8.7-18.5h0Z"/>
    <path class="st11" d="M252.4,352.3c-3.5,8.2,6,23.4-8,24.1l-4-9.9c4.3-2.9,4.8,10.8,8.2,5.5,3-4.7-5.2-17.6,3.8-19.7h0Z"/>
    <path class="st11" d="M339.4,206c-2,2.6-5.3-1.3-7.7-.7-2.8.7-8.5,15.4-12.7-1.2l6,4.4c3.7-6.5,4.7-8.1,12.5-5.5.3-.3-2.9-8.3.5-6.5,2.4,1.9,3.2,7.3,1.4,9.5h0Z"/>
    <path class="st11" d="M273.2,308.7c-1.5,4.9-3.2,13.7-5.6,17.8-3.8,6.2-9.9,5.5-8.5-2.5l4.4,2.7c3.3-3.8,3.4-9,5.2-13.3.6-1.4,2.3-5.4,4.5-4.7h0Z"/>
    <path class="st5" d="M362.5,216.1l4.4-.5,1-5h3.3c.6,3.9-.8,7.8-4.9,8.7-9.3,1.9-5.7-3.7-7.3-9-.6-2.1-3.5-2.6-3-5.1,6.1-.3,7,6.3,6.5,10.9Z"/>
    <path class="st11" d="M303.7,454.7l1.1-6.5h3.3c1.1,6.2-3.8,13.3-9.9,8.3-.9-.7-6.6-7-5.3-8.3,3-3,7.5,8.7,10.9,6.5h0Z"/>
    <path class="st23" d="M313.5,313.1c1.8,2,6.8-9.7,10.9-7.6l-6.5,9.3c-1.9,2.1-3.9,2.9-6.4,1.5l-3.4-10.7c4.7-.8,5.5,4,5.5,7.6h0Z"/>
    <path class="st19" d="M322.2,426.4l-1.1,1.1c-.2-.2-1.6,0-2.1-.6-3.6-3.9-5.1-4.7-6.6-10.3l1.1-1.1c.7,2.8,6.1,9.1,8.7,10.9Z"/>
    <path class="st19" d="M264.4,369.7c0,.7-1.4,1.8-.6,3.2,1,1.7,3.6,1.9,5,3.3-.9,0-1.9,0-2.2,1.1-1.7-1.1-5.1-.5-6.1-4.3-.8-3.1,1.5-3,2.9-4.4.2.4,1.1,1,1.1,1.1Z"/>
    <path class="st11" d="M350.5,219.3h-3.2c-3.1-7,3.2-6.5,3.2,0Z"/>
    <path class="st19" d="M300.4,410.1h12c.4,1.1-1.1,2.1-1.1,2.2-3.2-1.4-7.2-1.4-10.9-2.2h0Z"/>
    <path class="st11" d="M553.2,509.2c3.3,2.8-13.6,7.4-10.9,0h10.9Z"/>
    <path class="st14" d="M497.7,503.8c2.8,2.5-9.9,7.2-12,2.7l12-2.7Z"/>
    <path class="st14" d="M460.6,513.6c.5,5.9-6.4,6.9-9.8,2.7-.5-2.6,1.2-1.3,2.8-1.6,2.4-.3,4.7-.4,7-1.1Z"/>
    <path class="st11" d="M430.1,521.2v3.3c-4,.2-10.9,2.9-9.8-3.3h9.8Z"/>
    <path class="st5" d="M453,507.1c-.1,4.9-6.9,6-9.8,2.7-.5-2.6,1.9-1.4,3.7-1.8,2-.4,4-1.2,6.1-.9h0Z"/>
    <path class="st23" d="M477,519v-3.3c4.5,2.1,6.1,0,9.8-2.2.4,6.3-5.2,5.7-9.8,5.4h0Z"/>
    <path class="st11" d="M604.5,504.9c.6,5.3-4.7,6.1-8.7,4.3-.2-4.6,3.2-2.1,4.7-2.5s2-2.3,4-1.8h0Z"/>
    <path class="st26" d="M585.4,506l1.6,2.7c-2,3-6.1,4.2-8.7,1.1.5-4.4,5.2,0,7.1-3.8Z"/>
    <polygon class="st5" points="438.8 513.6 438.1 516.9 430.1 518 430.1 514.7 438.8 513.6"/>
    <path class="st11" d="M631.7,490.7c-.1.3-5.8,4.1-6.5,3.3-1.6-5.7,8.5-8.5,6.5-3.3Z"/>
    <path class="st19" d="M533.6,496.2c1.1,3.2-7,4.9-7.6,4.3l1.3-3.6,6.3-.8h0Z"/>
    <path class="st5" d="M519.5,507.1c1.1,3.2-7.1,4.9-7.6,4.3l.7-3.3,6.9-1.1h0Z"/>
    <polygon class="st5" points="571.8 510.3 564.1 511.4 564.1 508.2 570.2 507.4 571.8 510.3"/>
    <path class="st14" d="M620.8,502.7c.4,2.9-1.5,5.6-4.3,5.4-.4-2.9,1.5-5.6,4.3-5.4Z"/>
    <path class="st19" d="M503.1,513.6v3.3h-4.3v-1.6c1.2-1.7,2.3-1.9,4.3-1.7Z"/>
    <path class="st19" d="M479.1,500.5c1.4,1.4-1.9,6.5-3.2,2.7-1.2-3.2,2.4-3.5,3.2-2.7Z"/>
    <path class="st5" d="M457.3,503.8l-3.1-1.2-.2-3.1h1.6c1.7,1.2,1.9,2.3,1.6,4.3h0Z"/>
    <path class="st19" d="M539.1,507.1c.3.2,0,1.5-.5,2.2-4,4.9-3.4-5.7.5-2.2Z"/>
    <path class="st19" d="M381,492.9l3.3,6.5c-4.7.6-7.2-1.8-6.5-6.5h3.2s0,0,0,0Z"/>
    <path class="st26" d="M395.2,480.9c-2.4,2.5-5.8-3.7-4.3-6.5,3.1-.9,5.6,5.3,4.3,6.5Z"/>
    <path class="st5" d="M415.2,488.2c.2.4,1.3.3,1.8.3.2,1.7.5,2.5-1.6,2.2-3.6-.6-5.5-5.2-2.2-7.6,2,1.2,1.2,3.5,2,5.1h0Z"/>
    <path class="st19" d="M421.4,501.6c-2.5,2.5-6.9-4.5-2.7-5.4,2.7-.6,3.4,4.7,2.7,5.4Z"/>
    <path class="st19" d="M412.6,468.9l1.1,5.4-4.3-1.6c-.4-2.3.9-4.2,3.2-3.8h0Z"/>
    <path class="st19" d="M340.7,513.6c1.8,2.5-3.3,6.5-4.3,2.7s3.4-4,4.3-2.7Z"/>
    <path class="st26" d="M341.8,502.7l-.5,3.3c-3.8,2.8-4.3.9-3.8-3.3h4.3,0Z"/>
    <path class="st19" d="M393,500.5l-.5,3.3c-3.8,2.8-4.3.9-3.8-3.3h4.3,0Z"/>
    <rect class="st19" x="289.5" y="203" width="3.3" height="6.5"/>
    <path class="st19" d="M365.8,483.1v-4.3c5.8-.5,5.8,4.8,0,4.3Z"/>
    <path class="st5" d="M406.1,464.5h-3.3v-4.3h1.6c1.7,1.2,1.9,2.3,1.7,4.3Z"/>
    <path class="st5" d="M406.1,490.7h-3.3v-4.3h1.6c1.7,1.2,1.9,2.3,1.7,4.3Z"/>
    <path class="st26" d="M387.6,467.8h-3.3c-.4-5.5,3.7-5.5,3.3,0Z"/>
    <path class="st26" d="M371.2,492.9c1.4,1.5-1.9,5.8-3.3,4.3-1.4-1.5,1.9-5.8,3.3-4.3Z"/>
    <path class="st19" d="M281.9,476.5c1.7,1.7-1.5,5-3.3,3.3s1.5-5,3.3-3.3Z"/>
    <path class="st19" d="M265.5,452.6c1.7,1.7-1.5,5-3.3,3.3s1.5-5,3.3-3.3Z"/>
    <path class="st19" d="M402.8,504.9c-1.9,2.1-4.9-4.4-1.6-4.3,1.1,0,2.3,3.6,1.6,4.3Z"/>
    <path class="st19" d="M264.4,462.4c.3.2,0,1.5-.5,2.2-4,4.9-3.4-5.7.5-2.2Z"/>
    <path class="st19" d="M426.8,225.9h-3.3v-3.3c2-.4,3.6,1.2,3.3,3.3Z"/>
    <path class="st19" d="M301.5,197.5h-3.3v-3.3c2-.4,3.6,1.2,3.3,3.3Z"/>
    <path class="st19" d="M334.2,177.9v3.3c-1.3,1.5-6.7-4.4,0-3.3Z"/>
    <path class="st19" d="M230.6,338.1h-3.3v-3.3c2-.4,3.6,1.2,3.3,3.3Z"/>
    <path class="st19" d="M252.4,259.7h-3.3c0-4,3.2-4,3.3,0Z"/>
    <path class="st19" d="M237.2,401.3h-3.3c0-4,3.2-4,3.3,0Z"/>
    <path class="st19" d="M406.1,218.2c0-4,3.2-4,3.3,0h-3.3Z"/>
    <path class="st19" d="M374.5,182.3c0,4-3.2,4-3.3,0h3.3Z"/>
    <rect class="st19" x="402.9" y="511.4" width="2.2" height="3.3"/>
    <rect class="st21" x="310.2" y="497.3" width="3.3" height="2.2"/>
    <rect class="st19" x="384.3" y="520.1" width="2.2" height="3.3"/>
    <rect class="st19" x="228.5" y="385" width="2.2" height="3.3"/>
    <rect class="st19" x="225.2" y="354.5" width="2.2" height="3.3"/>
    <rect class="st19" x="350.5" y="177.9" width="3.3" height="2.2"/>
    <path class="st5" d="M291.7,254.2l-1.6,5.4c-6.7-.3-3.3-5.2,1.6-5.4Z"/>
    <path class="st19" d="M293.9,241.1c2.5,2.5-4.5,6.9-5.4,2.7-.6-2.7,4.7-3.4,5.4-2.7Z"/>
    <path class="st19" d="M314.6,246.6c-2.5-2.5,4.5-6.9,5.4-2.7.6,2.7-4.7,3.4-5.4,2.7Z"/>
    <path class="st11" d="M286.2,266.2l-.5,4.4c-6,4.1-4.7-4.2.5-4.4Z"/>
    <path class="st19" d="M310.2,239c.8.8-.4,4.9-2.7,4.4-4-.9.6-6.5,2.7-4.4Z"/>
    <path class="st5" d="M277.5,265.1v3.3c-2,.2-3.2,0-4.3-1.6v-1.6h4.3Z"/>
    <path class="st23" d="M305.8,227h-3.3c-.4-5.5,3.7-5.5,3.3,0Z"/>
    <polygon class="st19" points="316.2 230.3 317.8 231.9 316.2 234.6 314.6 232.9 316.2 230.3"/>
    <path class="st28" d="M321.1,334.9c.9.7,2.8,1,3,1.3.3.4,1.2,6,1,6.7-.3,1.9-13.1,20.8-14.6,21.2-6.4,1.9-4.1-5.3-5-8.8-1.4-6-3.5-9.1-6.8-13.8l-4.9,7.1c-2.8,1.5-10.4-2.9-15,1.9-1.4,1.5-.9,5.4-4.7,5.2,1.3-3.9,4.7-10.9,4.4-14.2,0-.6-.9-1.5-1.1-2.2,7.2-6.9,30.8-16.4,39.6-10.7,2.6,1.7.9,4,4,6.4h0ZM313.5,338.1c.4-5.5-3.7-5.5-3.3,0h3.3ZM322.2,341.4c-3.9-3.5-4.5,7.1-.5,2.2.6-.7.8-1.9.5-2.2Z"/>
    <path class="st7" d="M337.5,310.9c.2-.5-.7-2.1.6-2.2,14.4-3.5,10.5,22.1-1.7,19.7-.5-.4,7.6-8.1,4.9-10.9-4.1,6.2-8.1,11.5-14.7,15.2-1.5,0-6.2,1.1-5.4-1.6,1.4-4.9,3.8-4.6,6.5-7.1,5.3-5.2,6.5-6,9.8-13.1h0Z"/>
    <path class="st7" d="M352.4,307.9c3.8,3.4,4.4,20.4-4.1,19.3-.9-7.1,4.3-15.8-3.3-20.1.9-2.5,6.4,0,7.4.8h0Z"/>
    <path class="st7" d="M352.7,304.4c7.3-2.1,13.3,14.2,8.2,15.2-3.8.8-3.9-7.1-4.8-9.3-1-2.4-3.4-3.3-3.3-5.9h0Z"/>
    <path class="st9" d="M276.4,366.5c-2.2-2-1.6-3.9-1.1-6.5.4-.3.8-1.8,1.6-2.2l10.4,10.3-1.7,2.7c-1.1.2-8.2-3.4-9.2-4.4h0Z"/>
    <path class="st7" d="M326.6,322.9c-11.8-2.6,4.5-10.1,8.7-13.1-1.1,4.4-5.4,10.1-8.7,13.1Z"/>
    <path class="st7" d="M328.7,333.8c1.5-1.4,9-6.1,9.8-1.7l-10.3,8.2c-1.6-.6-1.2-2.7-1.6-3.2.4-1.4,1.1-2.3,2.2-3.3h0Z"/>
    <path class="st7" d="M333.1,342.5c-.5-3.5,2.7-5.6,5-7.5l3.6,2.8c.5,2.8-6.2,5.6-8.6,4.8h0Z"/>
    <path class="st19" d="M336.4,308.7c-.5-.5,1-1.7,1.1-.5,0,.4-.8.8-1.1.5Z"/>
    <path class="st19" d="M337.5,310.9c-3.3,7.1-4.5,7.9-9.8,13.1-.2-.5-.6-1-1.1-1.1,3.3-3,7.6-8.7,8.7-13.1.2-.1,0-1.3,1.1-1.1l1.1,2.2Z"/>
    <path class="st25" d="M315.7,402.4c1.4-2.6,10.9-12.6,14-10.8l4.5,9c-1,5-8.3,15.2-7.7,19.7.6,4.1,11,9.8,15.1,8.1l11-18.4c-.1,8.2-5.1,17.1-2.2,25.1l-15.3-3.3c-4.4-1.5-9.2-2.8-13.1-5.5-2.6-1.8-8-8.1-8.7-10.9-.9-3.5.4-9.8,2.2-13.1h0Z"/>
    <path class="st13" d="M193.3,583.6c3.8-.3,12,3.9,15,6.3,17,13.7,1.4,42.9-15.8,37.6-1.5-.5-14.3-8-16.6-9.5-7.2-4.5-10.4-6-6.4-14.7s14.5-19,23.9-19.8h0ZM171.9,610.4c6,2.1,20,13.8,25.4,13.2,12.9-1.3,20.9-23.3,7.8-31.6-16-10.2-28.9,3.3-33.1,18.4h0Z"/>
    <path class="st13" d="M230.4,537.7c9.3-1.8,21.3,13.8,13.4,22.2-6.3,6.8-27.3,5.4-27.4-3.3,0-4.8,9-18,14-18.9h0ZM231.4,542.1c-3.2.5-10.7,10.8-10.6,13.5.1,6.4,21.8,6.2,21.9-2.2,0-5.3-6-12.1-11.3-11.3Z"/>
    <path class="st15" d="M194.4,288.8c-4.8,4.8-22.1-2.3-26.9-5.8-22-16,1.5-51.5,26-34.7,4.3,2.9,9,8.4,7.6,14-2.8,5.3-3.2,23-6.7,26.5h0ZM191.3,285.7c1.4-7,7.5-23.7,4.4-29.7-4.6-8.8-22.2-10-28.7-1.7-13.6,17.6,7.6,32.5,24.3,31.4Z"/>
    <path class="st13" d="M117,231.5c11.4-1,19.8,27.4,8.2,29-3.4.5-19.6-4.6-20.8-8.1-2.9-8.4,3.6-20.1,12.6-20.9h0ZM115.9,235.8c-5.8,1.1-11.2,11-6.2,15.6,1.6,1.4,13.2,5.2,14.6,4.9,4.8-1.2.8-22.3-8.4-20.4h0Z"/>
    <path class="st13" d="M212.8,180.4c8.5-1,23.8,7.7,16.8,17.7-1.4,2-10.9,11.3-12.5,11.5-5.4.6-12.7-6.2-13.5-11.5-1-5.8,3-16.9,9.3-17.6h0ZM212.9,184.7c-8.2,2.5-7.4,17.3,1.4,20,3.9,1.2,13.9-9.4,13-13-1.1-4.2-9.8-8.4-14.3-7.1h0Z"/>
    <path class="st13" d="M621.7,255.5c8.5,14.2,0,41.8-13.6,49.8-18.2,10.7-16.5-7.5-26.8-17.5-3.9-9.6,9-19.1,16.3-23.5,4.2-2.6,20-11.2,24.1-8.7h0ZM619.6,259.8c-3-2.1-22.8,9.8-26.1,12.4-3.6,2.9-10,8.5-8.2,13.6.4,1.2,11.1,18.2,12.2,18.5,18.4-2.8,26.8-28.5,22.1-44.5h0Z"/>
    <path class="st13" d="M504.5,120.5c6-6.7,16.3-5.8,22.1.7,6.4,7.1-3.1,22.8-10.7,21.7-2.5-.4-14.8-11.5-14.7-14.4,0-1.3,2.4-7,3.3-8ZM520.2,137.3c2.5-2.1,6.1-10.6,4.1-13.9-.6-.9-7.5-4.2-8.8-4.3-4.7-.3-12.2,5.4-9.3,10.4.4.6,8.3,8.5,8.8,8.7,1.8.8,3.6.3,5.1-.9h0Z"/>
    <path class="st20" d="M354.9,422c.4,2.6-.2,5.9-.9,8.4-.5,1.9.8,3-2.3,2.5-.8-4.5,1.5-9.1,2.2-13.1,0,.8,1,1.8,1.1,2.2Z"/>
    <path class="st28" d="M278.6,378.5l34.5,8.6,13.4-.9,1.2,3.2c-2.8.4-6.7,3-8.6,5-2.1,2.2-2.5,4.8-3.4,5.9-.2.3-1.6.8-2.2,1.1h-6.5c-12.1-1.9-21.5-5-27.4-16.7-.4-.8-3.6-6.6-.9-6.2h0ZM309.1,389.4c-1.7-1.7-5,1.5-3.3,3.3s5-1.5,3.3-3.3Z"/>
    <path class="st25" d="M368,347.9c.6,3.2-6.7,27.3-8.2,27.2-8.7-8.4-1.5-22.9,8.2-27.2Z"/>
    <path class="st18" d="M359.3,379.5c-6.2,2.7-9.1,0-8.6-6.4l4.2-.7,4.4,7.1h0Z"/>
    <path class="st2" d="M358.2,381.7l-1.6,4.3c-2.9-2.6-2.6-5.2,1.6-4.3Z"/>
    <path class="st20" d="M278.6,341.4c-2.7-.5-3.8,4-4.5,5.8-1.5,3.7-2.7,7.7-3.7,11.6-.7,2.6.8,7.5-2.7,6.6-1.4-11,2-18.7,9.8-26.2.2.7,1,1.6,1.1,2.2h0Z"/>
    <path class="st20" d="M312.4,404.6c-.9,6.4-13.4,2.4-17.7.8-13.7-4.8-20-13-23.7-27,2.2-.4,2.6,1,3.5,2.5,2,3.4,3.1,7,5.9,10.5,7.7,9.7,19.9,13.3,32,13.2Z"/>
    <path class="st5" d="M313.5,401.3c-4.5,2.1-3.6.5-6.5,0h6.5Z"/>
    <path class="st5" d="M313.5,338.1h-3.3c-.4-5.5,3.7-5.5,3.3,0Z"/>
    <path class="st5" d="M322.2,341.4c.3.2,0,1.5-.5,2.2-4,4.9-3.4-5.7.5-2.2Z"/>
    <path class="st19" d="M309.1,389.4c1.7,1.7-1.5,5-3.3,3.3s1.5-5,3.3-3.3Z"/>
  </g>
</svg>