<?xml version="1.0" encoding="UTF-8"?>
<svg id="Layer_1" xmlns="http://www.w3.org/2000/svg" version="1.1" viewBox="0 0 1920 1080">
  <!-- Generator: Adobe Illustrator 29.1.0, SVG Export Plug-In . SVG Version: 2.1.0 Build 142)  -->
  <defs>
    <style>
      .st0 {
        fill: #f0d785;
      }

      .st1 {
        fill: #1b191c;
      }

      .st2 {
        fill: #ebddcd;
      }

      .st3 {
        fill: #0b0808;
      }

      .st4 {
        fill: #f9b7b3;
      }

      .st5 {
        fill: #352725;
      }

      .st6 {
        fill: #fab8b4;
      }

      .st7 {
        fill: #eff1f1;
      }

      .st8 {
        fill: #f8b6b3;
      }

      .st9 {
        fill: #f7b6b2;
      }

      .st10 {
        fill: #fbfcfc;
      }

      .st11 {
        fill: #292215;
      }

      .st12 {
        fill: #f9fafa;
      }

      .st13 {
        fill: #1d1b1d;
      }

      .st14 {
        fill: #221c18;
      }

      .st15 {
        fill: #1e1c1e;
      }

      .st16 {
        fill: #e3c3a5;
      }

      .st17 {
        fill: #fff;
      }

      .st18 {
        fill: #e1cc7e;
      }

      .st19 {
        fill: #382e2e;
      }

      .st20 {
        fill: #d79b91;
      }

      .st21 {
        fill: #0d0c0c;
      }

      .st22 {
        fill: #211f21;
      }

      .st23 {
        fill: #221714;
      }

      .st24 {
        fill: #f8b7b3;
      }

      .st25 {
        fill: #f3f5f5;
      }

      .st26 {
        fill: #262224;
      }

      .st27 {
        fill: #fbb8b4;
      }

      .st28 {
        fill: #e8a49a;
      }

      .st29 {
        fill: #fab7b3;
      }
    </style>
  </defs>
  <path class="st21" d="M1263.62,621.62c.22-.12.15-1.68.96-1.87,2.03-.47,4.73.22,6.91-.02l-3.27,32.7c-3.46-.52-8.18,1.81-9.24-2.19-20.63,12.93-32.32-19.15-15.12-29.26,9.76-5.73,17.76,1.72,19.76.63ZM1251.58,625.37c-9.57,1.98-11.95,22.63,2.93,20.48,11.82-1.71,9.95-23.13-2.93-20.48Z"/>
  <path class="st3" d="M1318.35,639.35c.28,5.87,6.38,7.55,11.42,6.53,3.91-.79,3.7-5.3,10.35-1.02-.42,6.3-10.25,9.18-15.66,8.59-21.01-2.27-18.74-34.96,3.15-34.9,15.81.05,18.05,20.8,14.17,20.8h-23.43ZM1334.7,632.81c.62-10.87-15.14-10.4-16.35,0h16.35Z"/>
  <path class="st21" d="M1306.13,622.14c.75,1.53.48,8.52-1.4,8.47-20.37-19.27-27.47,25.6-.55,13.11.83,15.2-19.36,11.18-24.16.73-7.97-17.35,10.25-33.28,26.11-22.31Z"/>
  <g>
    <path class="st14" d="M1006.66,631.72c9,7.32,12.98,2.8,23.11,5.77,3.74,1.1,5.59,4.02,5.96,4.08,2.58.42,9.07-1.45,13.84-.99,8.22.8,16.9,5.87,25.48,7.21,5.09.79,12.34,1.85,17.21,2.41,15.51,1.76,24.64-3.28,39.19-4.29,16.67-1.16,36.33-.53,45.02,15.98,10.9,20.71,8.56,49.61-16.75,56.97-18.61,5.41-29.46,2.27-46.79,3.35-10.7.66-22.14,5.98-32.73,6.5-9.95.49-19.94-2.77-30.54-2.21-9.55.51-19.69,3.89-29.39,4.39-8,.42-15.4-1.38-22.86-1.06-19.28.82-39.64,9.44-59.97,5.35-32.01,9.05-63.41-2.72-88.72-22.35-5.79-4.49-11.4-11.27-17.01-15.68-5.24-4.12-11.75-6.81-16.88-11.46-13.16-11.94-30.05-42.2-37.07-58.83-5.8-13.75-17.51-56.94-16.3-70.85.63-7.31,4.45-14.56,5.37-20.79.78-5.28-.32-11.63.21-17.23,1.01-10.8,12.87-48.5,18.58-57.71,9.29-14.97,26.52-29.12,36.86-42.7,6.22-8.17,10.35-15.48,17.97-23.45,38.59-40.33,64.16-30.32,115.49-27.19,15.18.93,29.95-.63,45.06,3.99,12.6,3.85,16.44,16.02,24.2,25.93,3.9,4.98,7.51,6.51,11.45,13.61,15.06,27.16,16.33,43.25,7.85,73.28-1.14,4.03-7.79,24.56-9.47,26.49-8.24,9.51-11.57-13.03-13.74-16.84-1.47-2.58-5.47-5.06-7.46-7.8-3.51-4.84-13.21-22.79-16.4-25.09-1.65-1.19-3.52.38-5.41.14-4.11-.53-7.94-9.89-10.95-13.13-6.21-6.69-13.2-5.73-21.28-8.68,4.77,4.51,12.46,19.11,4.05,23.18-5.82,2.82-7.21-8.02-9.03-11.12-1.56-2.64-5.47-4.43-6.51-7.65-2.04-6.31,3-9.41-2.19-16.34-3.41-4.55-8.5-6.11-13.99-5.42-14.13,1.76-4.5,16.48-10.43,23.4-.9,1.05-3.25,1.34-3.38,2.27-.19,1.37,1.31,3.76,1.11,6.22-.36,4.43-3.19,10.25-3.2,14.33-.02,6.67,5.04,12.03,3.05,20.49-.47,1.99-2.52,3.41-2.75,4.74-.1.6.65,10.45.86,11.77.87,5.7,9.33,13.13,9.74,20.23-2.47.1-5.73,1.68-9.81,1.09-.51-.07-.97-.57-1.09-1.09,1.77-.31,6.84-.54,6.41-2.57-1.32-6.19-6.91-10.34-8.07-14.83s.1-8.64-1.23-12.93c-1.41-4.53-6.65-6.6-6.94-12.7-.1-2.16.24-1.75,2.2-1.64,1.01,3.75,2.79,9.34,7.64,8.71,1.87-7.03-3.16-13.99-3.3-20.2-.11-5,3.34-11.21,3.19-16.2-.13-4.6-3.31-7.05-4.03-10.13-1.07-4.63-.84-12.13,4.12-14.49.23,5.22-6.17,14.78,2.22,15.86,3.72-1.74,1.67-12.31,2.22-16.33,1.12-8.16,9.5-9.22,16.27-9.88-1.99-2.71-4.49-.51-7.38-1.24-9.1-2.28-10.08-12.73-14.67-14.86-3.45-1.6-7.36-.32-10.94-1.04-4.49-.9-10.83-6.77-15.65-7.05-3.25-.19-12.75,3.48-16.68,4.63-2.29.66-4.86.09-6.91.72-2.44.75-17.55,12.59-14.95,15.01,13.47-4.06,18.33,4.13,26.1,12.59,1.17,1.28,3.39,1.85,4.44,3.19,2.68,3.41.44,8.43,5.35,7.08,1.94-6.41-.66-11.41,7.68-13.04l-.06,3.19c-8.35.08-.97,11.33-8.33,14.13-1.67.52-2.61-.36-3.64-1.46-2.25-2.39-1.73-6.64-4.29-8.22.19,5.47.2,10.22-1.41,15.49-2.21,7.28-12.29,13.88-5.16,19.38-.17-3.68,1.4-9.28,5.09-10.72,6.3-2.48-.88,4.76-1.19,5.35-1.11,2.13-1.2,7.92-3.43,8.61-4.33,1.36-4.73-6.06-6.52-6.48-20.8,4.83-32.04,38.17-56.84,26.36l-7.94-7.86c-1.83,8.66-.15,21.41-10.97,23.56,2.13,9.66-4.91,17.42-2.1,26.58,7.49.3,4.94-10.86,7.05-16.37,2.4-6.25,6.61-5.49,12.37-5.61l2.37-8.53c4.17,1.5,1.81,9.47-.77,10.96-3.42,1.96-8.49-.46-10.63,3.27-3.01,5.23-.22,12.29-5.44,18.56-1.09,1.31-3.36,1.59-3.84,2.93-1.89,5.21-5.31,26.47-5.52,32.35-.49,13.78,4.5,14.9,7.35,25.44,2.4,8.88,2.25,26.93,5.52,33.71.75,1.55,1.54,2.86,3.51,2.47,1.23-3.52,1.26-6.53.97-10.22-.4-4.87-6.32-17.16.13-18.11-.77,6.45,2.85,13.04,3.28,19.09.63,8.77-4.35,14.67,3.39,22.75,7.47,7.8,13.86,9.74,21.04,20.37,3.13,4.63,4.71,13.98,11.53,12.99,2.49-6.62-4.18-9.56-5.43-12.55-1.7-4.05,6.23.08,7.88,4.1,3.21,7.81-4.57,10.37,4.82,16.98,5.25,3.69,18.65,7.72,24.94,7.85,3.2.07,6.04-1.43,9.73-1.17,4,.29,7.55,3.31,11.79,2.03,3.8-1.15,5.14-13.08,6.77-17.23,4.58-11.61,16.73-25.05,28.57-29.2,9.75-3.42,19.92-2.04,30.01-3.77,11.76-2.02,12.56-5.23,26.11-1.61,7.02,1.88,13.53,4.68,21.09,5.07,7.75.4,18.43-5.37,26.62-5.39-.97-2-6.33-2.94-8.29-3.14-3.17-.33-8.91-.58-11.93-.18-6,.79-5.19,7.08-14.37,2.54-1.19-.59-1.37-1.88-1.75-2.08-9.47-4.88-8.47-4.26-19.24-2.58-1.09,0-2.18,0-3.27,0l11.99-3.27c5.69-1.17,11.88-2.67,17.44-4.36,3.04-.9,3.07,1.13,4.36,2.18ZM1034.98,500.93c1.86-9,6.23-17.15,8.2-26.14,5.68-25.89,3.23-39.5-9.47-62.48-4.36-7.9-9.37-10.76-14.43-17.18-7.62-9.68-7.64-17.78-21.3-21.2-20.41-5.11-46.84-3.8-68.2-4.82-16.14-.77-32.82-5.23-48.45,1.06,5.55,5.69,15.86,2.52,23.31,3.38,13.87,1.6,17.62,10.43,28.25,16.43,6.15,3.47,16.41,5.52,21.35,10.26,3.76,3.61,4.57,9.91,7.14,12.48,2.99,2.99,10.21,4.1,14.21,7.58,4.68,4.06,7.78,10.89,13.11,15.23,4.28,3.48,9.36,5.02,13.73,8.06,13.77,9.59,17.76,32.89,28.41,45.7l4.13,11.65ZM920.56,385.42c-1.31-.97-2.07-3.04-4.68-4.59-10.44-6.17-17.99-2.84-28.46-4.23-3.7-.49-9.1-4.09-10.97-4.18-2.19-.1-9.51,3.2-11.8,4.49-7.22,4.08-26.91,23.93-32.34,30.87-2.71,3.47-4.13,7.85-6.57,10.87-12.42,15.41-33.5,33.53-41.16,51.48-4.41,10.33-13.51,39.27-14.41,49.89-.44,5.2.68,11.29-.09,16.26-1.8,11.68-6.89,17.26-5.27,31.56,1.19,10.55,12.08,48.9,16.52,58.68,6.63,14.6,19.15,38.51,29.67,49.89,8.66,9.36,16.6,12.58,25.64,20.14,10.48,8.76,16.8,16.6,29.5,23.9,26.08,14.99,40.05,15.74,69.13,11.55,7.58-1.09,10.32,1.39,17.9-3.9,14.28-9.98,27.83-40.49,19.21-57.22-.48-.92-6.22-9.3-6.64-9.71-3.83-3.78-17.2-1.76-22.87-2.2-9.03-.71-10.42-4.82-20.93.85-2.15,1.16-3.65,3.77-5.46,4.35s-3.91-.1-5.77.77c-1.21.57-8.17,12.1-8.92,13.97-2.34,5.83-1.69,17.43-9.31,19.07-4.97,1.07-8.14-1.97-12.83-2.06-3.06-.06-5.6,1.21-8.55,1.11-8.33-.28-20.55-3.65-27.22-8.84-2.62-2.04-4.94-5.97-6.25-6.82-1.74-1.13-3.58-.44-6-2.72-2.8-2.64-5.97-11.55-9.21-15.85-5.97-7.92-18.27-14.31-22.01-21.59-.99-1.93-.93-5.33-1.85-6.62-.75-1.05-2.84-.8-3.93-1.72-5.76-4.83-5.86-30.39-8.66-39.33-1.25-3.98-4.24-7.08-5.47-10.87-5.08-15.67,2.43-26.98,3.81-40.85.66-6.64-1.81-12.86-1.09-19.64.61-5.74,4.14-9.88,3.36-16.37-.33-2.78-4.54-2.27-4.45-5.41,6.46-1.23,2.69-13.12,3.27-13.62.26-.23,2.29.43,3.01-.19.77-.67,1.69-7.17,5.65-10.22,1.99-1.53,5.79-2.25,6.35-2.92.69-.82.74-3.83,1.61-5.46,4.92-9.25,22.08-32.64,29.17-40.59,3.65-4.09,10.1-6.53,12.71-9.62,1.98-2.34,3.21-7.53,5.32-10.49,3.73-5.23,10-7.23,13.08-10.9,1.55-1.85,2.5-6.28,2.79-6.48,1.77-1.2,6.62,1.94,8.05-3.4l1.58.05.65,2.19c4.86-1.27,10.11-3.44,15.2-3.43,9.1.03,35.35,11.6,42.98,17.05,7.08,5.06,10.15,13,18.6,19,10.46,7.44,32.93,17.31,40.92,26.11,7.38,8.12,15.23,24.2,21.82,33.76,2.57,3.72,6.54,5.95,9,10.62,2.85,5.42,2.87,12.43,7.28,16.68,5.03-3.61,1.1-4.29-.02-7.6-3.76-11.1-6.81-13.9-11.62-23.25-4.29-8.35-8.38-21.54-15.08-28.52-4.01-4.18-11.84-6.48-16.86-10.39-6.14-4.79-11.18-14.14-16.97-17.91-3.44-2.24-7.43-2.36-10.88-5.47-3.71-3.33-3.47-6.68-6.04-10.31-5.23-7.41-16.74-8.67-24.14-12.92-2.59-1.49-6.32-4.77-9.03-6.77ZM867.16,395.22c9.16.83,15.68-6.29,25.1-3.83,1.1.29,20.41,11.55,18.49,3.31-.64-2.76-20.06-6.18-23.42-6.11-3.1.07-13.24,3.02-16.68,4.13-1.4.45-3.19.76-3.49,2.5ZM920.56,399.59c-.97-.49-7.22-4.88-7.62-4.36-1.24,4.55,3.28,3.49,5.44,5.45,5.03,4.56,8.58,19.64,19.6,10.35-4.7-6.75-10.72-8.08-17.42-11.44ZM951.07,425.74c-1.42-1.93-10.55-12.12-11.99-11.45-1.83.85.88,4,1.47,4.54,2.92,2.7,7.1,3.66,9.43,8.01,3.47,6.47-.03,10.25,1.57,15.31,1,3.18,4.96,5.02,6.52,7.66.69,1.17,2.3,10.7,5,8.11,5.43-6.71-7.71-16.51-6.41-21.58,1.7-6.63,7.51.71,10.24,1.38,1.87.45,5.89.91,4.87-2.14l-20.7-9.83ZM860.61,415.95c-4.28-.14-10.13-.57-13.07,3.25l13.07-3.25ZM835.55,430.11c-2.26-2.28-10.32,12.49-11.53,14.07-6.83,8.87-27.89,28.04-17.9,39.89,8.93,10.59,24.88.66,32.72-6.54,3.38-3.11,5.24-6.81,8.81-9.72,9.15-7.46,18.65-6.12,24.08-19.51,3.52-8.68,4.23-25.58-7.54-27.74-23.62-4.32-26.86,17.87-38.44,31.89-4.47,5.41-15.2,13.15-16.28,20.8-1.37,9.6,4.65,7.46,10.83,10.83.57,2.52-2.29,1.74-3.84,1.67-4.44-.21-9.06-2.74-10.09-7.37-3.34-15.01,26.23-33.05,29.2-48.26ZM835.55,427.92l1.09,1.09,2.18-3.26c-1.39-.35-3.07.62-3.27,2.17ZM983.77,444.27c-3.14-2.38-6.16-4.9-9.8-6.54l8.71,7.63c2.29.15,8.71,14.44,10.89,11.98.78-6.32-5.5-9.82-9.8-13.07ZM799.59,476.98c-6.86-.54-13.81,23.02-11.98,25.05,11.7-1.97,5.47-17.87,11.98-25.05ZM992.49,636.07c2.91.24,13.62,9.26,14.25,1.63s-8.6-5.03-12.65-3.81c-1.55.46-1.92-.68-1.6,2.19ZM1177.76,693.85c.8-2.93,2.36-3.19,2.09-8.01-.56-10.06-6.97-26.6-15.89-32.14-10.01-6.22-39.77-4.7-50.98-1.2-2.52.79-3.15,2.62-5.45,3.05-3.79.7-7.82-2.13-11.51-2.01,2.06,2.5,9.11,6.57,2.74,8.72-1.57-2.43-4.13-6.11-6.52-7.67-5.52-3.61-12.71-2.42-19.33-3.56-8.44-1.46-18.82-7.2-26.54-7.34-10.48-.19-23.88,4.59-34.26,6.59.1,1.84,8.28,3.57,5.44,6.52-1.23,1.28-15.01-7.99-18.52-6.52l.54,5.42c-6.07-5.16-15.82-10.38-23.93-10.91-8.81-.58-17.29,3.24-26.22,4.38-10.08,1.29-15.2-.48-25.59,4.38-4.09,1.91-8.48,4.83-10.9,8.71,5.33-.56,7.52-5.85,13.08-7.62,8.54-2.72,10.52,1.09,14.71,1.09h20.71c7,0,15.97,16.08,16.8,22.43,2.77,21.06-9.82,39.69-23.88,53.84,13.61.91,27.49-4.46,40.89-5.42,7.64-.55,14.39,1.33,21.83,1.11,9.77-.29,20.72-3.79,30.42-4.44,12.34-.83,24.85,2.26,37.08,1.11,8.45-.79,17.35-4.74,26.19-5.41s16.87,1.59,24.92.93,23.81-3.75,30.42-7.71c8.34-4.99,9.33-9.7,11.66-18.31Z"/>
    <path class="st1" d="M950.92,267.82c-13.85,1.92-10.18,15.51-.09,20.31,9.71,4.62,17.31,2.87,24.7,13.44,7.38,10.56,6.54,27.84-6.78,32.32-16.54,5.56-36.33,3.74-52.55-1.88l-1.74,5.41c-17.93-5.27-37.77.5-54.93,6.57-3.5-9.24,11.55-16.53,10.9-23.32-3.23-8.84-7.86-17.36-10.92-26.24-2.42-7.03-5.91-27.39-10.48-30.94s-15.67-4.87-20.8-7.53c-4.07-2.11-2.71-3.49.52-5.42,4.45-2.66,31.32-12.35,36.22-12.92,3.09-.36,5.07.77,6.99.55,4.32-.48,20.21-7.27,19.25.64-.31,2.54-10.93,8.19-12.01,14.24-.75,4.2,1.48,12.58,2.46,17.06,2.46,11.29,6.56,25.73,10.04,36.82,1.48,4.71,3.25,11.66,7.14,14.66.92.7,11.75,6.89,12.49,7.13.55.18,1.78.3,1.61-.52-6.2-4.08-20.93-23.24-11.22-28.94,11.48-6.73,23.3,16.29,35.2,15.31,1.67-14.27-12.95-13.68-19.53-19.15-20.47-17.02-19.49-58.98,12.47-61.48,18.69-1.46,51.72,4.81,52.59,28.12.27,7.28-6.35,29.16-16.07,24.7l-15.44-18.95ZM970.57,282.84c.5-.29,5.24-8.9,5.64-10.15,6.92-21.4-6.92-28.11-24.92-31.9-13.64-2.87-29.86-5.69-38.58,7.64-7.25,11.08-6.1,20-.58,31.53,5.85,12.23,10.1,11.16,19.9,17.15,11,6.73,15.09,27-2.27,20.79-5.44-1.94-21.61-17.83-25.44-15.21-7.05,4.83,12.12,25.49,18.58,27.52,5.51,1.73,20.6,3.15,26.58,2.93,12.87-.46,29.27-4.36,26.2-20.79-3.43-18.31-22.71-14.8-31.71-22.83-2.6-2.32-7.25-11.19-7.03-14.66.47-7.35,13.11-15.05,18.54-8.79.79.91.72,2.63,1.43,3.43,3.69,4.2,7.96,7.72,10.48,12.94.85.62,2.32.89,3.17.39ZM879.14,241.56c-15.12.9-29.64,5.37-43.59,10.91l13.11,5.94c10.78,5.19,10.59,20.95,14.11,31.66s9.03,21.31,12.91,31.87c.82,5.13-8.66,10.44-10.72,15.51,13.29-4.36,27.38-6.6,41.41-6.54l-13.59-8.73c-5.85-16.79-12.77-36.12-16.19-53.56-2.28-11.61-4.59-17.21,4.72-25.98,1-.94,3-1.55,3.27-3.26l-5.45,2.17ZM914.56,329.84v1.09c.71-.36.71-.73,0-1.09Z"/>
    <path class="st22" d="M1094.93,393.05c-2.98,8.48-7.3,18.04-11.8,25.8-1.91,3.3-6.6,12.56-10.55,12.27-12.25-5.58-18.51-21.19-18.87-34.01,15.13-13.4,26.47-29.36,39.06-44.89,3.22-3.97,7.61-7.92,10.87-12.01,9.41-11.81,13.03-27.98,28.9-7.11,15.29,20.11-6.17,30.34-13.41,46.58-4.8,10.79-5.57,23.57-6.77,35.18,14.76-11.76,16.99-33.29,25.62-49.02,17.97-32.73,40.18,34.55,30.48,47.92-21.95,13.06-39.99,31.29-59.96,46.85-7.72,6.02-23.42,19.08-27.08,2.06-3.09-14.38,9.89-51.89,14.57-67.42.92-3.06,2.99-6.02,2.17-9.8-2.65.92-2.59,5.73-3.26,7.62ZM1117.52,327.82c-2.97.81-8.82,11.89-11.24,15-12.74,16.38-27.94,35.58-42.38,50.26-2.11,2.15-5.51,2.86-6.04,6.02,1.22,9.99,5.23,22.52,14.75,27.47,1.98-.15,7.41-10.4,8.73-12.78,3.24-5.87,13.14-31.92,15.22-33.82,1.83-1.66,5.16-1.75,5.91.72.39,1.28-1.1,8.19-1.5,10.23-3.46,17.61-19.06,55.52-15.61,71.11,2.06,9.3,10.19,3.46,14.93.14,19.35-13.55,37.98-32.28,57.95-46.68,1.89-1.37,5.17-2.14,6.41-3.39,7.56-7.64-4.4-41.56-11.03-48.85-4.35-4.78-7.94-1.59-10.95,2.9-7.06,10.51-17.45,52.81-31.06,54.02-4.89.43-2.7-12.61-2.39-15.53,1.06-10.07,3.65-22.79,8.78-31.54,4.31-7.34,15.49-16.67,16.11-25.39.46-6.53-9.8-21.72-16.61-19.87Z"/>
    <path class="st26" d="M1158.14,808.29c-20.79-7.74-44.45,6.53-64.51-1.43-6-2.38-14.69-14.7-17.67-20.47-1.91-3.7-4-6.49-2.59-11.13,2.37-7.8,23.93-13.53,31.3-17.75,5.75-3.29,21.75-17.85,24.85-18.75,7.27-2.13,20.96,5.22,25.37,11.22,14.24,19.39-7.92,33.98-26.44,30.8-3.79-.65-19.67-9.94-21.43-4.51-1.94,5.96,8.11,8.79,12.41,9.18,24.84,2.24,46.33-16.73,69.17,3.85,5.07,4.57,10.88,14.53,7.06,21.08-.82,1.42-16.49,16-18.96,18.09-13.22,11.18-44.21,25.06-61.52,22.26-2.36-.38-4.65-1.94-6.79-3.02-6.47-3.26-18.7-14.35-16.22-22.04,1.39-4.31,19.06-13.33,23.69-14.45,12.01-2.92,22.12,4.02,34.16,2.55,1.89-.23,9.97-2.93,8.14-5.46ZM1132.71,742.07c-3.46.56-16.61,12.98-21.08,15.89-6.79,4.42-33.89,13.93-34.97,19.39-.86,4.35,13.47,24.18,18.25,26.05,16.15,6.3,39.75-4.24,58.93-.08,13.36,2.89,8.22,12.12-2.18,14.29-11.5,2.41-21.27-4.46-29.91-3.84-3.54.25-23.62,9.38-25.19,11.95-4.63,7.57,14.64,21.1,21.93,21.75,9.78.88,33.64-7.86,42.55-12.85,12.1-6.77,19.71-16.8,30.41-25.16,6.16-7.57-7.08-19.35-13.36-22.78-19.18-10.49-46.37,9.45-66.5,1.11-11.73-4.86-13.09-18.88,3.23-16.3,6.85,1.09,12.47,6.62,19.82,6.3,14.3-.62,27.23-11.23,16.94-25.64-2.93-4.1-14.28-10.83-18.88-10.09Z"/>
    <path class="st26" d="M1012.37,809.1c7.06,6.79,16.24-11.56,25.9-.29,4.66,5.43,5.33,10.75,1.52,16.81-5.59,8.9-11.72,4.41-19.04,7.16-9.46,3.56,3.16,18.26,12.59,11.47,4.77-3.44,10.27-17.3,15.84-23.4,9.07-9.91,13.12-12.87,21.13-.49,8.48,13.1,9.44,19.82-.49,32.03-10.82,13.31-33.87,25.97-50.34,30.31-12.86,3.39-17.16.77-21.24-12.07-4.33-13.63-14.14-47.75-15.44-60.85-.71-7.12-.62-13.66,4.94-18.77,6.06-5.58,30.36-21.31,37.95-24.17,20.43-7.68,25.48-1.71,33.85,16.32,3.55,7.64,3.01,13.46-4.58,18.4-14.21,9.24-22.47-4.23-36.82-1.93-4.22.68-9.34,6.06-5.79,9.47ZM1034.69,826.49c5.03-4.11,4.23-12.71-.84-16.57-4.72-3.6-8.78,2.68-12.7,3.58-17.59,4.06-17.85-15.84-1.67-18.06,8.38-1.15,15.1,4.75,22.55,5.28,8.64.61,18.03-4.12,15-13.93-.63-2.04-8.17-15.18-9.59-16.57-8.74-8.58-27.91,4.03-36.33,9.27-7.17,4.46-24.35,14.53-25.11,22.94-.93,10.36,9.29,39.9,12.49,51.62,1.64,6.01,3.36,22.92,9.27,25.6,7.36,3.33,32.66-9.07,39.95-13.42,6.81-4.05,21.69-16.2,24.59-23.35,3.01-7.39-4.49-23.08-11.54-26.88-11.51,6.06-15.03,19.25-22.03,28.17-9.91,12.62-29.07,1.61-23.87-10.8,3.3-7.87,15.92-3.69,19.82-6.88Z"/>
    <path class="st15" d="M769.86,723.52c6.18-1.28,15.66.81,21.59,2.98,9.31,3.4,26.02,15.76,25.47,26.57-.78,15.36-8.61,27.05-24.55,28.93-6.84.81-16.22-3.38-19.91,2.97-3.29,5.65,4.03,11.49,6.16,17.55,6.5,18.45-3.44,44.37-22.06,51.57-18.68,7.22-23.21-8.8-34.92-17.48-6.6-4.89-20.35-10.61-25.64-16.87-3.46-4.09-3.98-15.58-3.18-20.67,2.55-16.16,34.71-36.67,46.81-48.01,6.57-6.15,22.62-25.99,30.2-27.55ZM807.92,743.28c-7.45-8.46-24.64-17.44-36.06-15.58-7.43,1.21-21.72,19.77-27.84,25.56-11.71,11.1-44.08,32.15-46.62,47.11-.66,3.88-.55,12.12,1.43,15.49.72,1.22,12.04,9.18,14.31,10.76,4.06,2.82,8.45,4.28,12.85,7.86,12.03,9.77,17.02,25.24,35.38,11.34,11.59-8.77,17.47-28.53,12.9-42.18-2.61-7.81-10.43-10.56-6.56-20.13,4.3-10.62,16.2-4.83,24.5-6.02,9.9-1.41,16.1-6.72,18.59-16.28,2-7.65,2.44-11.86-2.9-17.92Z"/>
    <path class="st1" d="M689.8,443.99c1.14,1.22,5.84,2.81,7.67,2.32,2.05-.59,5.38-6.99,7.43-9.01,14.95-14.71,43.95-14.45,58.35.81,14.02,14.87-.5,26.69-5.12,41.52-2.11,6.76-4.93,26.04-9.81,30.52-2.35,2.15-13.73,6.85-17,7.07-17.28,1.15-46.97-22.9-62.86-31.72-12.22-6.78-33.55-11.34-35.49-27.73-1.52-12.89.53-26.01,7.28-37.16,4.37-7.22,13.63-9.05,21.48-9.13,12.23-.12,20.73,9.48,24.58,20.19,1.13,3.15,1.51,10.18,3.5,12.31ZM686.61,447.17c-4.95-5.03-2.84-17.67-11.82-25.78-7.46-6.74-25.86-6.94-31.28,2.5-5.6,9.76-7.74,22.79-6.22,33.91,1.79,13.2,22.13,17.71,32.26,23.33,15,8.32,45.81,32.5,61.65,31.54,2.75-.17,12.67-4.31,14.4-6.31,4.2-4.84,6.94-24.61,9.56-31.85,3.93-10.89,15.37-20.88,5.65-32.33-11.8-13.9-39.68-14.36-52.66-1.6-5.06,4.98-5.16,11.62-14.56,10.01-1.85-.32-5.68-2.09-6.98-3.41Z"/>
    <path class="st1" d="M763.62,287.88c.99-5.96,8.62-18.41,15.78-18.06,14.95.72,8.16,24.64,8.42,34.41.52,19.85,17.6,40.72,35.5,48.2,5.5,2.3,11.3,1.68,15.51,5.24-2.95,5.62-9.04,7.84-13.64,12.49-3.33,3.36-12.59,18.49-13.59,19.1-7.61,4.67-4.74-12.93-7.16-17.94-2.77-5.75-27.47-31.18-33.26-35.4-16.72-12.17-29.96-4.47-47.26-7.23-9.51-1.51-8.95-18.15-2.75-23.32,7.21-6.02,19.74-5.92,28.31-3.33,5.79,1.75,8.43,5.94,14.15,7.1.76-6.49-1.03-15.07,0-21.25ZM782.98,275.61c-6.22-6.3-14.18,9.27-14.9,14.54-.55,4.05.95,21.75-1.34,23.18-5.04,3.15-16.75-6.84-22.67-8.08-5.43-1.14-17.22-.45-20.83,4.37-2.54,3.4-3.67,13.78,1.69,14.77,14.17,2.62,25.85-3.83,41.28,3.4,8.69,4.07,39.59,33.94,42.59,42.41,1.21,3.41.19,7.61,2.22,10.85l10.89-14.18,9.27-7.6c-22.93-4-47.64-30.43-47.99-54.02-.08-5.71,3.39-25.98-.23-29.64Z"/>
    <path class="st1" d="M1051.34,355.99l10.88,19.1c-2.41,2.94-12.41,16.66-15.64,15.71-4.32-7.91-7.12-12.78-13.75-19.03-15.92-14.99-38.36-22.01-51.8-39.83l12.59-77.92-1.13-8.11c1.19-.11,2.15-.67,3.41-.54,6.99.74,32.65,10.22,39.51,13.75,20.93,10.77-8.56,9.34-11.15,13.65-2.9,12.89-8.62,25.76-11.62,38.51-3.51,14.96-6.19,21.95,7.61,31.65,8.94,6.28,20.97,8.7,31.09,13.05ZM1033.9,263.37l-35.95-13.09-12,80.06c13.81,17.77,36.4,24.76,52.34,40.34l10.31,13.64,8.17-10.31c-5.82-19.83-27.24-17.82-41.32-28.44-13.14-9.92-10.73-20.03-7.38-34.48,3.32-14.34,10.35-28.5,12.97-43.14.89-1.26,8.91-1.66,11.28-2.37,1.57-.47,1.9.61,1.58-2.2Z"/>
    <path class="st1" d="M948.06,791.09c-5.05,22.79-10.5,50.9-7.77,74.28.52,4.5,7.63,19.15,7.05,20.28-2.01,3.89-16.65,3.65-20.78,3.26-3.43-.32-25.21-5.15-27.04-6.46-5.71-4.08,5.77-9.48,8.18-13.47,5.17-8.55,12.82-56.07,13.8-67.93.22-2.61,1.25-10.15-1.67-11.12-7.16-2.27-30.3-2.38-31.8-10.79-1.02-5.72,5.77-12.92,11.24-13.38,9.48-.8,18.94,1.72,28.32,2.25,10.1.56,40.82-.53,48.03,5.37,2.24,1.84,4.06,6.48,3.79,9.28-.77,7.99-25.71,5.98-31.35,8.44ZM975.06,783.21c-.15-2.54-.54-6.17-2.94-7.41-2.84-1.47-21.42-3.13-25.95-3.47-6.13-.46-12.43.4-18.56.03-10.91-.65-33.29-8.67-35.29,6.9,3.87,4.02,33.6,5.51,34.61,10.04-3.19,20-5.21,41.51-9.26,61.3-1.11,5.4-4.3,19.14-7.53,22.99-1.73,2.06-6.2,3.08-5.91,6.61,13.01,1.37,24.8,6.57,38.13,4.36-14.58-30.81-1.91-66,1.09-98.09l31.62-3.27Z"/>
    <path class="st1" d="M723.02,385.14c-9.37,8.89-21.42-13.15-20.22-21.77,1.72-12.4,19.97-23.75,31.82-23.6,18.66.23,50.74,27.43,61.05,42.48,10.49,15.31,1.34,13.96-7.44,25.06-4.6,5.82-8.69,16.89-12.6,21.18-4.4,4.83-19.39-.95-24.75-3.63-13.61-6.8-22.96-21.64-15.4-36.51,2.99-5.88,15.27-12.49,6.9-20.38-14.51-13.69-15.4,13.42-19.36,17.18ZM745.91,385.15c-3.14,3.23-6.79,1.38-8.18,9.79-1.52,9.14,1.13,15.23,7.93,20.97,4.55,3.84,22.42,13.05,27.24,8.75,1.27-1.14,7.58-14.13,9.89-17.35,3.97-5.52,8.84-9.96,13.35-14.97.86-4.53-19.05-23.99-23.28-27.61-11.46-9.79-28.65-22.09-44.39-19.39-7.84,1.34-22.06,12.28-21.48,20.93.3,4.43,6.73,17.17,12.39,15.95,2.9-.63,2.36-26.9,19.99-21.04,6.54,2.18,10.87,7.64,9.85,14.69-.18,1.28-2.68,8.65-3.3,9.28Z"/>
    <path class="st13" d="M1174.22,421.62c6.06-1.66,12.1,10.6,14.46,15.55,14.28,30,13.41,67.36-17.54,86.03-8.44,5.09-32.23,16.08-41.39,13.22-5.42-1.69-18.21-17.54-21.98-22.7-4.85-6.65-17.3-23.68-14.81-31.65,25.94-21.69,54.04-40.44,81.25-60.45ZM1175.22,425.85l-77.99,58.39c-1.51,4.62,11,22.42,14.26,26.85,2.93,4,7.26,9.93,10.65,13.33,1.06,1.06,8.96,7.75,9.55,7.92,6.78,2.03,32.24-9.96,38.8-14.16,27.33-17.47,27.24-53.47,14.01-80.1-1-2.02-7.63-12.48-9.27-12.24Z"/>
    <path class="st15" d="M1051.34,355.99c-3.62-2.73-6.58-5.08-10.55-7.43-8.83-5.24-12.12-2.85-9.9-16.83,2.75-17.26,20.67-34.17,38.62-26.06,6.01,2.72,7.03,8.79,14.04,8.97,5.93.15,9.98-6.69,7.55-12.03s-14.06-4.81-17.92-8.23c-8.06-7.12,7.73-17.89,14.74-18.96,16.66-2.55,29.51,18.18,27.63,33.08s-24.99,43.64-37.52,52.92c-15.93,11.81-12.19,5.16-23.96-4.38-.96-.78-2.33-.76-2.72-1.05ZM1088.11,279.97c-4.23.81-12.09,5.08-12.71,9.98.92,4.02,18.84,2.29,20.57,13.26,1.95,12.41-10.3,20.38-21.05,13.41-4.12-2.67-3.32-6.61-10.43-8.09-10.84-2.26-17.99,2.69-23.41,11.59-2.74,4.5-8.7,17.74-4.52,21.78,11.13,5.28,22.02,11.76,29.63,21.57,16.12-7.74,41.84-36.61,44.59-54.28,1.96-12.56-7.96-32.05-22.68-29.22Z"/>
    <path class="st22" d="M821.6,763.41l.81-4.78c2.31-1.63,27.19,3.31,31.71,4.38,4.94,1.18,21.34,4.98,22.71,10.04,1.26,4.66-7.88,4.47-11.19,5.91-6.91,3.01-8.34,12.62-10.15,19.27-2.3,8.43-7.42,26.67-7.92,34.58-.69,10.93,6.52,16.72,10.79,26.26l-1.71,2.48-53.69-15.8c-1.38-4.11,6.5-8,9.7-9.7,4.19-2.23,8.68-3.75,13.1-5.42l.94-1.24c1.14-8.3,1.05-17.76,2.44-25.9,1.15-6.75,6.06-18.17,5.41-24.11-.5-4.54-9-13.64-12.94-15.97ZM868.24,773.42c-12.41-5.7-25.53-9.05-39.23-9.81,2.74,5.6,9.42,9.06,9.88,15.81.43,6.34-4.04,15.54-5.24,22.06-1.11,6.02-1.82,30.34-5.09,33.05-1.84,1.52-14.04,4.79-18.47,7.69-1.35.88-2.48,1.28-.71,2.59l41.42,11.42c.63-6.63-6.61-10.42-7.57-16.96-1-6.8,8.66-45.8,11.73-53.52,1.03-2.6,2.68-5.08,3.8-7.65l9.47-4.67Z"/>
    <path class="st21" d="M1188.61,652.37l-8.68-.5,6.57-52.83c9.49.42,21.73-2.75,26.57,7.74,3.84,8.3,1.68,18.17-6.91,22.29-5.62,2.7-9.69.42-14.85,2.59l-2.71,20.72ZM1191.93,624.1c17.57,2.98,21.81-19.48,2.34-17.28l-2.34,17.28Z"/>
    <path class="st21" d="M610,632.87l-2.22,20.66h-8.72s5.92-51.3,5.92-51.3c14.12-3.44,29.9-1.28,27.89,16.99-1.26,11.43-13.12,13.86-22.86,13.65ZM611.04,625.19c17.49,3.38,20.25-19.53,1.09-16.36l-1.09,16.36Z"/>
    <path class="st19" d="M1006.66,631.72c-1.29-1.05-1.32-3.08-4.36-2.18,11.13-3.39,24.81-9.6,32.26-18.5,1.87-6.75-16.8-13.5-21.89-15.31-19-6.74-40.64-9.3-60.5-11.96,3.19,4.49,10.17,9.73,11.53,15.25,1.41,5.69-6.79,15.83-9.55,21.05-2.02,3.82-3.64,14.46-9.08,14.92-1.73.15-3.64-1.09-5.48-1.15-2.99-.1-5.63,2.45-7.57-1.04-3.43-7.42,4.34-16,2.51-22.1-.92-3.07-8.98-8.83-11.78-10.59.18-.49-.21-1.47.05-2.15,1.04.89,2.03-.07,2.13-.03,3.07,1.27,6.79,7.06,10.37,8.71l1.63-4.35c4.74,2.11.66,5.75.23,8.42-.38,2.38-.02,4.8-.5,7.13-.88,4.23-5.84,10.98-.85,13.88l3.27-7.63,1.09,7.62c1.24-2-.53-9.43,3.28-8.71l.54,9.8c5.53-2.16,4.88-7.55,6.88-11.65,2.47-5.06,9.95-14.92,10.11-19.44.22-5.98-8.75-14.22-13.17-17.95l3.25.56c-1.16-1.01-1.38-2.62-2.16-3.83,23.25,3.13,48.98,5.65,70.8,14.75,24.49,10.21,22.45,18.17.77,30.12-4.49,2.47-9.28,4.05-13.81,6.35Z"/>
    <path class="st21" d="M760.36,620.83l-3.27,31.61c-3.32-.55-8.18,1.84-9.26-2.19-24.43,15.62-32.14-29.22-7.6-30.56,5.6-.31,7.51,2.77,9.98,3.12,1.01.14,7.02-3.73,10.14-1.98ZM740.44,626.46c-10.41,2.16-10.07,21.72,1.82,20.51,11.53-1.17,11.59-23.29-1.82-20.51Z"/>
    <polygon class="st3" points="685.15 620.83 666.62 644.8 684.06 644.8 682.97 652.43 650.28 652.43 669.89 628.99 655.72 628.46 655.73 620.83 685.15 620.83"/>
    <polygon class="st3" points="721.12 620.83 702.59 644.8 720.03 644.8 718.94 652.43 686.24 652.43 705.85 628.99 691.69 628.46 691.69 620.83 721.12 620.83"/>
    <path class="st21" d="M1225.56,652.28l-7.48.16,6.75-57.01,1.57-1.7c1.79-.37,6.27-.72,6.82,1.58l-7.66,56.98Z"/>
    <path class="st19" d="M945.63,577.23c-1.38-1.47-2.37-2.45-3.27-4.36.63-.33,3.12-2.37,3.23-2.82l-3.78-9.17-4.9,3.27c.06-.89-.09-1.93-1.09-2.18,3.45-9.65,4.52-19.31,4.93-29.48-6.85-4.42-15.36-6.12-23.46-5.39v-1.09c4.08.59,7.34-.99,9.81-1.09,17.33-.72,48.37,26.49,28.71,43.42-4.15,3.58-12.79,2.85-10.18,8.89ZM942.37,540.18c3.97-1.69,4.78-6.4,0-6.53v6.53ZM946.84,538.13c-2.3,4.29-6.87,11.93-6.59,16.83.14,2.45,2.75,3.07,3.67,4.9,2.22,4.4,2.15,12.7,9.89,6.48,9.68-7.79,4.63-26.08-6.98-28.21Z"/>
    <polygon class="st21" points="648.1 620.83 644.67 651.73 643.04 653.37 636.11 653.52 639.53 622.61 641.16 620.98 648.1 620.83"/>
    <path class="st26" d="M998.89,487.71c-1.92.54-4.46.47-5.15-1.63l-.15-16.73c10.34.5,9.18,11.5,5.31,18.36ZM997.93,483.51c.19-2.6,2.36-7.34-1.07-8.72,1.39,2.53-3.34,9.61,1.07,8.72Z"/>
    <path class="st23" d="M644.52,602.45c6.01-1.68,7.95,6.98,2.8,8.41-6.01,1.68-7.95-6.98-2.8-8.41Z"/>
    <path class="st20" d="M1096.02,395.23l-1.09-2.18c.66-1.89.61-6.7,3.26-7.62.82,3.78-1.25,6.74-2.17,9.8Z"/>
    <path class="st0" d="M976.14,637.17c10.77-1.68,9.77-2.3,19.24,2.58.38.19.55,1.49,1.75,2.08,9.18,4.54,8.37-1.75,14.37-2.54,3.02-.4,8.76-.15,11.93.18,1.95.2,7.32,1.14,8.29,3.14-8.19.02-18.88,5.79-26.62,5.39-7.56-.39-14.07-3.19-21.09-5.07-13.55-3.62-14.34-.41-26.11,1.61-10.09,1.73-20.26.35-30.01,3.77-11.83,4.15-23.98,17.59-28.57,29.2-1.64,4.15-2.97,16.08-6.77,17.23-4.24,1.29-7.79-1.74-11.79-2.03-3.7-.26-6.54,1.23-9.73,1.17-6.29-.13-19.69-4.16-24.94-7.85-9.39-6.61-1.62-9.17-4.82-16.98-1.65-4.02-9.58-8.16-7.88-4.1,1.25,2.99,7.93,5.93,5.43,12.55-6.82.99-8.4-8.36-11.53-12.99-7.18-10.63-13.58-12.57-21.04-20.37-7.74-8.08-2.76-13.97-3.39-22.75-.43-6.04-4.05-12.64-3.28-19.09-6.45.94-.53,13.23-.13,18.11.3,3.69.27,6.7-.97,10.22-1.97.39-2.77-.92-3.51-2.47-3.27-6.78-3.12-24.83-5.52-33.71-2.85-10.55-7.84-11.66-7.35-25.44.21-5.88,3.63-27.14,5.52-32.35.49-1.34,2.75-1.62,3.84-2.93,5.22-6.26,2.43-13.33,5.44-18.56,2.14-3.72,7.21-1.3,10.63-3.27,2.58-1.48,4.95-9.46.77-10.96l-2.37,8.53c-5.76.12-9.98-.64-12.37,5.61-2.11,5.51.44,16.66-7.05,16.37-2.81-9.17,4.23-16.92,2.1-26.58,10.83-2.14,9.14-14.89,10.97-23.56l7.94,7.86c24.8,11.81,36.04-21.53,56.84-26.36,1.79.41,2.19,7.84,6.52,6.48,2.23-.69,2.32-6.48,3.43-8.61.31-.59,7.49-7.83,1.19-5.35-3.69,1.45-5.26,7.04-5.09,10.72-7.14-5.5,2.95-12.1,5.16-19.38,1.6-5.27,1.6-10.02,1.41-15.49,2.57,1.57,2.05,5.82,4.29,8.22,1.04,1.11,1.98,1.98,3.64,1.46,7.36-2.79-.02-14.05,8.33-14.13l.06-3.19c-8.34,1.62-5.74,6.63-7.68,13.04-4.91,1.35-2.68-3.66-5.35-7.08-1.04-1.33-3.26-1.91-4.44-3.19-7.78-8.45-12.64-16.64-26.1-12.59-2.61-2.42,12.51-14.27,14.95-15.01,2.05-.63,4.62-.06,6.91-.72,3.93-1.14,13.43-4.81,16.68-4.63,4.82.28,11.16,6.14,15.65,7.05,3.58.72,7.49-.56,10.94,1.04,4.59,2.13,5.56,12.58,14.67,14.86,2.89.72,5.39-1.48,7.38,1.24-6.78.66-15.15,1.72-16.27,9.88-.55,4.02,1.5,14.58-2.22,16.33-8.38-1.08-1.98-10.64-2.22-15.86-4.97,2.36-5.2,9.86-4.12,14.49.72,3.08,3.89,5.53,4.03,10.13.15,4.99-3.31,11.2-3.19,16.2.14,6.21,5.17,13.17,3.3,20.2-4.85.63-6.63-4.97-7.64-8.71-1.95-.11-2.3-.52-2.2,1.64.29,6.1,5.53,8.17,6.94,12.7,1.34,4.29.12,8.64,1.23,12.93s6.75,8.64,8.07,14.83c.43,2.04-4.64,2.27-6.41,2.57-2.14.37-4.4.36-6.53,1.09-.3-.34.79-8.11,1.11-8.98.6-1.66,4.11-1.16,3.24-4.63l-2.15-1.65-2.19,3.27c-.12-4.77-6.09-8.61-10.37-8.58-1.15,0-16.52,3.44-17.69,3.96-.74.33-12.13,8.32-12.81,8.99-4.5,4.43-2.79,5.64-.56,10.88-2.21.47-6.68-1.8-9.38-2.06-19.18-1.86-47.23,11.99-48.1,33.41-.22,5.37,3.13,6.42-1.37,11.15-1.33,1.4-3.7,1.26-2.86,4.39,1.05,3.87,4.41,3.2,6.13,4.33,2.23,1.47,4.83,12.19,6.73,15.61,5.22,9.4,16.89,14.95,27.05,17.09,3.72.78,7.71.8,10.9,2.18-.03,1.09.76,3.11,1.09,4.36,1.49,5.61,3.02,6.43,6.6,10.31.53.57,1.91.38,2.12.59,1.43,1.44,3.67,10.43,6.41,12.69l-2.43,2.43c-4.3-1.31-6.64-6.51-10.11-8.45-2.02-1.13-5.03-1.01-6.5-2.22-2.22-1.83-1.59-8.14-5.37-9.89-1.59-.3-1.96.02-1.64,1.64.15.75,4.19,10.76,4.62,11.18,1.22,1.18,5.53,1.34,7.79,2.57,4.07,2.23,8.62,11.82,14.38,7.57,6.08-4.49-2.29-12.71-1.71-13.15,9.6,2.27,19.08,5.59,29.02,6.39,28.3,2.27,47.06.06,74.51-4.22ZM885.43,409.13c1.79-2.25.97-7.66-1.39-9.54-3.4-1.79-.23,6.21-.53,6.52-7.81-2.64-8.9-1.04-12.54,5.45l-5.97-4.35c4.19,16.57,9.96,1.88,12.73,1.2,2.37-.58,5.66,3.28,7.71.71ZM908.57,419.21c.46-4.6-.42-11.24-6.54-10.9-.46,2.54,2.41,3.07,3.04,5.12,1.61,5.28-2.01,10.94,7.28,9,4.11-.86,5.57-4.79,4.93-8.68h-3.26s-1.02,4.98-1.02,4.98l-4.43.48ZM896.58,422.47c.03-6.49-6.29-7.04-3.15-.1l3.15.1ZM906.38,442.1c-11.8-.31-5.48,15.47-8.73,18.52-1.92,1.8-1.83-.67-2.26-1.54-2.35-4.68-2.48-9.87-9.71-7.16-.74,3.74,2.91,1.2,4.94,3.22,1.69,1.68,1.53,6.49,3.43,7.77,10.39,3.43,5.09-10.41,7.96-15.64,1.32-2.4,5.72-.35,4.37-5.16ZM890.04,467.16c-7.15-1.54-7.03,11.45-8.64,12.63l-8.53.7c-4.05,4.22.33,17.1-6.81,14.42,1.65-2.9-3.66-18.54-7.62-14.67-1.92,1.88,2.74,4.28,3.39,5.85,1.87,4.51-.7,14.97,7.81,12.47,6.16-1.81,2.81-10.44,5.29-14.91l9.41-1.49,5.7-15ZM851.89,487.87c-3.99-.2-2.39,6.35-4.28,9.33-2.19,3.44-13.38,4.88-13.16,12.46l-1.57-10.94-3.86-3.21c1.68,4.23-.43,17.46,3.25,19.13,5.19-.05,5.07-6.5,8.16-9.35,5.8-5.36,14.1-4.32,11.46-17.41ZM859.53,516.2c.1-3.63-.71-8.38-5.45-7.62l3.4,10.74c2.54,1.46,4.51.64,6.43-1.45l6.5-9.28c-4.05-2.1-9.06,9.57-10.89,7.62ZM819.2,511.85c-2.22-.72-3.97,3.32-4.55,4.69-1.81,4.27-1.92,9.52-5.24,13.3l-4.36-2.73c-1.31,8.07,4.8,8.8,8.55,2.55,2.45-4.09,4.1-12.9,5.61-17.81ZM798.49,555.44c-8.99,2.08-.79,14.95-3.78,19.65-3.38,5.32-3.89-8.37-8.2-5.48l3.96,9.89c13.98-.64,4.52-15.87,8.02-24.06ZM811.59,625.14c10.61-1.04,5.51,14.42,14.63,13.15,6.67-.93,2.85-9.13,2.92-12.63.06-2.69,3.86-4.72.41-7-5.74,4.34-2,10.39-2.73,16.33-5.02,1.21-3.62-4.53-5.59-8.04-1.85-3.31-5.8-5.57-9.66-5.04v3.22ZM849.7,657.88c-3.33,2.21-7.87-9.58-10.88-6.53-1.27,1.29,4.49,7.54,5.35,8.26,6.08,5.05,10.97-2.07,9.9-8.26h-3.26s-1.11,6.54-1.11,6.54Z"/>
    <path class="st16" d="M923.83,653.52c10.4-4.86,15.51-3.09,25.59-4.38,8.92-1.14,17.4-4.96,26.22-4.38,8.11.53,17.87,5.75,23.93,10.91l-.54-5.42c3.51-1.47,17.29,7.8,18.52,6.52,2.85-2.95-5.34-4.68-5.44-6.52,10.38-2,23.79-6.77,34.26-6.59,7.71.14,18.09,5.88,26.54,7.34,6.62,1.14,13.81-.05,19.33,3.56,2.39,1.56,4.95,5.24,6.52,7.67,6.37-2.15-.68-6.22-2.74-8.72,3.68-.12,7.71,2.71,11.51,2.01,2.31-.43,2.94-2.26,5.45-3.05,11.21-3.5,40.96-5.02,50.98,1.2,8.92,5.54,15.34,22.08,15.89,32.14.27,4.81-1.29,5.08-2.09,8.01,1.98-5.25-8.08-2.41-6.53,3.26.75.8,6.4-2.92,6.53-3.26-2.34,8.6-3.33,13.31-11.66,18.31-6.61,3.96-22.56,7.07-30.42,7.71s-16.33-1.59-24.92-.93-17.74,4.62-26.19,5.41c-12.23,1.14-24.74-1.94-37.08-1.11-9.71.65-20.66,4.15-30.42,4.44-7.44.22-14.19-1.66-21.83-1.11-13.39.96-27.27,6.33-40.89,5.42,14.06-14.15,26.65-32.79,23.88-53.84-.83-6.35-9.8-22.43-16.8-22.43h-20.71c-4.19,0-6.17-3.81-14.71-1.09l-2.18-1.09ZM1079.67,699.3l-6.29.78-1.33,3.57c.58.6,8.67-1.11,7.62-4.35ZM1003.38,706.92c.26-2.01.07-3.2-1.64-4.35h-1.61s.15,3.12.15,3.12l3.11,1.23ZM1025.18,703.66c-.82-.82-4.41-.51-3.25,2.71,1.35,3.76,4.69-1.28,3.25-2.71ZM1166.86,705.84c-2.82-.19-4.77,2.57-4.35,5.44,2.82.19,4.77-2.57,4.35-5.44ZM1043.71,706.93l-11.97,2.7c2.03,4.46,14.75-.18,11.97-2.7ZM1150.51,708.02c-1.97-.51-2.43,1.44-3.98,1.83s-4.89-2.09-4.73,2.52c3.97,1.72,9.26,1.01,8.71-4.34ZM1131.45,709.12c-1.89,3.8-6.58-.59-7.08,3.78,2.62,3.13,6.68,1.9,8.71-1.09l-1.63-2.69ZM999.02,710.2c-2.13-.24-4.1.53-6.14.94-1.74.35-4.17-.88-3.65,1.76,2.87,3.25,9.66,2.2,9.79-2.7ZM1065.5,710.2l-6.9,1.07-.72,3.28c.56.59,8.67-1.1,7.62-4.35ZM1085.12,710.2c-3.93-3.5-4.55,7.11-.53,2.18.57-.7.82-1.92.53-2.18ZM1117.82,713.45l-1.58-2.91-6.05.74v3.26s7.63-1.1,7.63-1.1ZM1099.29,712.38h-10.9c-2.66,7.42,14.16,2.83,10.9,0ZM984.85,716.74l-8.72,1.09v3.26s8-1.07,8-1.07l.72-3.28ZM1006.65,716.74c-2.32.77-4.66.81-7.04,1.14-1.55.22-3.22-1.04-2.75,1.57,3.38,4.17,10.3,3.17,9.79-2.71ZM1023,722.18c4.59.28,10.2.82,9.8-5.44-3.7,2.08-5.33,4.25-9.79,2.18v3.26ZM1049.15,716.74c-2.01-.25-3.2-.07-4.34,1.65v1.61s4.35,0,4.35,0v-3.26ZM976.14,724.37h-9.8c-1.07,6.19,5.85,3.48,9.81,3.26v-3.26Z"/>
    <path class="st2" d="M920.56,385.42h-3.26c.02,4.01,3.23,4,3.26,0,2.71,2,6.44,5.28,9.03,6.77,7.39,4.25,18.9,5.51,24.14,12.92,2.56,3.63,2.32,6.98,6.04,10.31,3.45,3.1,7.44,3.23,10.88,5.47,5.78,3.77,10.82,13.12,16.97,17.91,5.02,3.91,12.85,6.21,16.86,10.39,6.7,6.98,10.78,20.17,15.08,28.52,4.81,9.36,7.85,12.15,11.62,23.25,1.12,3.3,5.04,3.99.02,7.6-4.41-4.25-4.43-11.26-7.28-16.68-2.45-4.67-6.43-6.9-9-10.62-6.59-9.56-14.44-25.65-21.82-33.76-7.99-8.8-30.46-18.67-40.92-26.11h3.26c-.02-4.01-3.23-4-3.26,0-8.45-6.01-11.52-13.94-18.6-19-7.63-5.45-33.88-17.02-42.98-17.05-5.09-.02-10.34,2.15-15.2,3.43l-.65-2.19-1.58-.05c-1.43,5.34-6.28,2.2-8.05,3.4-.29.2-1.24,4.63-2.79,6.48-3.08,3.67-9.35,5.66-13.08,10.9-2.11,2.96-3.34,8.16-5.32,10.49-2.61,3.09-9.06,5.53-12.71,9.62-7.09,7.95-24.24,31.34-29.17,40.59-.87,1.63-.92,4.64-1.61,5.46-.56.67-4.36,1.39-6.35,2.92-3.96,3.05-4.89,9.55-5.65,10.22-.72.63-2.75-.03-3.01.19-.58.51,3.19,12.39-3.27,13.62-.08,3.14,4.12,2.64,4.45,5.41.78,6.49-2.76,10.63-3.36,16.37-.72,6.78,1.75,13,1.09,19.64-1.38,13.86-8.89,25.18-3.81,40.85,1.23,3.8,4.22,6.89,5.47,10.87,2.81,8.95,2.9,34.5,8.66,39.33,1.1.92,3.19.68,3.93,1.72.92,1.29.86,4.69,1.85,6.62,3.74,7.28,16.04,13.67,22.01,21.59,3.24,4.31,6.41,13.21,9.21,15.85,2.42,2.28,4.26,1.59,6,2.72,1.32.85,3.63,4.79,6.25,6.82,6.67,5.18,18.89,8.56,27.22,8.84,2.95.1,5.48-1.17,8.55-1.11,4.69.09,7.87,3.13,12.83,2.06,7.62-1.64,6.96-13.24,9.31-19.07.75-1.87,7.71-13.4,8.92-13.97,1.85-.87,4.02-.21,5.77-.77s3.31-3.19,5.46-4.35c10.51-5.67,11.9-1.56,20.93-.85,5.66.44,19.04-1.58,22.87,2.2.42.41,6.16,8.79,6.64,9.71,8.62,16.73-4.93,47.24-19.21,57.22-7.57,5.29-10.32,2.81-17.9,3.9-29.09,4.19-43.05,3.44-69.13-11.55-12.7-7.3-19.02-15.14-29.5-23.9-9.04-7.55-16.98-10.77-25.64-20.14-10.52-11.38-23.04-35.29-29.67-49.89-4.44-9.77-15.33-48.13-16.52-58.68-1.62-14.3,3.46-19.88,5.27-31.56.77-4.97-.35-11.06.09-16.26.89-10.63,10-39.56,14.41-49.89,7.66-17.95,28.73-36.07,41.16-51.48,2.44-3.02,3.85-7.4,6.57-10.87,5.43-6.94,25.12-26.8,32.34-30.87,2.29-1.29,9.61-4.59,11.8-4.49,1.87.09,7.26,3.69,10.97,4.18,10.47,1.39,18.03-1.94,28.46,4.23,2.61,1.54,3.37,3.62,4.68,4.59ZM880.23,381.07c-6.73-1.16-1.35,4.72,0,3.26v-3.26ZM899.85,381.07h-3.26v2.17h3.26v-2.17ZM847.53,400.67c.35-2.06-1.27-3.61-3.26-3.26v3.26s3.26,0,3.26,0ZM838.82,406.13h-3.27v6.53h3.27v-6.53ZM972.87,429.01c.35-2.06-1.27-3.61-3.26-3.26v3.26s3.26,0,3.26,0ZM798.49,462.79c-.02-4-3.24-4-3.26,0h3.26ZM776.69,541.26c.35-2.06-1.27-3.61-3.26-3.26v3.26s3.26,0,3.26,0ZM773.42,557.62h-2.17v3.26h2.17v-3.26ZM776.69,588.14h-2.17v3.26h2.17v-3.26ZM783.23,604.47c-.02-4-3.24-4-3.26,0h3.26ZM811.57,655.71c-1.73-1.73-4.99,1.53-3.26,3.26s4.99-1.53,3.26-3.26ZM952.16,667.68c.25-2.01.07-3.2-1.65-4.34h-1.61s0,4.35,0,4.35h3.26ZM810.48,665.51c-3.93-3.5-4.55,7.11-.53,2.18.57-.7.82-1.92.53-2.18ZM933.63,670.95c.41-5.45-3.67-5.45-3.26,0h3.26ZM958.69,672.05c-2.33-.36-3.67,1.54-3.25,3.8l4.34,1.64-1.1-5.44ZM941.26,684.03c1.23-1.25-1.23-7.45-4.35-6.53-1.5,2.79,1.93,8.98,4.35,6.53ZM827.92,679.68c-1.73-1.73-4.99,1.53-3.26,3.26s4.99-1.53,3.26-3.26ZM911.85,686.21c5.8.51,5.75-4.87,0-4.35v4.35ZM961.22,691.38c-.81-1.66-.01-3.92-1.97-5.14-3.32,2.42-1.47,7.05,2.16,7.64,2.09.34,1.82-.5,1.63-2.19-.54.04-1.63.09-1.82-.3ZM952.16,693.84c.25-2.01.07-3.2-1.65-4.34h-1.61s0,4.35,0,4.35h3.26ZM917.28,696.03c-1.33-1.43-4.65,2.85-3.26,4.35s4.65-2.85,3.26-4.35ZM927.07,696.06l-3.24-.03c-.63,4.69,1.79,7.14,6.53,6.53l-3.29-6.5ZM967.42,704.74c.71-.71-.03-6.04-2.7-5.44-4.18.94.21,7.93,2.7,5.44ZM859.52,700.39h-3.26v2.17h3.26v-2.17ZM939.08,703.66h-4.35c-.5,4.15.03,6.09,3.83,3.29l.51-3.29ZM948.89,708.01c.67-.72-.51-4.32-1.63-4.33-3.25-.03-.3,6.41,1.63,4.33ZM887.86,705.84h-4.35c-.5,4.15.03,6.09,3.83,3.29l.51-3.29ZM951.07,714.56h-2.17v3.26h2.17v-3.26ZM886.77,716.73c-.94-1.29-5.39-1.11-4.34,2.72s6.19-.16,4.34-2.72ZM932.54,723.28h-2.17v3.26h2.17v-3.26Z"/>
    <path class="st16" d="M1034.98,500.93l-4.13-11.65c-10.65-12.81-14.64-36.11-28.41-45.7-4.37-3.04-9.46-4.58-13.73-8.06-5.33-4.33-8.43-11.16-13.11-15.23-4.01-3.48-11.22-4.6-14.21-7.58-2.57-2.56-3.38-8.87-7.14-12.48-4.94-4.74-15.2-6.79-21.35-10.26-10.63-6-14.39-14.83-28.25-16.43-7.46-.86-17.76,2.32-23.31-3.38,15.63-6.29,32.31-1.82,48.45-1.06,21.36,1.01,47.79-.29,68.2,4.82,13.66,3.42,13.68,11.52,21.3,21.2,5.06,6.42,10.06,9.28,14.43,17.18,12.7,22.98,15.15,36.6,9.47,62.48-1.97,8.98-6.34,17.14-8.2,26.14Z"/>
    <path class="st10" d="M1002.3,629.54c-5.56,1.69-11.75,3.19-17.44,4.36-9.03,1.86-24.34,4.66-33.26,5.43-5.27.46-44.04.62-46.32-.51-.5-.25-1.37-1.41-1.07-1.64,1.98-.38,3.91,1.37,5.77.92,5.53-1.35,7.79-22.04,9.35-27.76.94-3.47,2.15-6.87,3.41-10.22,2.81,1.76,10.86,7.52,11.78,10.59,1.83,6.1-5.94,14.68-2.51,22.1,1.93,3.49,4.58.94,7.57,1.04,1.84.06,3.75,1.3,5.48,1.15,5.45-.46,7.07-11.1,9.08-14.92,2.76-5.23,10.96-15.36,9.55-21.05-1.36-5.52-8.34-10.76-11.53-15.25,19.87,2.66,41.5,5.22,60.5,11.96,5.09,1.81,23.76,8.56,21.89,15.31-7.45,8.9-21.13,15.11-32.26,18.5Z"/>
    <path class="st28" d="M835.55,430.11c-2.97,15.21-32.54,33.24-29.2,48.26,1.03,4.63,5.65,7.16,10.09,7.37,1.55.07,4.41.85,3.84-1.67-6.18-3.37-12.2-1.23-10.83-10.83,1.09-7.65,11.81-15.38,16.28-20.8,11.58-14.02,14.82-36.2,38.44-31.89,11.78,2.15,11.07,19.06,7.54,27.74-5.43,13.39-14.93,12.05-24.08,19.51-3.57,2.91-5.42,6.61-8.81,9.72-7.84,7.2-23.79,17.13-32.72,6.54-9.99-11.85,11.07-31.01,17.9-39.89,1.21-1.57,9.27-16.35,11.53-14.07ZM851.89,430.1c.41-5.45-3.67-5.45-3.26,0h3.26ZM862.25,433.39l-1.63,2.69,1.63,1.63,1.63-2.69-1.63-1.63ZM856.25,442.1c-2.1-2.1-6.73,3.46-2.7,4.35,2.29.5,3.5-3.56,2.7-4.35ZM839.9,444.28c-.71-.71-6.04.03-5.44,2.7.94,4.18,7.93-.21,5.44-2.7ZM860.62,449.71c.71.71,6.04-.03,5.44-2.7-.94-4.18-7.93.21-5.44,2.7ZM837.72,457.35c-4.96.22-8.31,5.11-1.64,5.43l1.64-5.43ZM823.56,468.25h-4.35s0,1.61,0,1.61c1.15,1.71,2.33,1.9,4.34,1.65v-3.26ZM832.28,469.34c-5.19.19-6.48,8.46-.51,4.38l.51-4.38Z"/>
    <path class="st5" d="M868.25,529.28c-2.23-5.25-3.94-6.46.56-10.88.68-.67,12.07-8.66,12.81-8.99,1.16-.53,16.54-3.96,17.69-3.96,4.28-.03,10.25,3.81,10.37,8.58l2.19-3.27,2.15,1.65c.88,3.47-2.64,2.97-3.24,4.63-.31.87-1.41,8.64-1.11,8.98,2.13-.73,4.39-.72,6.53-1.09.12.52.58,1.02,1.09,1.09v1.09c-10.72.97-5.2,7.09-11.61,9.64-6.8,2.7,2.93-6.9,2.94-8.01.02-2.56-3.31-3.52-4.95-4.9-.64-.2-1.56,9.87-8.64,8.73-1.46-.23-2.84-1.94-3.37-1.93-1.68.04-6.34,4.01-4.33,7.35,1.4,2.32,6.81,2.18,5.98,5.44-5.8.99-9.01,5.93-15.62,4.35-.72-.17-.97-3.68-3.84-1.97-2.08,1.24-12.4,23.56-16.18,24.7-11.02,3.34-7.91-18.55-11.78-19.44-4.52-.04-4.73,7.89-6.53,8.71-1-8.2-15.03-7.75-13.45.29,1.25,6.36,12.95,9.99,11.82,4.64-.4-1.88-6.07-2.84-5.44-6,2.51-.78,6.92,3.2,7.46,5.13,1.36,4.85-2.98,4.58-3.91,6.05-.81,1.27.02,3.69-1.82,5.28-3.43,2.96-10.71-2.01-13.73-4.48.92-.07,1.91-.02,2.18-1.09,1.06.97,8.14,4.59,9.23,4.36l1.66-2.71-10.36-10.35c-.85.36-1.19,1.85-1.63,2.16-.23.16-1.58-.38-2,.14-.94,1.19,1,4.44-1.26,4.22-.58-3.39,1.24-5.93,2.17-8.71,3.73.21,3.24-3.69,4.65-5.16,4.59-4.79,12.19-.37,14.97-1.86l4.9-7.12c3.35,4.76,5.44,7.88,6.83,13.85.83,3.56-1.44,10.77,4.96,8.85,1.46-.44,14.3-19.39,14.6-21.24.11-.7-.77-6.31-1.04-6.71-.18-.27-2.09-.62-3.01-1.31,3.29-.42,3.74-.27,5.45,2.18.38.55.06,2.65,1.63,3.25l10.35-8.16c-.78-4.43-8.26.26-9.8,1.65-.29-1.05-1.26-1.03-2.18-1.09,6.58-3.74,10.66-9.06,14.72-15.25,2.71,2.79-5.41,10.52-4.91,10.88,12.21,2.39,16.15-23.11,1.73-19.66-1.32.17-.41,1.73-.64,2.23l-1.09-2.18c.24.24,1.12-.17,1.09-.54-.08-1.19-1.6.03-1.09.54-1-.25-.92.97-1.09,1.09-4.24,3.02-20.52,10.46-8.72,13.08-.46.41-4.09,3.21-4.36,3.27ZM898.77,507.49c-.09,2.6,2.39,3.46,3.35,5.9.88,2.24.99,10.14,4.8,9.35,5.17-1.08-.85-17.32-8.15-15.25ZM898.49,511.03c-.98-.89-6.44-3.29-7.36-.82,7.61,4.3,2.37,13.08,3.27,20.15,8.52,1.05,7.88-15.92,4.08-19.34ZM879.15,545.62c2.43.82,9.14-1.95,8.64-4.76l-3.59-2.78c-2.32,1.96-5.59,4.01-5.05,7.54Z"/>
    <path class="st11" d="M867.16,630.63l1.09-1.09c3.93,2.68,8.65,3.9,13.08,5.45,18.72,6.56,49.19,7.05,69.24,5.49,7.68-.6,14.15-3.33,22.3-3.31,1.09,0,2.18,0,3.27,0-27.45,4.28-46.21,6.49-74.51,4.22-9.94-.8-19.42-4.12-29.02-6.39-.58.45,7.79,8.67,1.71,13.15-5.76,4.25-10.31-5.34-14.38-7.57-2.25-1.23-6.57-1.4-7.79-2.57-.43-.42-4.47-10.44-4.62-11.18-.32-1.62.05-1.94,1.64-1.64,3.78,1.75,3.14,8.06,5.37,9.89,1.46,1.21,4.48,1.09,6.5,2.22,3.47,1.94,5.81,7.14,10.11,8.45l2.43-2.43c-2.74-2.26-4.98-11.25-6.41-12.69Z"/>
    <path class="st18" d="M951.07,425.74l20.7,9.83c1.02,3.05-3.01,2.59-4.87,2.14-2.73-.66-8.54-8.01-10.24-1.38-1.3,5.07,11.84,14.87,6.41,21.58-2.71,2.59-4.31-6.94-5-8.11-1.57-2.63-5.52-4.48-6.52-7.66-1.6-5.07,1.9-8.84-1.57-15.31l1.09-1.09Z"/>
    <path class="st18" d="M867.16,395.22c.3-1.74,2.08-2.05,3.49-2.5,3.44-1.1,13.59-4.06,16.68-4.13,3.36-.07,22.78,3.35,23.42,6.11,1.92,8.23-17.38-3.02-18.49-3.31-9.42-2.46-15.94,4.66-25.1,3.83Z"/>
    <path class="st18" d="M920.56,399.59c6.69,3.37,12.72,4.7,17.42,11.44-11.02,9.28-14.56-5.79-19.6-10.35l2.18-1.09Z"/>
    <path class="st18" d="M799.59,476.98c-6.51,7.18-.28,23.08-11.98,25.05-1.83-2.03,5.12-25.59,11.98-25.05Z"/>
    <path class="st18" d="M992.49,636.07c-.32-2.87.04-1.72,1.6-2.19,4.06-1.21,13.26-3.7,12.65,3.81s-11.34-1.38-14.25-1.63Z"/>
    <path class="st18" d="M983.77,444.27c4.3,3.26,10.59,6.75,9.8,13.07-2.18,2.46-8.61-11.84-10.89-11.98l1.09-1.09Z"/>
    <path class="st20" d="M951.07,425.74l-1.09,1.09c-2.33-4.35-6.52-5.31-9.43-8.01-.58-.54-3.29-3.69-1.47-4.54,1.44-.66,10.57,9.53,11.99,11.45Z"/>
    <path class="st20" d="M926.01,654.61c-5.56,1.77-7.75,7.06-13.08,7.62,2.42-3.88,6.81-6.8,10.9-8.71l2.18,1.09Z"/>
    <path class="st20" d="M860.61,415.95l-13.07,3.25c2.94-3.82,8.79-3.39,13.07-3.25Z"/>
    <path class="st20" d="M920.56,399.59l-2.18,1.09c-2.16-1.96-6.67-.9-5.44-5.45.39-.52,6.65,3.87,7.62,4.36Z"/>
    <path class="st19" d="M983.77,444.27l-1.09,1.09-8.71-7.63c3.63,1.64,6.66,4.16,9.8,6.54Z"/>
    <path class="st5" d="M907.48,551.08c1.49-.31,7.11-2.06,7.66-2.94l1.06-12.31c2.7-3.55,2.26,7.01,2.16,8.15-1.56,16.46-9.61,31.77-13.41,47.62-2.47,10.31-3.47,20.96-5.1,31.41-.62,4-3.01,8.57-2.17,13.07,3.11.52,1.81-.65,2.32-2.51.69-2.51,1.35-5.81.94-8.38,1.53-2.33,2.33,1.84,2.28,2.72-.14,2.55-.64,4.65-1.19,7.08,3.24,3.51,3.93-10.44,4.37-10.89,5.68-.35-2.75,10.87,3.26,11.46,2.93-1.31,6.63-23.92,8.18-28.89,1.05-3.35,2.96-6.28,3.81-8.72-.12,1.14.15,1.59,1.09,2.18-1.25,3.35-2.46,6.74-3.41,10.22-1.56,5.73-3.82,26.42-9.35,27.76-1.86.45-3.79-1.3-5.77-.92-.3.23.57,1.39,1.07,1.64,2.28,1.13,41.05.97,46.32.51,8.92-.78,24.23-3.57,33.26-5.43l-11.99,3.27c-8.16-.03-14.62,2.71-22.3,3.31-20.06,1.56-50.52,1.07-69.24-5.49l15.26,3.26c-2.95-7.93,2.03-16.86,2.17-25.06l-11.04,18.37c-4.14,1.71-14.54-3.94-15.14-8.07-.65-4.44,6.68-14.63,7.68-19.66l-4.53-9.02c-3.15-1.86-12.57,8.16-14.01,10.76v-2.18c.89-1.06,1.33-3.73,3.39-5.88,1.91-1.99,5.84-4.63,8.6-5.04l-1.19-3.19-13.39.89-34.47-8.57c2.73-.35,6.84,1.09,8.72-1.09,11.78,2.36,24.54,9.8,37.01,6.48-9.89-26.62,12.76-39.61,36.44-38.1,1.06-.13.74,1.47.65,2.2-3.99.83-9.34.57-13.34,1.37-19.05,3.79-28.28,14.99-20.65,34.26,1.81,4.56,6.63,14.51,12.2,14.51v1.61c-5.72,5.26-7.75,12.93-10.73,19.82l2,1.44,3.28-4.35-1.08,8.71,4.89-5.45.57,6.54c1.21,1.66,7.68-12.02,8.25-12.99,1.83-3.09,5.35-5.93,6.47-8.79.77-1.96,2.61-12.83,2.4-14.61-.33-2.79-11.19-17.17-10.59-20.79l2.16-1.67,1.78,3.22c7.02.28,4.17-5.1,5.53-10.64,1.26-5.14,6.5-9.1,6.88-12.19ZM914.01,551.08c-9.65,4.36-16.82,18.78-8.16,27.22,1.43.07,8.78-24,8.16-27.22ZM905.3,582.67l-4.37-7.14-4.25.72c-.47,6.51,2.45,9.12,8.62,6.42ZM904.21,584.87c-4.25-.88-4.49,1.73-1.62,4.35l1.62-4.35Z"/>
    <path class="st20" d="M835.55,427.92c.2-1.55,1.87-2.52,3.27-2.17l-2.18,3.26-1.09-1.09Z"/>
    <path class="st28" d="M836.64,429.01l-1.09-1.09,1.09,1.09Z"/>
    <path class="st6" d="M970.57,282.84c-.85.49-2.32.22-3.17-.39-2.53-5.22-6.8-8.74-10.48-12.94-.71-.81-.64-2.52-1.43-3.43-5.43-6.25-18.08,1.44-18.54,8.79-.22,3.47,4.43,12.34,7.03,14.66,9,8.03,28.28,4.52,31.71,22.83,3.08,16.43-13.33,20.32-26.2,20.79-5.98.22-21.07-1.21-26.58-2.93-6.47-2.03-25.63-22.69-18.58-27.52,3.83-2.62,20,13.26,25.44,15.21,17.35,6.2,13.27-14.06,2.27-20.79-9.8-5.99-14.05-4.93-19.9-17.15-5.51-11.52-6.67-20.45.58-31.53,8.72-13.32,24.93-10.5,38.58-7.64,18,3.78,31.83,10.49,24.92,31.9-.41,1.26-5.14,9.86-5.64,10.15Z"/>
    <path class="st24" d="M879.14,241.56c.89-.05,1.93.09,2.18,1.09-9.31,8.77-7,14.37-4.72,25.98,3.42,17.44,10.34,36.77,16.19,53.56l13.59,8.73c-14.03-.06-28.12,2.18-41.41,6.54,2.05-5.07,11.53-10.38,10.72-15.51-3.89-10.57-9.42-21.24-12.91-31.87s-3.33-26.47-14.11-31.66l-13.11-5.94c13.95-5.54,28.47-10.01,43.59-10.91Z"/>
    <path class="st20" d="M879.14,241.56l5.45-2.17c-.27,1.71-2.27,2.32-3.27,3.26-.25-1-1.29-1.14-2.18-1.09Z"/>
    <path class="st17" d="M914.56,329.84c.71.36.71.73,0,1.09v-1.09Z"/>
    <path class="st6" d="M1117.52,327.82c6.81-1.85,17.07,13.35,16.61,19.87-.62,8.73-11.8,18.05-16.11,25.39-5.13,8.75-7.72,21.47-8.78,31.54-.31,2.92-2.5,15.96,2.39,15.53,13.61-1.21,24-43.51,31.06-54.02,3.01-4.49,6.6-7.68,10.95-2.9,6.63,7.29,18.58,41.21,11.03,48.85-1.24,1.26-4.52,2.03-6.41,3.39-19.97,14.4-38.6,33.13-57.95,46.68-4.74,3.32-12.87,9.16-14.93-.14-3.46-15.59,12.14-53.51,15.61-71.11.4-2.04,1.9-8.94,1.5-10.23-.75-2.47-4.08-2.38-5.91-.72-2.08,1.89-11.98,27.95-15.22,33.82-1.32,2.39-6.74,12.64-8.73,12.78-9.52-4.95-13.53-17.48-14.75-27.47.53-3.15,3.93-3.87,6.04-6.02,14.44-14.68,29.64-33.88,42.38-50.26,2.42-3.11,8.27-14.2,11.24-15Z"/>
    <path class="st29" d="M1132.71,742.07c4.6-.74,15.96,5.99,18.88,10.09,10.29,14.4-2.64,25.01-16.94,25.64-7.35.32-12.97-5.22-19.82-6.3-16.31-2.59-14.95,11.44-3.23,16.3,20.13,8.34,47.32-11.6,66.5-1.11,6.27,3.43,19.51,15.21,13.36,22.78-10.7,8.36-18.31,18.39-30.41,25.16-8.92,4.99-32.77,13.72-42.55,12.85-7.29-.65-26.56-14.18-21.93-21.75,1.57-2.57,21.65-11.7,25.19-11.95,8.65-.62,18.41,6.24,29.91,3.84,10.39-2.18,15.54-11.4,2.18-14.29-19.19-4.16-42.78,6.38-58.93.08-4.78-1.86-19.11-21.7-18.25-26.05,1.08-5.46,28.19-14.97,34.97-19.39,4.47-2.91,17.62-15.33,21.08-15.89Z"/>
    <path class="st6" d="M1034.69,826.49c-3.91,3.19-16.53-.99-19.82,6.88-5.2,12.41,13.96,23.42,23.87,10.8,7.01-8.92,10.53-22.11,22.03-28.17,7.05,3.79,14.55,19.49,11.54,26.88-2.91,7.15-17.79,19.3-24.59,23.35-7.29,4.34-32.6,16.75-39.95,13.42-5.91-2.68-7.63-19.59-9.27-25.6-3.2-11.72-13.43-41.26-12.49-51.62.76-8.4,17.94-18.48,25.11-22.94,8.42-5.24,27.59-17.86,36.33-9.27,1.42,1.39,8.96,14.52,9.59,16.57,3.02,9.8-6.36,14.54-15,13.93-7.45-.53-14.18-6.43-22.55-5.28-16.18,2.22-15.92,22.12,1.67,18.06,3.92-.9,7.98-7.18,12.7-3.58,5.07,3.87,5.87,12.47.84,16.57Z"/>
    <path class="st4" d="M807.92,743.28c5.33,6.06,4.89,10.27,2.9,17.92-2.49,9.55-8.69,14.86-18.59,16.28-8.31,1.19-20.2-4.6-24.5,6.02-3.88,9.58,3.94,12.32,6.56,20.13,4.57,13.66-1.32,33.42-12.9,42.18-18.36,13.9-23.35-1.57-35.38-11.34-4.4-3.57-8.8-5.03-12.85-7.86-2.27-1.58-13.59-9.54-14.31-10.76-1.97-3.37-2.09-11.61-1.43-15.49,2.54-14.96,34.91-36,46.62-47.11,6.12-5.8,20.41-24.36,27.84-25.56,11.42-1.86,28.61,7.12,36.06,15.58ZM776.42,740.87c-5.02.97-14,14.17-13.97,18.93.04,8.7,21.04,10.09,27.39,3.31,7.86-8.4-4.09-24.05-13.42-22.24ZM739.36,786.7c-9.44.75-20.09,11.52-23.89,19.75-4,8.67-.77,10.19,6.4,14.69,2.35,1.48,15.11,9.06,16.62,9.52,17.21,5.24,32.86-23.99,15.85-37.64-2.99-2.4-11.24-6.62-14.99-6.32Z"/>
    <path class="st29" d="M686.61,447.17c1.3,1.32,5.13,3.09,6.98,3.41,9.4,1.61,9.5-5.03,14.56-10.01,12.98-12.76,40.86-12.31,52.66,1.6,9.72,11.45-1.72,21.44-5.65,32.33-2.62,7.25-5.36,27.01-9.56,31.85-1.74,2-11.65,6.14-14.4,6.31-15.84.96-46.65-23.22-61.65-31.54-10.12-5.61-30.46-10.13-32.26-23.33-1.51-11.12.62-24.15,6.22-33.91,5.42-9.44,23.82-9.24,31.28-2.5,8.97,8.11,6.87,20.75,11.82,25.78ZM663.09,434.67c-9.06.79-15.49,12.5-12.63,20.87,1.22,3.56,17.45,8.63,20.84,8.15,11.58-1.66,3.23-30.01-8.22-29.02ZM740.48,491.97c3.51-3.51,3.92-21.29,6.73-26.55,1.36-5.62-3.37-11.07-7.63-13.99-24.46-16.73-47.97,18.76-26.02,34.73,4.81,3.5,22.1,10.62,26.92,5.81Z"/>
    <path class="st8" d="M782.98,275.61c3.62,3.67.14,23.94.23,29.64.35,23.59,25.06,50.02,47.99,54.02l-9.27,7.6-10.89,14.18c-2.03-3.24-1.01-7.44-2.22-10.85-3.01-8.48-33.91-38.34-42.59-42.41-15.43-7.23-27.11-.79-41.28-3.4-5.36-.99-4.23-11.38-1.69-14.77,3.6-4.82,15.4-5.5,20.83-4.37,5.92,1.24,17.63,11.23,22.67,8.08,2.29-1.43.79-19.13,1.34-23.18.72-5.27,8.68-20.84,14.9-14.54Z"/>
    <path class="st8" d="M1033.9,263.37c.32,2.81-.01,1.73-1.58,2.2-2.36.71-10.39,1.11-11.28,2.37-2.62,14.65-9.65,28.81-12.97,43.14-3.35,14.45-5.75,24.57,7.38,34.48,14.08,10.63,35.5,8.62,41.32,28.44l-8.17,10.31-10.31-13.64c-15.94-15.59-38.53-22.57-52.34-40.34l12-80.06,35.95,13.09Z"/>
    <path class="st4" d="M975.06,783.21l-31.62,3.27c-3,32.08-15.67,67.27-1.09,98.09-13.33,2.21-25.12-2.99-38.13-4.36-.29-3.53,4.18-4.56,5.91-6.61,3.23-3.85,6.42-17.59,7.53-22.99,4.05-19.79,6.07-41.3,9.26-61.3-1.01-4.53-30.74-6.03-34.61-10.04,2-15.57,24.38-7.56,35.29-6.9,6.13.37,12.43-.49,18.56-.03,4.53.34,23.12,2.01,25.95,3.47,2.4,1.24,2.8,4.87,2.94,7.41Z"/>
    <path class="st24" d="M745.91,385.15c.61-.63,3.11-8,3.3-9.28,1.02-7.05-3.31-12.51-9.85-14.69-17.62-5.86-17.08,20.41-19.99,21.04-5.66,1.23-12.1-11.52-12.39-15.95-.58-8.64,13.64-19.58,21.48-20.93,15.74-2.7,32.93,9.59,44.39,19.39,4.24,3.62,24.15,23.08,23.28,27.61-4.51,5.01-9.38,9.45-13.35,14.97-2.31,3.22-8.62,16.21-9.89,17.35-4.82,4.3-22.69-4.91-27.24-8.75-6.8-5.74-9.45-11.83-7.93-20.97,1.4-8.41,5.04-6.56,8.18-9.79ZM758.84,383.55c-6.3.74-10.28,11.79-9.32,17.62.87,5.29,8.15,12.08,13.54,11.51,1.7-.18,11.17-9.5,12.55-11.45,7.04-9.96-8.26-18.67-16.77-17.67Z"/>
    <path class="st27" d="M1175.22,425.85c1.64-.24,8.27,10.21,9.27,12.24,13.23,26.63,13.32,62.63-14.01,80.1-6.57,4.2-32.02,16.19-38.8,14.16-.59-.18-8.49-6.86-9.55-7.92-3.39-3.4-7.71-9.33-10.65-13.33-3.25-4.43-15.76-22.23-14.26-26.85l77.99-58.39ZM1167.77,458.63c-4.09-2.5-19.88,6.17-24.13,8.74-7.28,4.39-20.18,13.89-16.27,23.49,10.23,10.01,8.61,28.2,26.77,17.52,13.59-7.99,22.14-35.59,13.63-49.75Z"/>
    <path class="st9" d="M1088.11,279.97c14.73-2.83,24.64,16.66,22.68,29.22-2.75,17.67-28.47,46.54-44.59,54.28-7.61-9.81-18.51-16.29-29.63-21.57-4.18-4.04,1.78-17.27,4.52-21.78,5.41-8.9,12.56-13.85,23.41-11.59,7.11,1.48,6.31,5.42,10.43,8.09,10.75,6.97,23.01-1,21.05-13.41-1.73-10.97-19.65-9.24-20.57-13.26.62-4.9,8.48-9.16,12.71-9.98ZM1050.58,323.63c-.92,1.03-3.26,6.7-3.33,8.03-.15,2.81,12.16,13.97,14.68,14.36,7.63,1.16,17.05-14.54,10.7-21.68-5.78-6.48-16.07-7.41-22.05-.71Z"/>
    <path class="st9" d="M868.24,773.42l-9.47,4.67c-1.12,2.57-2.77,5.05-3.8,7.65-3.07,7.73-12.73,46.72-11.73,53.52.96,6.54,8.2,10.33,7.57,16.96l-41.42-11.42c-1.77-1.31-.64-1.71.71-2.59,4.43-2.89,16.63-6.17,18.47-7.69,3.27-2.71,3.99-27.03,5.09-33.05,1.2-6.52,5.66-15.72,5.24-22.06-.46-6.75-7.14-10.21-9.88-15.81,13.7.76,26.82,4.11,39.23,9.81Z"/>
    <path class="st24" d="M947.8,583.77c4.42,3.73,13.39,11.97,13.17,17.95-.16,4.52-7.65,14.38-10.11,19.44-2,4.1-1.35,9.49-6.88,11.65l-.54-9.8c-3.8-.72-2.04,6.7-3.28,8.71l-1.09-7.62-3.27,7.63c-4.99-2.9-.03-9.65.85-13.88.48-2.32.12-4.75.5-7.13.43-2.67,4.51-6.31-.23-8.42l-1.63,4.35c-3.58-1.65-7.31-7.43-10.37-8.71,2.94-8.19,6.73-16.24,13.62-21.78,2.43,3.44,6.33,5.13,9.26,7.61Z"/>
    <path class="st23" d="M936.91,564.15c-.24,3.43-1.98,6.22.11,9.71,1.95.54,3.64-.1,5.34-.99.9,1.91,1.89,2.89,3.27,4.36,1.1,1.17,1.99,1.29,3.27,3.27.78,1.2,1,2.82,2.16,3.83l-3.25-.56c-2.94-2.48-6.83-4.17-9.26-7.61-6.89,5.54-10.69,13.59-13.62,21.78-.1-.04-1.1.92-2.13.03-.26.68.14,1.66-.05,2.15-.94-.59-1.21-1.04-1.09-2.18,4.23-12.17,9.98-24.26,14.17-35.96,1,.25,1.15,1.29,1.09,2.18Z"/>
    <path class="st8" d="M820.29,570.69c3.02,2.47,10.31,7.44,13.73,4.48,1.83-1.59,1.01-4.01,1.82-5.28.93-1.47,5.27-1.2,3.91-6.05-.54-1.94-4.96-5.91-7.46-5.13-.63,3.16,5.04,4.12,5.44,6,1.13,5.36-10.57,1.73-11.82-4.64-1.58-8.04,12.45-8.49,13.45-.29,1.79-.81,2-8.75,6.53-8.71,3.88.89.77,22.78,11.78,19.44,3.78-1.15,14.1-23.47,16.18-24.7,2.87-1.7,3.12,1.8,3.84,1.97,6.6,1.57,9.82-3.36,15.62-4.35.83-3.27-4.58-3.13-5.98-5.44-2.02-3.33,2.65-7.31,4.33-7.35.53-.01,1.91,1.7,3.37,1.93,7.08,1.14,7.99-8.94,8.64-8.73,1.64,1.37,4.97,2.34,4.95,4.9,0,1.1-9.74,10.71-2.94,8.01,6.41-2.55.89-8.67,11.61-9.64,8.1-.73,16.61.97,23.46,5.39-.41,10.18-1.48,19.84-4.93,29.48-4.19,11.7-9.93,23.8-14.17,35.96-.85,2.44-2.76,5.37-3.81,8.72-1.55,4.97-5.25,27.58-8.18,28.89-6.01-.59,2.42-11.81-3.26-11.46-.43.46-1.13,14.4-4.37,10.89.55-2.43,1.05-4.53,1.19-7.08.05-.88-.75-5.06-2.28-2.72-.06-.37-1.17-1.35-1.09-2.18,1.63-10.45,2.62-21.1,5.1-31.41,3.8-15.84,11.86-31.16,13.41-47.62.11-1.15.55-11.7-2.16-8.15l-1.06,12.31c-.55.89-6.17,2.63-7.66,2.94-.38,3.09-5.62,7.05-6.88,12.19-1.36,5.54,1.48,10.92-5.53,10.64l-1.78-3.22-2.16,1.67c-.6,3.62,10.26,18,10.59,20.79.21,1.78-1.63,12.65-2.4,14.61-1.12,2.86-4.64,5.7-6.47,8.79-.58.97-7.04,14.64-8.25,12.99l-.57-6.54-4.89,5.45,1.08-8.71-3.28,4.35-2-1.44c2.98-6.89,5.01-14.56,10.72-19.82v-1.61c-5.55,0-10.38-9.96-12.19-14.51-7.63-19.27,1.6-30.46,20.65-34.26,4-.8,9.35-.54,13.34-1.37.09-.73.41-2.33-.65-2.2-23.68-1.51-46.33,11.48-36.44,38.1-12.47,3.33-25.23-4.11-37.01-6.48-6.2-1.24-12.16-1.45-18.53-1.09-1.34-1.38-4.01-1.58-4.98-3.29-.82-1.43.55-2.51.62-3.25,3.62-1.6,5.99-1.88,9.81-2.18Z"/>
    <path class="st12" d="M946.84,538.13c11.61,2.14,16.66,20.43,6.98,28.21-7.75,6.23-7.67-2.08-9.89-6.48-.93-1.83-3.53-2.45-3.67-4.9-.28-4.9,4.29-12.54,6.59-16.83Z"/>
    <path class="st9" d="M942.36,572.87c-1.7.88-3.39,1.53-5.34.99-2.09-3.48-.35-6.27-.11-9.71l4.9-3.27,3.78,9.17c-.11.45-2.6,2.49-3.23,2.82Z"/>
    <path class="st20" d="M942.37,540.18v-6.53c4.78.13,3.97,4.85,0,6.53Z"/>
    <path class="st20" d="M997.93,483.51c-4.4.89.32-6.18-1.07-8.72,3.43,1.37,1.26,6.11,1.07,8.72Z"/>
    <path class="st23" d="M873.7,527.1c-2.67,2.58-5.14,2.24-6.5,7.14-.74,2.67,3.87,1.49,5.41,1.58.92.06,1.89.04,2.18,1.09-1.05.95-1.77,1.9-2.18,3.27-1.71-2.45-2.16-2.6-5.45-2.18-3.09-2.36-1.4-4.72-3.98-6.38-8.84-5.68-32.42,3.81-39.62,10.74-7.75,7.45-11.21,15.1-9.8,26.15,3.41.91,2.01-3.96,2.66-6.59.97-3.92,2.14-7.84,3.68-11.57.74-1.78,1.9-6.32,4.55-5.81.37,3.29-3.07,10.29-4.36,14.17-.93,2.78-2.75,5.32-2.17,8.71,2.26.23.32-3.03,1.26-4.22.42-.52,1.77.02,2-.14-.55,2.63-1.09,4.54,1.09,6.54-.27,1.07-1.26,1.02-2.18,1.09-3.82.3-6.18.58-9.81,2.18,0-.09-.92-.66-1.09-1.09,4.5-4.74,1.15-5.79,1.37-11.15.87-21.42,28.92-35.27,48.1-33.41,2.7.26,7.17,2.53,9.38,2.06.27-.06,3.9-2.86,4.36-3.27.48.11.91.62,1.09,1.09Z"/>
    <path class="st23" d="M814.84,579.41c6.37-.36,12.32-.15,18.53,1.09-1.88,2.18-5.99.74-8.72,1.09-2.74-.45.47,5.34.9,6.18,5.96,11.65,15.37,14.77,27.43,16.7,2.91.47,2.01,2.12,6.54,0,.58-.27,1.93-.79,2.18-1.09v2.18c-1.79,3.25-3.05,9.54-2.18,13.08l-1.09,1.09c-.33-1.25-1.12-3.26-1.09-4.36,0-.12,1.51-1.07,1.09-2.17h-11.98c-10.16-2.15-21.83-7.69-27.05-17.09-1.9-3.42-4.5-14.14-6.73-15.61.29-1.05,1.26-1.04,2.18-1.09ZM858.43,607.75c-12.16.13-24.32-3.45-32.05-13.17-2.79-3.5-3.84-7.11-5.88-10.47-.89-1.46-1.26-2.96-3.47-2.51,3.63,13.95,9.95,22.19,23.67,26.99,4.33,1.52,16.82,5.59,17.73-.84Z"/>
    <path class="st11" d="M890.04,467.16l-5.7,15-9.41,1.49c-2.48,4.47.87,13.1-5.29,14.91-8.51,2.5-5.94-7.96-7.81-12.47-.65-1.57-5.31-3.97-3.39-5.85,3.95-3.87,9.27,11.78,7.62,14.67,7.14,2.68,2.76-10.2,6.81-14.42l8.53-.7c1.61-1.18,1.49-14.17,8.64-12.63Z"/>
    <path class="st11" d="M851.89,487.87c2.64,13.09-5.66,12.04-11.46,17.41-3.09,2.86-2.97,9.3-8.16,9.35-3.67-1.67-1.56-14.9-3.25-19.13l3.86,3.21,1.57,10.94c-.22-7.57,10.97-9.02,13.16-12.46,1.89-2.98.29-9.52,4.28-9.33Z"/>
    <path class="st11" d="M811.59,625.14v-3.22c3.84-.52,7.79,1.74,9.64,5.04,1.96,3.51.57,9.24,5.59,8.04.73-5.94-3.01-11.99,2.73-16.33,3.45,2.28-.36,4.31-.41,7-.07,3.5,3.75,11.7-2.92,12.63-9.12,1.27-4.02-14.19-14.63-13.15Z"/>
    <path class="st23" d="M906.38,442.1c1.35,4.81-3.05,2.77-4.37,5.16-2.87,5.22,2.43,19.06-7.96,15.64-1.9-1.27-1.75-6.09-3.43-7.77-2.02-2.01-5.67.52-4.94-3.22,7.23-2.71,7.35,2.47,9.71,7.16.44.87.34,3.34,2.26,1.54,3.25-3.05-3.08-18.83,8.73-18.52Z"/>
    <path class="st11" d="M798.49,555.44c-3.5,8.19,5.96,23.42-8.02,24.06l-3.96-9.89c4.31-2.89,4.82,10.8,8.2,5.48,2.98-4.69-5.21-17.57,3.78-19.65Z"/>
    <path class="st11" d="M885.43,409.13c-2.05,2.57-5.33-1.29-7.71-.71-2.77.68-8.55,15.36-12.73-1.2l5.97,4.35c3.65-6.5,4.73-8.09,12.54-5.45.31-.31-2.86-8.31.53-6.52,2.36,1.87,3.18,7.28,1.39,9.54Z"/>
    <path class="st11" d="M819.2,511.85c-1.51,4.91-3.16,13.72-5.61,17.81-3.75,6.25-9.86,5.52-8.55-2.55l4.36,2.73c3.32-3.77,3.44-9.02,5.24-13.3.58-1.37,2.33-5.41,4.55-4.69Z"/>
    <path class="st5" d="M908.57,419.21l4.43-.48,1.02-4.99h3.26c.64,3.9-.82,7.84-4.93,8.69-9.29,1.93-5.66-3.72-7.28-9-.63-2.06-3.5-2.59-3.04-5.12,6.12-.34,7,6.3,6.54,10.9Z"/>
    <path class="st11" d="M849.7,657.88l1.11-6.54h3.26c1.08,6.2-3.82,13.32-9.9,8.27-.86-.72-6.63-6.96-5.35-8.26,3.01-3.05,7.54,8.74,10.88,6.53Z"/>
    <path class="st23" d="M859.53,516.2c1.83,1.95,6.84-9.72,10.89-7.62l-6.5,9.28c-1.92,2.09-3.89,2.91-6.43,1.45l-3.4-10.74c4.74-.76,5.55,3.99,5.45,7.62Z"/>
    <path class="st19" d="M868.25,629.54l-1.09,1.09c-.21-.21-1.59-.01-2.12-.59-3.58-3.88-5.11-4.7-6.6-10.31l1.09-1.09c.68,2.77,6.1,9.11,8.72,10.9Z"/>
    <path class="st19" d="M810.48,572.87c-.07.74-1.44,1.82-.62,3.25.97,1.71,3.64,1.91,4.98,3.29-.92.05-1.89.04-2.18,1.09-1.71-1.13-5.08-.46-6.13-4.33-.85-3.13,1.52-2.98,2.86-4.39.17.43,1.1,1,1.09,1.09Z"/>
    <path class="st11" d="M896.58,422.47l-3.15-.1c-3.14-6.94,3.18-6.39,3.15.1Z"/>
    <path class="st19" d="M846.45,613.2h11.98c.42,1.11-1.08,2.06-1.09,2.18-3.19-1.38-7.18-1.4-10.9-2.18Z"/>
    <path class="st11" d="M1099.29,712.38c3.26,2.83-13.56,7.42-10.9,0h10.9Z"/>
    <path class="st14" d="M1043.71,706.93c2.78,2.52-9.94,7.16-11.97,2.7l11.97-2.7Z"/>
    <path class="st14" d="M1006.65,716.74c.5,5.88-6.42,6.88-9.79,2.71-.47-2.61,1.2-1.35,2.75-1.57,2.38-.33,4.72-.37,7.04-1.14Z"/>
    <path class="st11" d="M976.14,724.37v3.26c-3.95.22-10.87,2.93-9.8-3.26h9.8Z"/>
    <path class="st5" d="M999.02,710.2c-.13,4.9-6.93,5.95-9.79,2.7-.52-2.64,1.91-1.41,3.65-1.76,2.04-.41,4.01-1.18,6.14-.94Z"/>
    <path class="st23" d="M1023,722.18v-3.26c4.47,2.07,6.1-.1,9.8-2.18.39,6.26-5.21,5.72-9.8,5.44Z"/>
    <path class="st11" d="M1150.51,708.02c.55,5.35-4.74,6.06-8.71,4.34-.16-4.61,3.17-2.13,4.73-2.52s2-2.34,3.98-1.83Z"/>
    <path class="st26" d="M1131.45,709.12l1.63,2.69c-2.03,2.99-6.08,4.22-8.71,1.09.5-4.37,5.19.02,7.08-3.78Z"/>
    <polygon class="st5" points="984.85 716.74 984.13 720.02 976.14 721.09 976.13 717.83 984.85 716.74"/>
    <path class="st11" d="M1177.76,693.85c-.13.34-5.79,4.06-6.53,3.26-1.55-5.68,8.52-8.51,6.53-3.26Z"/>
    <path class="st19" d="M1079.67,699.3c1.05,3.24-7.04,4.94-7.62,4.35l1.33-3.57,6.29-.78Z"/>
    <path class="st5" d="M1065.5,710.2c1.05,3.25-7.06,4.94-7.62,4.35l.72-3.28,6.9-1.07Z"/>
    <polygon class="st5" points="1117.82 713.45 1110.19 714.55 1110.18 711.29 1116.24 710.55 1117.82 713.45"/>
    <path class="st14" d="M1166.86,705.84c.42,2.87-1.53,5.63-4.35,5.44-.42-2.87,1.53-5.63,4.35-5.44Z"/>
    <path class="st19" d="M1049.15,716.74v3.26s-4.35,0-4.35,0v-1.61c1.15-1.71,2.34-1.9,4.35-1.65Z"/>
    <path class="st19" d="M1025.18,703.66c1.44,1.43-1.9,6.46-3.25,2.71-1.16-3.21,2.43-3.53,3.25-2.71Z"/>
    <path class="st5" d="M1003.38,706.92l-3.11-1.23-.15-3.12h1.61c1.71,1.15,1.9,2.35,1.64,4.35Z"/>
    <path class="st19" d="M1085.12,710.2c.29.25.04,1.48-.53,2.18-4.01,4.94-3.39-5.68.53-2.18Z"/>
    <path class="st19" d="M927.07,696.06l3.29,6.5c-4.74.62-7.16-1.84-6.53-6.53l3.24.03Z"/>
    <path class="st26" d="M941.26,684.03c-2.42,2.46-5.85-3.74-4.35-6.53,3.12-.92,5.57,5.28,4.35,6.53Z"/>
    <path class="st5" d="M961.22,691.38c.19.39,1.28.34,1.82.3.19,1.69.46,2.53-1.63,2.19-3.63-.59-5.48-5.21-2.16-7.64,1.96,1.23,1.16,3.48,1.97,5.14Z"/>
    <path class="st19" d="M967.42,704.74c-2.49,2.49-6.88-4.49-2.7-5.44,2.67-.6,3.41,4.73,2.7,5.44Z"/>
    <path class="st19" d="M958.69,672.05l1.1,5.44-4.34-1.64c-.42-2.26.92-4.16,3.25-3.8Z"/>
    <path class="st19" d="M886.77,716.73c1.85,2.55-3.3,6.54-4.34,2.72s3.41-4.01,4.34-2.72Z"/>
    <path class="st26" d="M887.86,705.84l-.51,3.29c-3.81,2.8-4.34.86-3.83-3.29h4.35Z"/>
    <path class="st19" d="M939.08,703.66l-.51,3.29c-3.81,2.8-4.34.86-3.83-3.29h4.35Z"/>
    <rect class="st19" x="835.55" y="406.13" width="3.27" height="6.53"/>
    <path class="st19" d="M911.85,686.21v-4.35c5.75-.52,5.8,4.85,0,4.35Z"/>
    <path class="st5" d="M952.16,667.68h-3.26s0-4.35,0-4.35h1.61c1.71,1.15,1.9,2.34,1.65,4.35Z"/>
    <path class="st5" d="M952.16,693.84h-3.26s0-4.35,0-4.35h1.61c1.71,1.15,1.9,2.34,1.65,4.35Z"/>
    <path class="st26" d="M933.63,670.95h-3.26c-.41-5.45,3.67-5.45,3.26,0Z"/>
    <path class="st26" d="M917.28,696.03c1.4,1.5-1.93,5.78-3.26,4.35-1.4-1.5,1.93-5.78,3.26-4.35Z"/>
    <path class="st19" d="M827.92,679.68c1.73,1.73-1.53,4.99-3.26,3.26s1.53-4.99,3.26-3.26Z"/>
    <path class="st19" d="M811.57,655.71c1.73,1.73-1.53,4.99-3.26,3.26s1.53-4.99,3.26-3.26Z"/>
    <path class="st19" d="M948.89,708.01c-1.93,2.08-4.88-4.36-1.63-4.33,1.12.01,2.3,3.61,1.63,4.33Z"/>
    <path class="st19" d="M810.48,665.51c.29.25.04,1.48-.53,2.18-4.01,4.94-3.39-5.68.53-2.18Z"/>
    <path class="st19" d="M972.87,429.01h-3.26s0-3.26,0-3.26c1.99-.36,3.61,1.2,3.26,3.26Z"/>
    <path class="st19" d="M847.53,400.67h-3.26s0-3.26,0-3.26c1.99-.36,3.61,1.2,3.26,3.26Z"/>
    <path class="st19" d="M880.23,381.07v3.26c-1.35,1.46-6.73-4.41,0-3.26Z"/>
    <path class="st19" d="M776.69,541.26h-3.26s0-3.26,0-3.26c1.99-.36,3.61,1.2,3.26,3.26Z"/>
    <path class="st19" d="M798.49,462.79h-3.26c.02-4,3.24-4,3.26,0Z"/>
    <path class="st19" d="M783.23,604.47h-3.26c.02-4,3.24-4,3.26,0Z"/>
    <path class="st19" d="M952.16,421.38c.03-4,3.24-4.01,3.26,0h-3.26Z"/>
    <path class="st19" d="M920.56,385.42c-.03,4-3.24,4.01-3.26,0h3.26Z"/>
    <rect class="st19" x="948.9" y="714.56" width="2.17" height="3.26"/>
    <rect class="st21" x="856.26" y="700.39" width="3.26" height="2.17"/>
    <rect class="st19" x="930.37" y="723.28" width="2.17" height="3.26"/>
    <rect class="st19" x="774.53" y="588.14" width="2.17" height="3.26"/>
    <rect class="st19" x="771.26" y="557.62" width="2.17" height="3.26"/>
    <rect class="st19" x="896.59" y="381.07" width="3.26" height="2.17"/>
    <path class="st5" d="M837.72,457.35l-1.64,5.43c-6.66-.32-3.31-5.21,1.64-5.43Z"/>
    <path class="st19" d="M839.9,444.28c2.49,2.49-4.49,6.88-5.44,2.7-.6-2.67,4.73-3.41,5.44-2.7Z"/>
    <path class="st19" d="M860.62,449.71c-2.49-2.49,4.49-6.88,5.44-2.7.6,2.67-4.73,3.41-5.44,2.7Z"/>
    <path class="st11" d="M832.28,469.34l-.51,4.38c-5.97,4.08-4.67-4.19.51-4.38Z"/>
    <path class="st19" d="M856.25,442.1c.79.79-.41,4.85-2.7,4.35-4.03-.89.6-6.45,2.7-4.35Z"/>
    <path class="st5" d="M823.56,468.25v3.26c-2.01.25-3.2.07-4.35-1.65v-1.61s4.35,0,4.35,0Z"/>
    <path class="st23" d="M851.89,430.1h-3.26c-.41-5.45,3.67-5.45,3.26,0Z"/>
    <polygon class="st19" points="862.25 433.39 863.88 435.02 862.25 437.71 860.62 436.08 862.25 433.39"/>
    <path class="st28" d="M867.16,538c.91.7,2.82,1.05,3.01,1.31.27.4,1.15,6.01,1.04,6.71-.3,1.86-13.14,20.81-14.6,21.24-6.4,1.92-4.13-5.29-4.96-8.85-1.39-5.97-3.48-9.09-6.83-13.85l-4.9,7.12c-2.78,1.49-10.39-2.93-14.97,1.86-1.41,1.48-.92,5.37-4.65,5.16,1.29-3.87,4.73-10.87,4.36-14.17-.07-.6-.88-1.49-1.09-2.18,7.2-6.92,30.78-16.42,39.62-10.74,2.57,1.66.89,4.02,3.98,6.38ZM859.52,541.26c.41-5.45-3.67-5.45-3.26,0h3.26ZM868.24,544.54c-3.93-3.5-4.55,7.11-.53,2.18.57-.7.82-1.92.53-2.18Z"/>
    <path class="st7" d="M883.5,514.02c.23-.5-.67-2.06.64-2.23,14.41-3.45,10.47,22.05-1.73,19.66-.5-.36,7.62-8.1,4.91-10.88-4.06,6.2-8.13,11.51-14.72,15.25-1.54-.1-6.15,1.09-5.41-1.58,1.36-4.9,3.83-4.56,6.5-7.14,5.35-5.18,6.52-5.96,9.81-13.08Z"/>
    <path class="st7" d="M898.49,511.03c3.79,3.42,4.44,20.39-4.08,19.34-.9-7.07,4.34-15.85-3.27-20.15.92-2.47,6.37-.07,7.36.82Z"/>
    <path class="st7" d="M898.77,507.49c7.3-2.07,13.32,14.17,8.15,15.25-3.81.8-3.92-7.11-4.8-9.35-.96-2.44-3.44-3.3-3.35-5.9Z"/>
    <path class="st9" d="M822.47,569.6c-2.18-1.99-1.64-3.91-1.09-6.54.44-.31.78-1.8,1.63-2.16l10.36,10.35-1.66,2.71c-1.09.23-8.18-3.39-9.23-4.36Z"/>
    <path class="st7" d="M872.61,526.01c-11.8-2.62,4.48-10.06,8.72-13.08-1.11,4.39-5.4,10.12-8.72,13.08Z"/>
    <path class="st7" d="M874.79,536.91c1.54-1.39,9.02-6.08,9.8-1.65l-10.35,8.16c-1.57-.59-1.24-2.7-1.63-3.25.41-1.37,1.13-2.32,2.18-3.27Z"/>
    <path class="st7" d="M879.15,545.62c-.54-3.53,2.73-5.57,5.05-7.54l3.59,2.78c.5,2.81-6.21,5.58-8.64,4.76Z"/>
    <path class="st19" d="M882.41,511.84c-.51-.51,1.01-1.73,1.09-.54.03.38-.85.79-1.09.54Z"/>
    <path class="st19" d="M883.5,514.02c-3.29,7.11-4.45,7.9-9.81,13.08-.18-.47-.61-.98-1.09-1.09,3.32-2.95,7.61-8.69,8.72-13.08.17-.12.09-1.34,1.09-1.09l1.09,2.18Z"/>
    <path class="st25" d="M861.71,605.57c1.43-2.6,10.86-12.62,14.01-10.76l4.53,9.02c-1,5.03-8.33,15.22-7.68,19.66.6,4.13,11,9.78,15.14,8.07l11.04-18.37c-.14,8.19-5.12,17.12-2.17,25.06l-15.26-3.26c-4.43-1.55-9.15-2.76-13.08-5.45-2.62-1.79-8.04-8.12-8.72-10.9-.87-3.54.39-9.83,2.18-13.08Z"/>
    <path class="st13" d="M739.36,786.7c3.75-.3,12,3.92,14.99,6.32,17.01,13.65,1.36,42.88-15.85,37.64-1.51-.46-14.27-8.05-16.62-9.52-7.17-4.5-10.4-6.02-6.4-14.69s14.45-19,23.89-19.75ZM717.99,813.57c5.99,2.1,19.96,13.76,25.36,13.23,12.87-1.28,20.86-23.26,7.77-31.62-16.01-10.23-28.93,3.35-33.13,18.4Z"/>
    <path class="st13" d="M776.42,740.87c9.33-1.81,21.28,13.84,13.42,22.24-6.35,6.78-27.35,5.39-27.39-3.31-.02-4.76,8.95-17.96,13.97-18.93ZM777.49,745.24c-3.18.48-10.66,10.78-10.61,13.49.12,6.36,21.81,6.15,21.88-2.17.04-5.33-6.05-12.11-11.27-11.32Z"/>
    <path class="st15" d="M740.48,491.97c-4.82,4.81-22.11-2.31-26.92-5.81-21.95-15.98,1.55-51.46,26.02-34.73,4.27,2.92,8.99,8.37,7.63,13.99-2.81,5.26-3.22,23.04-6.73,26.55ZM737.32,488.81c1.36-7,7.48-23.72,4.36-29.69-4.6-8.79-22.24-10.05-28.67-1.71-13.59,17.62,7.57,32.51,24.31,31.4Z"/>
    <path class="st13" d="M663.09,434.67c11.44-.99,19.79,27.36,8.22,29.02-3.39.49-19.62-4.58-20.84-8.15-2.86-8.36,3.57-20.08,12.63-20.87ZM661.98,438.98c-5.76,1.15-11.17,11.02-6.19,15.59,1.56,1.43,13.16,5.19,14.56,4.86,4.83-1.16.79-22.27-8.37-20.44Z"/>
    <path class="st13" d="M758.84,383.55c8.51-1,23.81,7.71,16.77,17.67-1.38,1.95-10.86,11.27-12.55,11.45-5.39.57-12.67-6.22-13.54-11.51-.96-5.83,3.02-16.88,9.32-17.62ZM758.94,387.83c-8.15,2.45-7.36,17.3,1.38,20.05,3.87,1.22,13.87-9.4,12.96-12.96-1.08-4.19-9.82-8.44-14.34-7.08Z"/>
    <path class="st13" d="M1167.77,458.63c8.51,14.16-.04,41.75-13.63,49.75-18.16,10.68-16.54-7.52-26.77-17.52-3.91-9.59,9-19.09,16.27-23.49,4.25-2.56,20.04-11.24,24.13-8.74ZM1165.67,462.89c-2.98-2.06-22.81,9.78-26.06,12.43-3.62,2.94-9.96,8.55-8.15,13.57.43,1.2,11.08,18.17,12.15,18.48,18.36-2.79,26.75-28.51,22.07-44.48Z"/>
    <path class="st13" d="M1050.58,323.63c5.99-6.7,16.27-5.77,22.05.71,6.36,7.13-3.07,22.84-10.7,21.68-2.52-.38-14.83-11.55-14.68-14.36.07-1.33,2.41-7,3.33-8.03ZM1066.28,340.4c2.51-2.14,6.13-10.6,4.14-13.85-.56-.92-7.49-4.25-8.81-4.33-4.72-.31-12.19,5.39-9.26,10.38.38.65,8.27,8.46,8.84,8.72,1.81.81,3.63.33,5.1-.92Z"/>
    <path class="st20" d="M900.94,625.18c.41,2.57-.25,5.87-.94,8.38-.51,1.86.79,3.03-2.32,2.51-.84-4.51,1.55-9.07,2.17-13.07-.08.83,1.03,1.81,1.09,2.18Z"/>
    <path class="st28" d="M824.65,581.59l34.47,8.57,13.39-.89,1.19,3.19c-2.76.41-6.69,3.05-8.6,5.04-2.06,2.15-2.5,4.82-3.39,5.88-.25.3-1.6.82-2.18,1.09h-6.54c-12.07-1.94-21.47-5.05-27.43-16.7-.43-.84-3.64-6.64-.9-6.18ZM855.16,592.5c-1.73-1.73-4.99,1.53-3.26,3.26s4.99-1.53,3.26-3.26Z"/>
    <path class="st25" d="M914.01,551.08c.62,3.23-6.73,27.3-8.16,27.22-8.66-8.44-1.49-22.86,8.16-27.22Z"/>
    <path class="st18" d="M905.3,582.67c-6.17,2.7-9.09.09-8.62-6.42l4.25-.72,4.37,7.14Z"/>
    <path class="st2" d="M904.21,584.87l-1.62,4.35c-2.86-2.62-2.63-5.23,1.62-4.35Z"/>
    <path class="st20" d="M824.65,544.54c-2.66-.52-3.81,4.02-4.55,5.81-1.54,3.74-2.71,7.65-3.68,11.57-.65,2.63.75,7.51-2.66,6.59-1.41-11.05,2.05-18.7,9.8-26.15.21.69,1.02,1.58,1.09,2.18Z"/>
    <path class="st20" d="M858.43,607.75c-.91,6.43-13.4,2.36-17.73.84-13.72-4.81-20.04-13.04-23.67-26.99,2.21-.44,2.58,1.05,3.47,2.51,2.04,3.36,3.09,6.97,5.88,10.47,7.74,9.72,19.9,13.3,32.05,13.17Z"/>
    <path class="st5" d="M859.53,604.48c-4.53,2.12-3.63.47-6.54,0h6.54Z"/>
    <path class="st5" d="M859.52,541.26h-3.26c-.41-5.45,3.67-5.45,3.26,0Z"/>
    <path class="st5" d="M868.24,544.54c.29.25.04,1.48-.53,2.18-4.01,4.94-3.39-5.68.53-2.18Z"/>
    <path class="st19" d="M855.16,592.5c1.73,1.73-1.53,4.99-3.26,3.26s1.53-4.99,3.26-3.26Z"/>
  </g>
</svg>